<svg xmlns="http://www.w3.org/2000/svg" xmlns:xlink="http://www.w3.org/1999/xlink">
  <defs>
    <symbol viewBox="0 0 50 50" id='home'>
      <path d="M20.56,41.24v-11.08h8.86v11.08c0,1.22,1,2.22,2.22,2.22h6.65c1.22,0,2.22-1,2.22-2.22v-15.51h3.77c1.02,0,1.51-1.26,.73-1.93L26.48,7.11c-.84-.75-2.13-.75-2.97,0L4.99,23.8c-.75,.66-.29,1.93,.73,1.93h3.77v15.51c0,1.22,1,2.22,2.22,2.22h6.65c1.22,0,2.22-1,2.22-2.22Z"/>
    </symbol>
    <symbol viewBox="0 0 50 50" id='blog'>
      <path d="M41.25,22.98H8.75c-1.12,0-2.03,.91-2.03,2.03s.91,2.03,2.03,2.03H41.25c1.12,0,2.03-.91,2.03-2.03s-.91-2.03-2.03-2.03ZM8.75,37.2H29.06c1.12,0,2.03-.91,2.03-2.03s-.91-2.03-2.03-2.03H8.75c-1.12,0-2.03,.91-2.03,2.03s.91,2.03,2.03,2.03ZM41.25,12.83H8.75c-1.12,0-2.03,.91-2.03,2.03v.02c0,1.12,.91,2.03,2.03,2.03H41.25c1.12,0,2.03-.91,2.03-2.03v-.02c0-1.12-.91-2.03-2.03-2.03Z"/>
    </symbol>
    <symbol viewBox="0 0 50 50" id='pharmacy'>
      <path d="M8.86,11.16H41.14c1.27,0,2.31-1.04,2.31-2.31s-1.04-2.31-2.31-2.31H8.86c-1.27,0-2.31,1.04-2.31,2.31s1.04,2.31,2.31,2.31Zm34.96,4.15c-.21-1.06-1.15-1.85-2.26-1.85H8.44c-1.11,0-2.05,.78-2.26,1.85l-2.31,11.53c-.28,1.43,.81,2.77,2.26,2.77h.42v11.53c0,1.27,1.04,2.31,2.31,2.31H27.31c1.27,0,2.31-1.04,2.31-2.31v-11.53h9.23v11.53c0,1.27,1.04,2.31,2.31,2.31s2.31-1.04,2.31-2.31v-11.53h.42c1.45,0,2.54-1.34,2.26-2.77l-2.31-11.53Zm-18.82,23.52H11.16v-9.23h13.84v9.23Z"/>
    </symbol>
    <symbol viewBox="0 0 50 50" id='prescription'>
      <path d="M39.44,6.46H10.56c-2.27,0-4.12,1.86-4.12,4.12v28.87c0,2.27,1.86,4.12,4.12,4.12h28.87c2.27,0,4.12-1.86,4.12-4.12V10.58c0-2.27-1.86-4.12-4.12-4.12Zm-12.37,28.87h-10.31c-1.13,0-2.06-.93-2.06-2.06s.93-2.06,2.06-2.06h10.31c1.13,0,2.06,.93,2.06,2.06s-.93,2.06-2.06,2.06Zm6.19-8.25H16.75c-1.13,0-2.06-.93-2.06-2.06s.93-2.06,2.06-2.06h16.5c1.13,0,2.06,.93,2.06,2.06s-.93,2.06-2.06,2.06Zm0-8.25H16.75c-1.13,0-2.06-.93-2.06-2.06s.93-2.06,2.06-2.06h16.5c1.13,0,2.06,.93,2.06,2.06s-.93,2.06-2.06,2.06Z"/>
    </symbol>
    <symbol viewBox="0 0 50 50" id='ecommerce'>
      <path d="M38.33,14.54h-3.81c0-5.25-4.26-9.52-9.52-9.52s-9.52,4.26-9.52,9.52h-3.81c-2.09,0-3.81,1.71-3.81,3.81v22.85c0,2.09,1.71,3.81,3.81,3.81h26.66c2.09,0,3.81-1.71,3.81-3.81V18.35c0-2.09-1.71-3.81-3.81-3.81Zm-13.33-5.71c3.16,0,5.71,2.55,5.71,5.71h-11.42c0-3.16,2.55-5.71,5.71-5.71Zm0,19.04c-4.44,0-8.17-3.03-9.22-7.14-.32-1.2,.61-2.38,1.85-2.38,.89,0,1.62,.65,1.87,1.52,.67,2.42,2.87,4.19,5.5,4.19s4.84-1.77,5.5-4.19c.25-.88,.97-1.52,1.87-1.52,1.24,0,2.15,1.18,1.85,2.38-1.05,4.11-4.78,7.14-9.22,7.14Z"/>
    </symbol>
    <symbol viewBox="0 0 50 50" id='products'>
      <path d="M35.68,5.78H14.32c-1.17,0-2.14,.96-2.14,2.14h0c0,1.17,.96,2.14,2.14,2.14h21.36c1.17,0,2.14-.96,2.14-2.14h0c0-1.17-.96-2.14-2.14-2.14Z"/><path class="cls-1" d="M35.68,12.19H14.32c-2.35,0-4.27,1.92-4.27,4.27v23.49c0,2.35,1.92,4.27,4.27,4.27h21.36c2.35,0,4.27-1.92,4.27-4.27V16.46c0-2.35-1.92-4.27-4.27-4.27Zm-5.34,19.22h-2.14v2.14c0,1.77-1.43,3.2-3.2,3.2h0c-1.77,0-3.2-1.43-3.2-3.2v-2.14h-2.14c-1.77,0-3.2-1.43-3.2-3.2h0c0-1.77,1.43-3.2,3.2-3.2h2.14v-2.14c0-1.77,1.43-3.2,3.2-3.2h0c1.77,0,3.2,1.43,3.2,3.2v2.14h2.14c1.77,0,3.2,1.43,3.2,3.2h0c0,1.77-1.43,3.2-3.2,3.2Z"/>
    </symbol>
    <symbol viewBox="0 0 50 50" id='order'>
      <path d="M17.52,36.21c-2.05,0-3.72,1.68-3.72,3.74s1.66,3.74,3.72,3.74,3.74-1.68,3.74-3.74-1.68-3.74-3.74-3.74ZM8.18,10.06h1.87l6.73,14.18-2.52,4.56c-1.36,2.5,.43,5.55,3.27,5.55h20.55c1.03,0,1.87-.84,1.87-1.87s-.84-1.87-1.87-1.87H17.52l2.05-3.74h13.92c1.4,0,2.63-.77,3.27-1.92l6.69-12.12c.69-1.23-.21-2.76-1.63-2.76H14.18l-1.25-2.67c-.3-.65-.97-1.06-1.68-1.06h-3.06c-1.03,0-1.87,.84-1.87,1.87s.84,1.87,1.87,1.87Zm28.02,26.15c-2.05,0-3.72,1.68-3.72,3.74s1.66,3.74,3.72,3.74,3.74-1.68,3.74-3.74-1.68-3.74-3.74-3.74Z"/>
    </symbol>
    <symbol viewBox="0 0 50 50" id='calendar'>
      <path d="M34.3,6.41c-1.02,0-1.86,.84-1.86,1.86v1.86h-14.87v-1.86c0-1.02-.84-1.86-1.86-1.86s-1.86,.84-1.86,1.86v1.86h-1.86c-2.06,0-3.7,1.67-3.7,3.72l-.02,26.03c0,2.04,1.65,3.72,3.72,3.72h26.03c2.04,0,3.72-1.67,3.72-3.72V13.85c0-2.04-1.67-3.72-3.72-3.72h-1.86v-1.86c0-1.02-.84-1.86-1.86-1.86Zm3.72,33.46H11.99V21.28h26.03v18.59Zm-14.87-13.01c0-1.02,.84-1.86,1.86-1.86s1.86,.84,1.86,1.86-.84,1.86-1.86,1.86-1.86-.84-1.86-1.86Zm-7.44,0c0-1.02,.84-1.86,1.86-1.86s1.86,.84,1.86,1.86-.84,1.86-1.86,1.86-1.86-.84-1.86-1.86Zm14.87,0c0-1.02,.84-1.86,1.86-1.86s1.86,.84,1.86,1.86-.84,1.86-1.86,1.86-1.86-.84-1.86-1.86Zm-7.44,7.44c0-1.02,.84-1.86,1.86-1.86s1.86,.84,1.86,1.86-.84,1.86-1.86,1.86-1.86-.84-1.86-1.86Zm-7.44,0c0-1.02,.84-1.86,1.86-1.86s1.86,.84,1.86,1.86-.84,1.86-1.86,1.86-1.86-.84-1.86-1.86Zm14.87,0c0-1.02,.84-1.86,1.86-1.86s1.86,.84,1.86,1.86-.84,1.86-1.86,1.86-1.86-.84-1.86-1.86Z"/>
    </symbol>
    <symbol viewBox="0 0 50 50" id='menu'>
      <path d="M7.2,27.26c1.22,0,2.22-1,2.22-2.22s-1-2.22-2.22-2.22-2.22,1-2.22,2.22,1,2.22,2.22,2.22Zm0,8.9c1.22,0,2.22-1,2.22-2.22s-1-2.22-2.22-2.22-2.22,1-2.22,2.22,1,2.22,2.22,2.22Zm0-17.8c1.22,0,2.22-1,2.22-2.22s-1-2.22-2.22-2.22-2.22,1-2.22,2.22,1,2.22,2.22,2.22Zm8.9,8.9h26.7c1.22,0,2.22-1,2.22-2.22s-1-2.22-2.22-2.22H16.1c-1.22,0-2.22,1-2.22,2.22s1,2.22,2.22,2.22Zm0,8.9h26.7c1.22,0,2.22-1,2.22-2.22s-1-2.22-2.22-2.22H16.1c-1.22,0-2.22,1-2.22,2.22s1,2.22,2.22,2.22Zm-2.22-20.02c0,1.22,1,2.22,2.22,2.22h26.7c1.22,0,2.22-1,2.22-2.22s-1-2.22-2.22-2.22H16.1c-1.22,0-2.22,1-2.22,2.22Zm-6.67,11.12c1.22,0,2.22-1,2.22-2.22s-1-2.22-2.22-2.22-2.22,1-2.22,2.22,1,2.22,2.22,2.22Zm0,8.9c1.22,0,2.22-1,2.22-2.22s-1-2.22-2.22-2.22-2.22,1-2.22,2.22,1,2.22,2.22,2.22Zm0-17.8c1.22,0,2.22-1,2.22-2.22s-1-2.22-2.22-2.22-2.22,1-2.22,2.22,1,2.22,2.22,2.22Zm8.9,8.9h26.7c1.22,0,2.22-1,2.22-2.22s-1-2.22-2.22-2.22H16.1c-1.22,0-2.22,1-2.22,2.22s1,2.22,2.22,2.22Zm0,8.9h26.7c1.22,0,2.22-1,2.22-2.22s-1-2.22-2.22-2.22H16.1c-1.22,0-2.22,1-2.22,2.22s1,2.22,2.22,2.22Zm-2.22-20.02c0,1.22,1,2.22,2.22,2.22h26.7c1.22,0,2.22-1,2.22-2.22s-1-2.22-2.22-2.22H16.1c-1.22,0-2.22,1-2.22,2.22Z"/>
    </symbol>
    <symbol viewBox="0 0 50 50" id='graphism'>
      <path d="M16.65,28.71c-3.08,0-5.57,2.49-5.57,5.57,0,2.43-2.15,3.71-3.71,3.71,1.71,2.26,4.62,3.71,7.42,3.71,4.1,0,7.42-3.32,7.42-7.42,0-3.08-2.49-5.57-5.57-5.57ZM42.08,11.33l-2.49-2.49c-.72-.72-1.89-.72-2.62,0L20.36,25.47l5.1,5.1L42.08,13.95c.72-.72,.72-1.89,0-2.62Z"/>
    </symbol>
    <symbol viewBox="0 0 50 50" id='statistics'>
      <path d="M10.97,17.98h.5c1.93,0,3.51,1.58,3.51,3.51v17.54c0,1.93-1.58,3.51-3.51,3.51h-.5c-1.93,0-3.51-1.58-3.51-3.51V21.49c0-1.93,1.58-3.51,3.51-3.51ZM25,7.46c1.93,0,3.51,1.58,3.51,3.51v28.06c0,1.93-1.58,3.51-3.51,3.51s-3.51-1.58-3.51-3.51V10.97c0-1.93,1.58-3.51,3.51-3.51Zm14.03,20.04c1.93,0,3.51,1.58,3.51,3.51v8.02c0,1.93-1.58,3.51-3.51,3.51s-3.51-1.58-3.51-3.51v-8.02c0-1.93,1.58-3.51,3.51-3.51Z"/>
    </symbol>
    <symbol viewBox="0 0 50 50" id='survey'>
      <path d="M25,29.82c3.13,0,5.66-2.53,5.66-5.66V12.83c0-3.13-2.53-5.66-5.66-5.66s-5.66,2.53-5.66,5.66v11.32c0,3.13,2.53,5.66,5.66,5.66Zm11.15-5.66c-.92,0-1.7,.68-1.85,1.6-.77,4.44-4.64,7.83-9.31,7.83s-8.53-3.4-9.31-7.83c-.15-.92-.92-1.6-1.85-1.6-1.15,0-2.06,1.02-1.89,2.15,.92,5.66,5.45,10.1,11.15,10.91v3.93c0,1.04,.85,1.89,1.89,1.89s1.89-.85,1.89-1.89v-3.93c5.7-.81,10.23-5.25,11.15-10.91,.19-1.13-.74-2.15-1.89-2.15Z"/>
    </symbol>
    <symbol viewBox="0 0 50 50" id='communication'>
     <path d="M37.89,25.01h0c0,1.18,.97,2.15,2.15,2.15h4.3c1.18,0,2.15-.97,2.15-2.15h0c0-1.18-.97-2.15-2.15-2.15h-4.3c-1.18,0-2.15,.97-2.15,2.15Z"/>
     <path d="M34.86,35.36c-.71,.95-.52,2.26,.43,2.94,1.14,.84,2.34,1.74,3.48,2.6,.95,.71,2.28,.52,2.96-.43,0-.02,.02-.02,.02-.04,.71-.95,.52-2.28-.43-2.96-1.14-.86-2.34-1.76-3.46-2.6-.95-.71-2.28-.49-2.99,.45,0,.02-.02,.04-.02,.04Z"/>
     <path d="M41.78,9.57s-.02-.02-.02-.04c-.71-.95-2.04-1.14-2.96-.43-1.14,.86-2.36,1.76-3.48,2.62-.95,.71-1.12,2.04-.41,2.96,0,.02,.02,.02,.02,.04,.71,.95,2.02,1.14,2.96,.43,1.14-.84,2.34-1.76,3.48-2.62,.92-.69,1.1-2.02,.41-2.96Z"/>
     <path d="M16.41,18.57H7.82c-2.36,0-4.3,1.93-4.3,4.3v4.3c0,2.36,1.93,4.3,4.3,4.3h2.15v6.44c0,1.18,.97,2.15,2.15,2.15h0c1.18,0,2.15-.97,2.15-2.15v-6.44h2.15l10.74,6.44V12.12l-10.74,6.44Z"/>
     <path d="M32.52,25.01c0-2.86-1.25-5.43-3.22-7.2v14.37c1.98-1.74,3.22-4.32,3.22-7.17Z"/>
    </symbol>
    <symbol viewBox="0 0 50 50" id='newsletter'>
      <path d="M8.49,41.65l34.6-14.83c1.61-.69,1.61-2.95,0-3.65L8.49,8.35c-1.31-.57-2.76,.4-2.76,1.8l-.02,9.14c0,.99,.73,1.84,1.72,1.96l28.02,3.75-28.02,3.73c-.99,.14-1.72,.99-1.72,1.98l.02,9.14c0,1.41,1.45,2.38,2.76,1.8Z"/>
    </symbol>
    <symbol viewBox="0 0 50 50" id='patient'>
      <path d="M32.71,23.07c3.2,0,5.76-2.58,5.76-5.78s-2.56-5.78-5.76-5.78-5.78,2.58-5.78,5.78,2.58,5.78,5.78,5.78Zm-15.41,0c3.2,0,5.76-2.58,5.76-5.78s-2.56-5.78-5.76-5.78-5.78,2.58-5.78,5.78,2.58,5.78,5.78,5.78Zm0,3.85c-4.49,0-13.49,2.25-13.49,6.74v2.89c0,1.06,.87,1.93,1.93,1.93H28.85c1.06,0,1.93-.87,1.93-1.93v-2.89c0-4.49-9-6.74-13.49-6.74Zm15.41,0c-.56,0-1.19,.04-1.87,.1,.04,.02,.06,.06,.08,.08,2.2,1.6,3.72,3.74,3.72,6.57v2.89c0,.67-.13,1.33-.35,1.93h9.98c1.06,0,1.93-.87,1.93-1.93v-2.89c0-4.49-9-6.74-13.49-6.74Z"/>
    </symbol>
    <symbol viewBox="0 0 50 50" id='help'>
      <path d="M25.06,7.53C15.41,7.53,7.58,15.36,7.58,25s7.83,17.47,17.47,17.47,17.47-7.83,17.47-17.47S34.7,7.53,25.06,7.53Zm1.75,29.7h-3.49v-3.49h3.49v3.49Zm3.62-13.54l-1.57,1.61c-.87,.89-1.5,1.69-1.82,2.95-.14,.56-.23,1.19-.23,1.99h-3.49v-.87c0-.8,.14-1.57,.38-2.29,.35-1.01,.93-1.92,1.66-2.66l2.17-2.2c.8-.77,1.19-1.92,.96-3.14-.23-1.26-1.21-2.32-2.43-2.67-1.94-.54-3.74,.56-4.32,2.22-.21,.65-.75,1.14-1.43,1.14h-.52c-1.01,0-1.71-.98-1.43-1.96,.75-2.57,2.94-4.53,5.64-4.94,2.66-.42,5.19,.96,6.76,3.14,2.06,2.85,1.45,5.91-.33,7.69Z"/>
    </symbol>
    <symbol viewBox="0 0 50 50" id='chat'>
      <path d="M38.08,8.76H12.09c-1.79,0-3.23,1.46-3.23,3.25l-.02,29.24,6.5-6.5h22.74c1.79,0,3.25-1.46,3.25-3.25V12.01c0-1.79-1.46-3.25-3.25-3.25Zm-21.12,11.37h16.24c.89,0,1.62,.73,1.62,1.62s-.73,1.62-1.62,1.62H16.96c-.89,0-1.62-.73-1.62-1.62s.73-1.62,1.62-1.62Zm9.75,8.12h-9.75c-.89,0-1.62-.73-1.62-1.62s.73-1.62,1.62-1.62h9.75c.89,0,1.62,.73,1.62,1.62s-.73,1.62-1.62,1.62Zm6.5-9.75H16.96c-.89,0-1.62-.73-1.62-1.62s.73-1.62,1.62-1.62h16.24c.89,0,1.62,.73,1.62,1.62s-.73,1.62-1.62,1.62Z"/>
    </symbol>
    <symbol viewBox="0 0 50 50" id='contract'>
      <path d="M9.01,39.93H26.4c.96,0,1.74,.78,1.74,1.74s-.78,1.74-1.74,1.74H9.01c-.96,0-1.74-.78-1.74-1.74s.78-1.74,1.74-1.74Zm5.64-22.49l4.92-4.92,22.15,22.15c1.36,1.36,1.36,3.57,0,4.92s-3.57,1.36-4.92,0L14.64,17.43ZM29.41,7.59l4.92,4.92c1.36,1.36,1.36,3.57,0,4.92l-2.47,2.47-9.83-9.85,2.45-2.45c1.36-1.37,3.57-1.37,4.92-.02ZM12.19,19.89l9.85,9.85-2.45,2.45c-1.36,1.36-3.57,1.36-4.92,0l-4.92-4.92c-1.36-1.36-1.36-3.57,0-4.92l2.45-2.45Z"/>
    </symbol>
    <symbol viewBox="0 0 50 50" id='receipt'>
      <path d="M41.03,7.56c-.23,0-.46,.09-.62,.27l-1.41,1.41c-.36,.36-.91,.36-1.26,0l-1.41-1.41c-.36-.36-.91-.36-1.26,0l-1.41,1.41c-.36,.36-.91,.36-1.26,0l-1.41-1.41c-.36-.36-.91-.36-1.26,0l-1.41,1.41c-.36,.36-.91,.36-1.26,0l-1.41-1.41c-.36-.36-.91-.36-1.26,0l-1.41,1.41c-.36,.36-.91,.36-1.26,0l-1.43-1.42c-.36-.36-.91-.36-1.26,0l-1.41,1.42c-.36,.36-.91,.36-1.26,0l-1.41-1.42c-.36-.36-.91-.36-1.26,0l-1.41,1.42c-.36,.36-.91,.36-1.26,0l-1.41-1.42c-.16-.16-.39-.25-.62-.25V42.46c.23,0,.46-.09,.62-.27l1.41-1.41c.36-.36,.91-.36,1.26,0l1.41,1.41c.36,.36,.91,.36,1.26,0l1.41-1.41c.36-.36,.91-.36,1.26,0l1.41,1.41c.36,.36,.91,.36,1.26,0l1.41-1.41c.36-.36,.91-.36,1.26,0l1.41,1.41c.36,.36,.91,.36,1.26,0l1.41-1.41c.36-.36,.91-.36,1.26,0l1.41,1.41c.36,.36,.91,.36,1.26,0l1.41-1.41c.36-.36,.91-.36,1.26,0l1.41,1.41c.36,.36,.91,.36,1.26,0l1.41-1.41c.36-.36,.91-.36,1.26,0l1.41,1.41c.18,.18,.41,.27,.62,.27V7.56h.02Zm-7.12,26.34H16.09c-.98,0-1.78-.8-1.78-1.78s.8-1.78,1.78-1.78h17.81c.98,0,1.78,.8,1.78,1.78s-.8,1.78-1.78,1.78Zm0-7.12H16.09c-.98,0-1.78-.8-1.78-1.78s.8-1.78,1.78-1.78h17.81c.98,0,1.78,.8,1.78,1.78s-.8,1.78-1.78,1.78Zm0-7.12H16.09c-.98,0-1.78-.8-1.78-1.78s.8-1.78,1.78-1.78h17.81c.98,0,1.78,.8,1.78,1.78s-.8,1.78-1.78,1.78Z"/>
    </symbol>
    <symbol viewBox="0 0 50 50" id='account'>
      <path d="M25,6.55C14.82,6.55,6.55,14.82,6.55,25s8.27,18.45,18.45,18.45,18.45-8.27,18.45-18.45S35.18,6.55,25,6.55Zm0,5.54c3.06,0,5.54,2.47,5.54,5.54s-2.47,5.54-5.54,5.54-5.54-2.47-5.54-5.54,2.47-5.54,5.54-5.54Zm0,26.2c-4.61,0-8.69-2.36-11.07-5.94,.06-3.67,7.38-5.68,11.07-5.68s11.02,2.01,11.07,5.68c-2.38,3.58-6.46,5.94-11.07,5.94Z"/>
    </symbol>
    <symbol viewBox="0 0 50 50" id='article'>
      <path d="M41.25,22.98H8.75c-1.12,0-2.03,.91-2.03,2.03s.91,2.03,2.03,2.03H41.25c1.12,0,2.03-.91,2.03-2.03s-.91-2.03-2.03-2.03ZM8.75,37.2H29.06c1.12,0,2.03-.91,2.03-2.03s-.91-2.03-2.03-2.03H8.75c-1.12,0-2.03,.91-2.03,2.03s.91,2.03,2.03,2.03ZM41.25,12.83H8.75c-1.12,0-2.03,.91-2.03,2.03v.02c0,1.12,.91,2.03,2.03,2.03H41.25c1.12,0,2.03-.91,2.03-2.03v-.02c0-1.12-.91-2.03-2.03-2.03Z"/>
    </symbol>
    <symbol viewBox="0 0 50 50" id='opinion'>
      <path d="M24.98,7.58C15.37,7.58,7.58,15.39,7.58,25s7.79,17.42,17.4,17.42,17.44-7.8,17.44-17.42S34.61,7.58,24.98,7.58Zm-6.08,10.45c1.45,0,2.61,1.17,2.61,2.61s-1.17,2.61-2.61,2.61-2.61-1.17-2.61-2.61,1.17-2.61,2.61-2.61Zm14.3,11.7c-1.59,3.4-4.65,5.71-8.2,5.71s-6.62-2.32-8.2-5.71c-.28-.57,.14-1.25,.78-1.25h14.84c.64,0,1.06,.68,.78,1.25Zm-2.11-6.48c-1.45,0-2.61-1.17-2.61-2.61s1.17-2.61,2.61-2.61,2.61,1.17,2.61,2.61-1.17,2.61-2.61,2.61Z"/>
    </symbol>
    <symbol viewBox="0 0 50 50" id='actions'>
      <path d="M37.96,25c0-.4-.02-.78-.05-1.17l3.21-2.44c.69-.52,.88-1.49,.45-2.25l-3.23-5.58c-.43-.76-1.36-1.07-2.16-.73l-3.71,1.57c-.64-.45-1.31-.85-2.02-1.17l-.5-3.99c-.1-.86-.85-1.52-1.71-1.52h-6.44c-.88,0-1.62,.66-1.73,1.52l-.5,3.99c-.71,.33-1.38,.73-2.02,1.17l-3.71-1.57c-.79-.35-1.73-.03-2.16,.73l-3.23,5.6c-.43,.76-.24,1.71,.45,2.25l3.21,2.44c-.03,.38-.05,.76-.05,1.16s.02,.78,.05,1.17l-3.21,2.44c-.69,.52-.88,1.49-.45,2.25l3.23,5.58c.43,.76,1.36,1.07,2.16,.73l3.71-1.57c.64,.45,1.31,.85,2.02,1.17l.5,3.99c.1,.86,.85,1.52,1.71,1.52h6.44c.86,0,1.61-.66,1.71-1.52l.5-3.99c.71-.33,1.38-.73,2.02-1.17l3.71,1.57c.79,.35,1.73,.03,2.16-.73l3.23-5.58c.43-.76,.24-1.71-.45-2.25l-3.21-2.44c.05-.4,.07-.78,.07-1.17Zm-12.89,6.05c-3.33,0-6.05-2.71-6.05-6.05s2.71-6.05,6.05-6.05,6.05,2.71,6.05,6.05-2.71,6.05-6.05,6.05Z"/>
    </symbol>
    <symbol viewBox="0 0 50 50" id='add'>
      <path d="M38.27,27.21h-11.03v11.03c0,1.21-.99,2.21-2.21,2.21s-2.21-.99-2.21-2.21v-11.03H11.8c-1.21,0-2.21-.99-2.21-2.21s.99-2.21,2.21-2.21h11.03V11.77c0-1.21,.99-2.21,2.21-2.21s2.21,.99,2.21,2.21v11.03h11.03c1.21,0,2.21,.99,2.21,2.21s-.99,2.21-2.21,2.21Z"/>
    </symbol>
    <symbol viewBox="0 0 50 50" id='arrow-down'>
      <path d="M38.17,14.8l-13.19,13.19L11.8,14.8c-1.33-1.33-3.47-1.33-4.79,0s-1.33,3.47,0,4.79l15.6,15.6c1.33,1.33,3.47,1.33,4.79,0l15.6-15.6c1.33-1.33,1.33-3.47,0-4.79-1.33-1.29-3.5-1.33-4.83,0Z"/>
    </symbol>
    <symbol viewBox="0 0 50 50" id='arrow-left'>
      <path d="M6.98,23.56l13.04-13.04c.8-.8,2.09-.8,2.88,0,.8,.8,.8,2.09,0,2.88l-9.56,9.56h28.28c1.11,.02,2.01,.92,2.01,2.04s-.9,2.01-2.01,2.03H13.34l9.56,9.57c.8,.8,.8,2.09,0,2.88-.4,.4-.92,.6-1.44,.6s-1.04-.2-1.44-.6L6.98,26.44c-.8-.8-.8-2.09,0-2.88Z"/>
    </symbol>
    <symbol viewBox="0 0 50 50" id='cancel'>
      <path d="M41.5,8.53c-1.02-1.02-2.67-1.02-3.69,0l-12.81,12.78L12.19,8.5c-1.02-1.02-2.67-1.02-3.69,0-1.02,1.02-1.02,2.67,0,3.69l12.81,12.81-12.81,12.81c-1.02,1.02-1.02,2.67,0,3.69s2.67,1.02,3.69,0l12.81-12.81,12.81,12.81c1.02,1.02,2.67,1.02,3.69,0s1.02-2.67,0-3.69l-12.81-12.81,12.81-12.81c1-1,1-2.67,0-3.67Z"/>
    </symbol>
    <symbol viewBox="0 0 50 50" id='double-chevron'>
      <path d="M25,13.55l4.56,4.56c.72,.72,1.89,.72,2.62,0,.72-.72,.72-1.89,0-2.62l-5.88-5.9c-.72-.72-1.89-.72-2.62,0l-5.88,5.9c-.72,.72-.72,1.89,0,2.62s1.89,.72,2.62,0l4.58-4.56Zm0,22.89l-4.56-4.56c-.72-.72-1.89-.72-2.62,0-.72,.72-.72,1.89,0,2.62l5.88,5.9c.72,.72,1.89,.72,2.62,0l5.88-5.88c.72-.72,.72-1.89,0-2.62-.72-.72-1.89-.72-2.62,0l-4.58,4.55Z"/>
    </symbol>
    <symbol viewBox="0 0 50 50" id='drag-drop'>
      <path d="M22.48,40.12c0,2.77-2.27,5.04-5.04,5.04s-5.04-2.27-5.04-5.04,2.27-5.04,5.04-5.04,5.04,2.27,5.04,5.04Zm-5.04-20.16c-2.77,0-5.04,2.27-5.04,5.04s2.27,5.04,5.04,5.04,5.04-2.27,5.04-5.04-2.27-5.04-5.04-5.04Zm0-15.12c-2.77,0-5.04,2.27-5.04,5.04s2.27,5.04,5.04,5.04,5.04-2.27,5.04-5.04-2.27-5.04-5.04-5.04Zm15.12,10.08c2.77,0,5.04-2.27,5.04-5.04s-2.27-5.04-5.04-5.04-5.04,2.27-5.04,5.04,2.27,5.04,5.04,5.04Zm0,5.04c-2.77,0-5.04,2.27-5.04,5.04s2.27,5.04,5.04,5.04,5.04-2.27,5.04-5.04-2.27-5.04-5.04-5.04Zm0,15.12c-2.77,0-5.04,2.27-5.04,5.04s2.27,5.04,5.04,5.04,5.04-2.27,5.04-5.04-2.27-5.04-5.04-5.04Z"/>
    </symbol>
    <symbol viewBox="0 0 50 50" id='validate'>
      <path d="M43.33,12.46c-1.13-1.13-2.97-1.13-4.1,0L20.3,31.4l-9.53-9.53c-1.13-1.13-2.97-1.13-4.1,0-1.13,1.13-1.13,2.97,0,4.1l11.58,11.58c.57,.57,1.31,.85,2.05,.85s1.48-.28,2.05-.85l20.99-20.99c1.13-1.13,1.13-2.97,0-4.1Z"/>
    </symbol>
    <symbol viewBox="0 0 50 50" id='arrow-up'>
      <path d="M38.17,35.2l-13.19-13.19-13.19,13.19c-1.33,1.33-3.47,1.33-4.79,0s-1.33-3.47,0-4.79l15.6-15.6c1.33-1.33,3.47-1.33,4.79,0l15.6,15.6c1.33,1.33,1.33,3.47,0,4.79-1.33,1.29-3.5,1.33-4.83,0Z"/>
    </symbol>
  </defs>
</svg>