<?xml version="1.0" encoding="utf-8"?>
<!-- Generator: Adobe Illustrator 18.1.1, SVG Export Plug-In . SVG Version: 6.00 Build 0)  -->
<!DOCTYPE svg PUBLIC "-//W3C//DTD SVG 1.1//EN" "http://www.w3.org/Graphics/SVG/1.1/DTD/svg11.dtd">
<svg version="1.1" id="Calque_1" xmlns="http://www.w3.org/2000/svg" xmlns:xlink="http://www.w3.org/1999/xlink" x="0px" y="0px"
	 viewBox="0 0 250 57.38456" enable-background="new 0 0 250 57.38456" xml:space="preserve">
<path fill="#E8443A" d="M54.17605,24.07791c-0.0028-0.01681-0.00591-0.03362-0.00938-0.05035l-0.07662-0.37496
	c-0.37772-1.85225-0.76833-3.76753-1.82808-5.91046c-1.58138-3.19769-3.87155-6.11685-6.80685-8.6763
	c-4.17304-3.63865-8.86907-5.15065-12.07373-5.77823c-3.39206-0.66447-5.85275-0.51069-6.06443-0.49551
	C12.7688,3.67845,2.13017,14.34218,1.44369,28.72697c-0.32877,6.88911,2.62679,12.54874,2.841,12.94876
	c3.27147,6.36885,8.81043,11.09776,15.59798,13.31641c2.73646,0.89445,5.54682,1.33829,8.34414,1.33829
	c3.68854,0,7.35414-0.77246,10.79749-2.30056c0.57877,0.38539,1.26947,0.61042,2.01118,0.61042
	c2.03195,0,3.68504-1.68298,3.68504-3.75158c0-2.0686-1.65309-3.75158-3.68504-3.75158c-2.03191,0-3.685,1.68298-3.685,3.75158
	c0,0.29873,0.03549,0.58902,0.10061,0.86776C25.97499,56.54336,12.47801,51.70935,6.68946,40.4271
	c-0.00455-0.0088-0.00918-0.01767-0.01393-0.02638c-0.02829-0.05222-2.82359-5.29556-2.52536-11.54456
	C4.76857,15.89845,14.36609,6.29245,27.48969,5.49614c0.00665-0.00039,0.01335-0.00086,0.02-0.0014
	c0.08946-0.00662,9.03391-0.60431,16.16471,5.6134c2.66455,2.32332,4.73661,4.95943,6.15876,7.83516
	c0.9039,1.82765,1.24299,3.49039,1.60196,5.25073l0.07137,0.34905c0.0488,0.3141,0.60774,4.12709-0.37294,7.61188
	c-1.08376,3.85081-4.60809,8.47901-10.9739,8.8493c-3.8266,0.22336-6.74167-0.5405-8.66385-2.2683
	c-1.43645-1.29108-2.29422-3.12473-2.55921-5.45611c1.66412-0.17927,3.01848-0.70027,4.03544-1.55783
	c1.10672-0.93336,1.49297-2.01125,1.63834-2.41703c0.00981-0.0274,0.01802-0.0509,0.02537-0.06981
	c0.06666-0.16966,0.26947-0.68611,0.90021-6.72848l0.62692-6.75658c0.02428-0.2197,0.09884-1.18022-0.29605-2.25429
	c-0.31344-0.85258-0.96367-1.901-2.30838-2.59657c0.00043-0.59171-0.43719-1.10629-1.03961-1.18493l-1.44314-0.18838
	c-0.05249-0.00685-0.10466-0.01019-0.15621-0.01019c-0.59136,0-1.10524,0.43866-1.18384,1.0408l-0.21951,1.68161
	c-0.04103,0.31438,0.0445,0.63218,0.23778,0.88348c0.19328,0.25134,0.47847,0.41555,0.79285,0.4566l1.44316,0.18838
	c0.05158,0.00673,0.10329,0.01004,0.15474,0.01004c0.21598,0,0.42767-0.05942,0.61315-0.17036
	c0.23799,0.20589,0.4161,0.45493,0.53671,0.74934c0.2283,0.55731,0.17604,1.08925,0.17546,1.09454l0.0021-0.01689l-0.0058,0.0516
	l-0.62611,6.74864c-0.27048,2.59065-0.62035,5.53402-0.74736,6.06619c-0.0102,0.02739-0.02121,0.0579-0.0332,0.09129
	c-0.19913,0.55575-0.80516,2.24706-4.47415,2.25071c-3.66899-0.00366-4.27505-1.69496-4.47419-2.25071
	c-0.01198-0.03339-0.023-0.0639-0.03319-0.09137c-0.12701-0.53233-0.47692-3.47592-0.74744-6.06665l-0.62603-6.74809l-0.0058-0.0516
	l0.0021,0.01689c-0.00055-0.00529-0.0528-0.53723,0.1755-1.09454c0.17569-0.4289,0.47343-0.76141,0.90085-1.00449
	c0.03856,0.0421,0.07919,0.08249,0.12392,0.11903c0.21439,0.17519,0.4819,0.2697,0.75629,0.2697
	c0.03985,0,0.07981-0.00198,0.11983-0.00603l1.44808-0.14584c0.31545-0.03175,0.60535-0.18756,0.80594-0.43306
	c0.20058-0.24554,0.29543-0.56065,0.26365-0.87612l-0.16995-1.68733c-0.06207-0.61614-0.58165-1.0757-1.18795-1.0757
	c-0.04008,0-0.08049,0.00202-0.12123,0.00611l-1.44806,0.14584c-0.52408,0.0528-0.93387,0.43691-1.04492,0.92352
	c-1.83563,0.65844-2.65453,1.91377-3.01877,2.90456c-0.39461,1.07329-0.32045,2.03319-0.29613,2.25383l0.62544,6.74156
	l0.00152,0.01549c0.63074,6.04237,0.83355,6.55882,0.90013,6.72833c0.00743,0.01907,0.01564,0.04257,0.02545,0.06997
	c0.14538,0.40578,0.53163,1.48367,1.63834,2.41703c1.01224,0.85355,2.35879,1.3735,4.01222,1.55515
	c0.29332,3.1517,1.45948,5.66379,3.47339,7.47401c2.47987,2.229,6.0572,3.224,10.63256,2.95815
	c7.7887-0.4531,12.09969-6.11203,13.42478-10.82031C54.92236,28.6939,54.20707,24.26446,54.17605,24.07791z M41.03549,49.84671
	c0.53789,0,0.97547,0.46742,0.97547,1.042s-0.43758,1.04201-0.97547,1.04201c-0.53785,0-0.97543-0.46742-0.97543-1.04201
	S40.49764,49.84671,41.03549,49.84671z M27.58586,32.46116l-0.00082,0.00004l0.00041-0.46469L27.58586,32.46116z"/>
<g>
	<path fill="#3F3F3F" d="M64.51768,10.05278h3.7664l12.32639,24.88105l12.2693-24.88105h3.88053v39.94664h-4.79359l0.17122-28.70454
		L81.92297,41.83887h-2.85333l-9.9296-20.1445l0.17123,28.30505h-4.79359V10.05278z"/>
	<path fill="#3F3F3F" d="M115.53484,50.57014c-7.13335,0-11.58455-4.3941-11.58455-11.75578v-7.30453
		c0-7.36167,4.45119-11.75578,11.58455-11.75578c7.1904,0,11.5845,4.39411,11.5845,11.75578v5.02186h-18.60372v1.71205
		c0,5.4784,2.56802,8.2176,7.07626,8.2176c3.70936,0,6.67683-1.19838,8.95949-2.7392l1.94027,3.25267
		C124.09484,48.85809,120.32844,50.57014,115.53484,50.57014z M122.55402,32.87943v-0.79898
		c0-5.36421-2.45384-8.16045-7.01917-8.16045c-4.50829,0-7.01922,2.7392-7.01922,8.16045v0.79898H122.55402z"/>
	<path fill="#3F3F3F" d="M153.3127,47.20318c-2.0544,1.94022-4.96481,3.36695-8.44586,3.36695
		c-6.90503,0-10.50026-4.3941-10.50026-11.75578v-7.70392c0-7.24759,3.424-11.35639,10.15787-11.35639
		c2.7392,0,5.4213,0.45653,8.16051,1.65491V7.1995h4.56532v42.79992h-3.53809L153.3127,47.20318z M152.68495,25.5749
		c-2.51094-1.19837-5.07892-1.65491-7.58984-1.65491c-4.4512,0-6.22025,2.7392-6.22025,7.93229v6.33432
		c0,5.42136,1.88318,8.21759,6.39146,8.21759c3.424,0,5.82076-1.3696,7.41862-3.7093V25.5749z"/>
	<path fill="#3F3F3F" d="M174.427,46.57542c4.50829,0,6.67677-2.33981,6.67677-4.7936c0-2.85338-1.99731-4.05176-6.39146-4.7936
		c-5.30717-0.85592-10.27199-1.82613-10.27199-8.90239c0-4.73646,3.25282-8.33178,10.27199-8.33178
		c4.56534,0,7.58989,1.48378,10.44322,3.53818l-1.88318,3.19573c-2.45389-1.54082-4.96481-2.7392-8.50294-2.7392
		c-4.27998,0-5.76376,1.88327-5.76376,4.33706c0,3.65226,2.7963,4.16584,6.84799,4.7936
		c5.13605,0.79898,9.70139,2.0544,9.75842,8.78821c0.05704,4.7937-3.93758,8.9025-11.07092,8.9025
		c-4.79359,0-8.61703-1.71205-11.07092-3.53818l1.88316-3.25287C167.63605,45.31991,170.7177,46.57542,174.427,46.57542z"/>
	<path fill="#3F3F3F" d="M194.1716,15.07464c-1.88316,0-3.25276-1.14133-3.25276-3.13859c0-1.99736,1.3696-3.19573,3.25276-3.19573
		c1.94032,0,3.30992,1.19837,3.30992,3.19573C197.48152,13.93331,196.11192,15.07464,194.1716,15.07464z M196.56845,20.32477
		v29.67465h-4.56532V20.32477H196.56845z"/>
	<path fill="#3F3F3F" d="M206.21097,24.26245h-3.25276v-3.93767h3.36696l1.14133-5.64952h3.30981v5.64952h9.18774v3.93767h-9.18774
		v15.86437c-0.05704,4.85074,0.79898,6.67687,4.90778,6.67687c1.14134,0,3.25278-0.17113,4.33707-0.45654l0.74184,3.65226
		c-1.31255,0.34235-3.88052,0.79889-5.36426,0.79889c-6.73386,0-9.18776-2.79614-9.18776-10.10067V24.26245z"/>
	<path fill="#3F3F3F" d="M236.2843,50.57014c-7.13335,0-11.58455-4.3941-11.58455-11.75578v-7.30453
		c0-7.36167,4.4512-11.75578,11.58455-11.75578c7.19035,0,11.5845,4.39411,11.5845,11.75578v5.02186h-18.60371v1.71205
		c0,5.4784,2.56796,8.2176,7.07626,8.2176c3.7093,0,6.67676-1.19838,8.95943-2.7392l1.94032,3.25267
		C244.84425,48.85809,241.07791,50.57014,236.2843,50.57014z M243.30348,32.87943v-0.79898
		c0-5.36421-2.45384-8.16045-7.01918-8.16045c-4.50829,0-7.01921,2.7392-7.01921,8.16045v0.79898H243.30348z"/>
</g>
</svg>
