<?xml version="1.0" encoding="utf-8"?>
<!-- Generator: Adobe Illustrator 16.0.0, SVG Export Plug-In . SVG Version: 6.00 Build 0)  -->
<!DOCTYPE svg PUBLIC "-//W3C//DTD SVG 1.1//EN" "http://www.w3.org/Graphics/SVG/1.1/DTD/svg11.dtd">
<svg version="1.1" id="Calque_1" xmlns="http://www.w3.org/2000/svg" xmlns:xlink="http://www.w3.org/1999/xlink" x="0px" y="0px"
	 width="60mm" height="45mm" viewBox="0 0 200 150.291" enable-background="new 0 0 200 150.291" xml:space="preserve">
<g>
	<g enable-background="new    ">
		<path fill="#EA5262" stroke="#EA5262" stroke-width="0.25" stroke-miterlimit="10" d="M28.591,75.542
			c0-0.662,0.39-1.856,1.17-3.583c0.782-1.727,1.171-2.756,1.171-3.088c0-0.425,0.579-1.087,1.739-1.986
			c1.159-0.898,1.856-1.253,2.093-1.065c0.188,0.191-0.308,1.42-1.49,3.691c-1.704,3.312-2.626,6.612-2.768,9.899
			c-0.143,3.29,0.543,5.642,2.058,7.062c1.087,0.993,2.151,1.324,3.193,0.993c1.04-0.331,2.436-1.442,4.187-3.335
			c1.562-1.703,3.217-4.092,4.968-7.167c1.749-3.076,2.813-5.464,3.193-7.168c0.472-2.413,1.159-4.068,2.058-4.967
			c0.568-0.567,0.875-0.307,0.923,0.78c0.046,0.568,0.023,1.349-0.072,2.342c-0.189,1.704-0.792,3.761-1.809,6.174
			c-1.018,2.413-2.271,4.754-3.761,7.025c-1.49,2.271-3.135,4.258-4.932,5.961c-1.799,1.704-3.561,2.709-5.287,3.016
			c-1.728,0.309-3.348-0.271-4.861-1.738c-0.993-1.088-1.738-2.756-2.235-5.003c-0.497-2.247-0.532-3.985-0.106-5.216
			C28.401,77.222,28.591,76.348,28.591,75.542z"/>
		<path fill="#EA5262" stroke="#EA5262" stroke-width="0.25" stroke-miterlimit="10" d="M61.164,57.802
			c0-0.521,0.294-1.359,0.887-2.52c0.591-1.159,1.052-1.738,1.383-1.738s0.556,0.071,0.675,0.213
			c0.117,0.141,0.129,0.52,0.034,1.134c-0.095,0.616-0.308,1.409-0.638,2.377c-0.331,0.97-0.828,2.426-1.49,4.365
			c-0.664,1.845-1.325,3.938-1.987,6.28c-0.663,2.342-1.183,4.212-1.561,5.606c-0.379,1.396-0.663,2.189-0.852,2.378
			c-0.189,0.284-0.379,0.841-0.568,1.667c-0.189,0.829-0.308,1.562-0.355,2.201c-0.047,0.638-0.024,1.005,0.071,1.1
			c0.189,0,0.804-0.426,1.846-1.277c1.04-0.852,2.235-1.785,3.583-2.803c1.35-1.017,3.063-1.951,5.146-2.802
			c2.082-0.853,4.139-1.278,6.174-1.278c2.65,0,4.446,0.379,5.394,1.136c0.946,0.757,1.419,2.224,1.419,4.4
			c0,3.69-1.703,6.695-5.11,9.012c-1.703,1.184-3.205,1.964-4.506,2.342c-1.302,0.379-2.945,0.521-4.933,0.426
			c-1.94-0.095-3.253-0.378-3.938-0.852c-0.686-0.472-0.84-1.207-0.461-2.2c0.142-0.331,0.272-0.544,0.39-0.638
			c0.117-0.095,0.271-0.082,0.461,0.035c0.188,0.12,0.497,0.391,0.922,0.816c0.757,0.758,1.549,1.148,2.378,1.172
			c0.827,0.024,2.307-0.272,4.435-0.887c2.176-0.663,4.069-1.845,5.678-3.549c1.608-1.703,2.413-3.43,2.413-5.181
			c0-1.702-0.355-2.767-1.065-3.193c-0.709-0.425-2.248-0.52-4.613-0.284c-3.264,0.333-6.057,1.338-8.374,3.016
			c-2.318,1.681-4.353,4.176-6.103,7.487c-1.609,3.028-2.958,3.822-4.045,2.378c-1.089-1.442-0.687-5.333,1.207-11.673l2.625-8.729
			c0.615-1.891,1.218-3.606,1.81-5.145c0.59-1.537,1.017-2.613,1.277-3.229C61.033,58.748,61.164,58.227,61.164,57.802z"/>
		<path fill="#EA5262" stroke="#EA5262" stroke-width="0.25" stroke-miterlimit="10" d="M84.936,66.672
			c0.377-0.283,0.768-0.342,1.171-0.177c0.401,0.167,0.72,0.509,0.958,1.03c0.235,0.521,0.283,1.017,0.142,1.489
			c-0.284,0.994-0.639,2.98-1.064,5.962c-0.426,2.98-0.734,5.724-0.924,8.231c-0.141,1.941-0.308,3.253-0.496,3.938
			c-0.189,0.687-0.474,1.077-0.851,1.171c-0.663,0.096-1.112-0.33-1.349-1.277c-0.189-0.851-0.096-3.181,0.284-6.99
			c0.377-3.808,0.756-6.328,1.136-7.558c0.376-1.135,0.566-2.317,0.566-3.548C84.51,67.713,84.652,66.956,84.936,66.672z
			 M83.587,57.092c0.521-0.803,1.349-0.911,2.485-0.319c1.135,0.593,1.512,1.337,1.135,2.235c-0.19,0.567-0.462,0.84-0.816,0.816
			c-0.354-0.023-0.958-0.366-1.809-1.029c-0.38-0.284-0.664-0.591-0.852-0.923C83.54,57.542,83.492,57.281,83.587,57.092z"/>
		<path fill="#EA5262" stroke="#EA5262" stroke-width="0.25" stroke-miterlimit="10" d="M99.767,56.595
			c0.379-0.52,0.828-0.781,1.348-0.781c0.521,0,0.888,0.189,1.101,0.567c0.213,0.38,0.107,0.687-0.319,0.924
			c-0.473,0.332-1.17,1.549-2.093,3.654c-0.922,2.105-1.337,3.442-1.242,4.01c0.096,0.473,0.45,0.78,1.064,0.922
			c0.615,0.142,1.988,0.238,4.117,0.285c4.068,0.142,5.913,0.521,5.535,1.135c-0.096,0.237-0.475,0.473-1.136,0.709
			c-1.089,0.426-1.798,0.521-2.129,0.284c-0.331-0.188-1.822-0.046-4.471,0.426c-2.649,0.474-4.14,0.852-4.47,1.135
			c-0.285,0.238-0.651,1.692-1.1,4.364c-0.45,2.674-0.616,5.654-0.497,8.942c0.118,3.288,0.768,5.548,1.952,6.777
			c0.377,0.379,0.626,0.663,0.745,0.852c0.118,0.189,0.142,0.343,0.07,0.461c-0.07,0.118-0.248,0.249-0.532,0.39
			c-0.994,0.379-1.845,0.391-2.555,0.036s-1.231-1.053-1.561-2.094c-0.285-1.087-0.46-3.524-0.532-7.31
			c-0.07-3.784,0.012-6.858,0.247-9.225c0.095-1.419,0.072-2.282-0.07-2.59c-0.141-0.308-0.709-0.626-1.703-0.958
			c-0.993-0.331-1.632-0.685-1.917-1.064c-0.284-0.378-0.178-0.71,0.32-0.994c0.496-0.283,1.313-0.472,2.448-0.567
			c1.323-0.142,2.164-0.32,2.519-0.532c0.355-0.213,0.65-0.721,0.887-1.526c0.284-0.946,0.898-2.414,1.845-4.4
			C98.585,58.44,99.295,57.163,99.767,56.595z"/>
		<path fill="#EA5262" stroke="#EA5262" stroke-width="0.25" stroke-miterlimit="10" d="M112.328,75.542
			c0-0.662,0.391-1.856,1.171-3.583c0.781-1.727,1.171-2.756,1.171-3.088c0-0.425,0.579-1.087,1.739-1.986
			c1.158-0.898,1.855-1.253,2.093-1.065c0.189,0.191-0.308,1.42-1.489,3.691c-1.703,3.312-2.626,6.612-2.768,9.899
			c-0.142,3.29,0.543,5.642,2.058,7.062c1.088,0.993,2.152,1.324,3.193,0.993c1.04-0.331,2.437-1.442,4.188-3.335
			c1.561-1.703,3.216-4.092,4.968-7.167c1.75-3.076,2.813-5.464,3.192-7.168c0.473-2.413,1.159-4.068,2.058-4.967
			c0.569-0.567,0.875-0.307,0.924,0.78c0.046,0.568,0.022,1.349-0.07,2.342c-0.19,1.704-0.794,3.761-1.812,6.174
			s-2.27,4.754-3.761,7.025c-1.49,2.271-3.135,4.258-4.932,5.961c-1.799,1.704-3.56,2.709-5.288,3.016
			c-1.727,0.309-3.348-0.271-4.859-1.738c-0.994-1.088-1.739-2.756-2.236-5.003c-0.496-2.247-0.532-3.985-0.105-5.216
			C112.139,77.222,112.328,76.348,112.328,75.542z"/>
		<path fill="#EA5262" stroke="#EA5262" stroke-width="0.25" stroke-miterlimit="10" d="M142.346,62.627
			c0.521-0.094,1.324-0.153,2.414-0.177c1.087-0.023,2.341,0.035,3.762,0.177c1.418,0.142,2.719,0.533,3.901,1.171
			s1.939,1.479,2.271,2.52c0.427,1.278,0.308,1.87-0.354,1.774c-0.426-0.046-0.971-0.472-1.633-1.278
			c-0.663-0.756-1.277-1.266-1.845-1.525c-0.568-0.259-1.491-0.461-2.768-0.604c-3.549-0.331-6.01,0.544-7.381,2.626
			c-1.373,2.082-0.426,3.903,2.84,5.464c4.067,1.987,6.634,3.512,7.7,4.577c1.063,1.065,1.57,2.639,1.523,4.72
			c-0.046,1.94-0.567,3.525-1.56,4.754c-0.948,1.135-2.332,2.271-4.152,3.406c-1.822,1.136-3.205,1.704-4.152,1.704
			c-0.567,0-1.265-0.284-2.092-0.852c-0.83-0.567-1.491-1.182-1.988-1.845c-0.495-0.661-0.627-1.135-0.39-1.418
			c0.425-0.426,1.158-0.237,2.199,0.567c1.088,0.899,2.095,1.242,3.017,1.029c0.923-0.213,2.188-1.052,3.796-2.519
			c1.278-1.23,2.081-2.129,2.414-2.697c0.33-0.568,0.496-1.419,0.496-2.555c0-1.182-0.118-1.962-0.354-2.342
			c-0.238-0.378-0.898-0.827-1.987-1.348c-0.757-0.378-1.372-0.734-1.845-1.064c-0.475-0.331-0.771-0.568-0.888-0.71
			c-0.119-0.142-0.332-0.284-0.639-0.426c-0.309-0.142-0.746-0.284-1.313-0.426c-1.229-0.283-2.602-1.159-4.115-2.625
			c-1.515-1.465-2.271-2.696-2.271-3.69c0-0.897,0.662-2.139,1.987-3.725C140.265,63.704,141.399,62.817,142.346,62.627z"/>
	</g>
	<g enable-background="new    ">
		<path fill="#EA5262" stroke="#EA5262" stroke-width="0.25" stroke-miterlimit="10" d="M28.591,75.542
			c0-0.662,0.39-1.856,1.17-3.583c0.782-1.727,1.171-2.756,1.171-3.088c0-0.425,0.579-1.087,1.739-1.986
			c1.159-0.898,1.856-1.253,2.093-1.065c0.188,0.191-0.308,1.42-1.49,3.691c-1.704,3.312-2.626,6.612-2.768,9.899
			c-0.143,3.29,0.543,5.642,2.058,7.062c1.087,0.993,2.151,1.324,3.193,0.993c1.04-0.331,2.436-1.442,4.187-3.335
			c1.562-1.703,3.217-4.092,4.968-7.167c1.749-3.076,2.813-5.464,3.193-7.168c0.472-2.413,1.159-4.068,2.058-4.967
			c0.568-0.567,0.875-0.307,0.923,0.78c0.046,0.568,0.023,1.349-0.072,2.342c-0.189,1.704-0.792,3.761-1.809,6.174
			c-1.018,2.413-2.271,4.754-3.761,7.025c-1.49,2.271-3.135,4.258-4.932,5.961c-1.799,1.704-3.561,2.709-5.287,3.016
			c-1.728,0.309-3.348-0.271-4.861-1.738c-0.993-1.088-1.738-2.756-2.235-5.003c-0.497-2.247-0.532-3.985-0.106-5.216
			C28.401,77.222,28.591,76.348,28.591,75.542z"/>
		<path fill="#EA5262" stroke="#EA5262" stroke-width="0.25" stroke-miterlimit="10" d="M61.164,57.802
			c0-0.521,0.294-1.359,0.887-2.52c0.591-1.159,1.052-1.738,1.383-1.738s0.556,0.071,0.675,0.213
			c0.117,0.141,0.129,0.52,0.034,1.134c-0.095,0.616-0.308,1.409-0.638,2.377c-0.331,0.97-0.828,2.426-1.49,4.365
			c-0.664,1.845-1.325,3.938-1.987,6.28c-0.663,2.342-1.183,4.212-1.561,5.606c-0.379,1.396-0.663,2.189-0.852,2.378
			c-0.189,0.284-0.379,0.841-0.568,1.667c-0.189,0.829-0.308,1.562-0.355,2.201c-0.047,0.638-0.024,1.005,0.071,1.1
			c0.189,0,0.804-0.426,1.846-1.277c1.04-0.852,2.235-1.785,3.583-2.803c1.35-1.017,3.063-1.951,5.146-2.802
			c2.082-0.853,4.139-1.278,6.174-1.278c2.65,0,4.446,0.379,5.394,1.136c0.946,0.757,1.419,2.224,1.419,4.4
			c0,3.69-1.703,6.695-5.11,9.012c-1.703,1.184-3.205,1.964-4.506,2.342c-1.302,0.379-2.945,0.521-4.933,0.426
			c-1.94-0.095-3.253-0.378-3.938-0.852c-0.686-0.472-0.84-1.207-0.461-2.2c0.142-0.331,0.272-0.544,0.39-0.638
			c0.117-0.095,0.271-0.082,0.461,0.035c0.188,0.12,0.497,0.391,0.922,0.816c0.757,0.758,1.549,1.148,2.378,1.172
			c0.827,0.024,2.307-0.272,4.435-0.887c2.176-0.663,4.069-1.845,5.678-3.549c1.608-1.703,2.413-3.43,2.413-5.181
			c0-1.702-0.355-2.767-1.065-3.193c-0.709-0.425-2.248-0.52-4.613-0.284c-3.264,0.333-6.057,1.338-8.374,3.016
			c-2.318,1.681-4.353,4.176-6.103,7.487c-1.609,3.028-2.958,3.822-4.045,2.378c-1.089-1.442-0.687-5.333,1.207-11.673l2.625-8.729
			c0.615-1.891,1.218-3.606,1.81-5.145c0.59-1.537,1.017-2.613,1.277-3.229C61.033,58.748,61.164,58.227,61.164,57.802z"/>
		<path fill="#EA5262" stroke="#EA5262" stroke-width="0.25" stroke-miterlimit="10" d="M84.936,66.672
			c0.377-0.283,0.768-0.342,1.171-0.177c0.401,0.167,0.72,0.509,0.958,1.03c0.235,0.521,0.283,1.017,0.142,1.489
			c-0.284,0.994-0.639,2.98-1.064,5.962c-0.426,2.98-0.734,5.724-0.924,8.231c-0.141,1.941-0.308,3.253-0.496,3.938
			c-0.189,0.687-0.474,1.077-0.851,1.171c-0.663,0.096-1.112-0.33-1.349-1.277c-0.189-0.851-0.096-3.181,0.284-6.99
			c0.377-3.808,0.756-6.328,1.136-7.558c0.376-1.135,0.566-2.317,0.566-3.548C84.51,67.713,84.652,66.956,84.936,66.672z
			 M83.587,57.092c0.521-0.803,1.349-0.911,2.485-0.319c1.135,0.593,1.512,1.337,1.135,2.235c-0.19,0.567-0.462,0.84-0.816,0.816
			c-0.354-0.023-0.958-0.366-1.809-1.029c-0.38-0.284-0.664-0.591-0.852-0.923C83.54,57.542,83.492,57.281,83.587,57.092z"/>
		<path fill="#EA5262" stroke="#EA5262" stroke-width="0.25" stroke-miterlimit="10" d="M99.767,56.595
			c0.379-0.52,0.828-0.781,1.348-0.781c0.521,0,0.888,0.189,1.101,0.567c0.213,0.38,0.107,0.687-0.319,0.924
			c-0.473,0.332-1.17,1.549-2.093,3.654c-0.922,2.105-1.337,3.442-1.242,4.01c0.096,0.473,0.45,0.78,1.064,0.922
			c0.615,0.142,1.988,0.238,4.117,0.285c4.068,0.142,5.913,0.521,5.535,1.135c-0.096,0.237-0.475,0.473-1.136,0.709
			c-1.089,0.426-1.798,0.521-2.129,0.284c-0.331-0.188-1.822-0.046-4.471,0.426c-2.649,0.474-4.14,0.852-4.47,1.135
			c-0.285,0.238-0.651,1.692-1.1,4.364c-0.45,2.674-0.616,5.654-0.497,8.942c0.118,3.288,0.768,5.548,1.952,6.777
			c0.377,0.379,0.626,0.663,0.745,0.852c0.118,0.189,0.142,0.343,0.07,0.461c-0.07,0.118-0.248,0.249-0.532,0.39
			c-0.994,0.379-1.845,0.391-2.555,0.036s-1.231-1.053-1.561-2.094c-0.285-1.087-0.46-3.524-0.532-7.31
			c-0.07-3.784,0.012-6.858,0.247-9.225c0.095-1.419,0.072-2.282-0.07-2.59c-0.141-0.308-0.709-0.626-1.703-0.958
			c-0.993-0.331-1.632-0.685-1.917-1.064c-0.284-0.378-0.178-0.71,0.32-0.994c0.496-0.283,1.313-0.472,2.448-0.567
			c1.323-0.142,2.164-0.32,2.519-0.532c0.355-0.213,0.65-0.721,0.887-1.526c0.284-0.946,0.898-2.414,1.845-4.4
			C98.585,58.44,99.295,57.163,99.767,56.595z"/>
		<path fill="#EA5262" stroke="#EA5262" stroke-width="0.25" stroke-miterlimit="10" d="M112.328,75.542
			c0-0.662,0.391-1.856,1.171-3.583c0.781-1.727,1.171-2.756,1.171-3.088c0-0.425,0.579-1.087,1.739-1.986
			c1.158-0.898,1.855-1.253,2.093-1.065c0.189,0.191-0.308,1.42-1.489,3.691c-1.703,3.312-2.626,6.612-2.768,9.899
			c-0.142,3.29,0.543,5.642,2.058,7.062c1.088,0.993,2.152,1.324,3.193,0.993c1.04-0.331,2.437-1.442,4.188-3.335
			c1.561-1.703,3.216-4.092,4.968-7.167c1.75-3.076,2.813-5.464,3.192-7.168c0.473-2.413,1.159-4.068,2.058-4.967
			c0.569-0.567,0.875-0.307,0.924,0.78c0.046,0.568,0.022,1.349-0.07,2.342c-0.19,1.704-0.794,3.761-1.812,6.174
			s-2.27,4.754-3.761,7.025c-1.49,2.271-3.135,4.258-4.932,5.961c-1.799,1.704-3.56,2.709-5.288,3.016
			c-1.727,0.309-3.348-0.271-4.859-1.738c-0.994-1.088-1.739-2.756-2.236-5.003c-0.496-2.247-0.532-3.985-0.105-5.216
			C112.139,77.222,112.328,76.348,112.328,75.542z"/>
		<path fill="#EA5262" stroke="#EA5262" stroke-width="0.25" stroke-miterlimit="10" d="M142.346,62.627
			c0.521-0.094,1.324-0.153,2.414-0.177c1.087-0.023,2.341,0.035,3.762,0.177c1.418,0.142,2.719,0.533,3.901,1.171
			s1.939,1.479,2.271,2.52c0.427,1.278,0.308,1.87-0.354,1.774c-0.426-0.046-0.971-0.472-1.633-1.278
			c-0.663-0.756-1.277-1.266-1.845-1.525c-0.568-0.259-1.491-0.461-2.768-0.604c-3.549-0.331-6.01,0.544-7.381,2.626
			c-1.373,2.082-0.426,3.903,2.84,5.464c4.067,1.987,6.634,3.512,7.7,4.577c1.063,1.065,1.57,2.639,1.523,4.72
			c-0.046,1.94-0.567,3.525-1.56,4.754c-0.948,1.135-2.332,2.271-4.152,3.406c-1.822,1.136-3.205,1.704-4.152,1.704
			c-0.567,0-1.265-0.284-2.092-0.852c-0.83-0.567-1.491-1.182-1.988-1.845c-0.495-0.661-0.627-1.135-0.39-1.418
			c0.425-0.426,1.158-0.237,2.199,0.567c1.088,0.899,2.095,1.242,3.017,1.029c0.923-0.213,2.188-1.052,3.796-2.519
			c1.278-1.23,2.081-2.129,2.414-2.697c0.33-0.568,0.496-1.419,0.496-2.555c0-1.182-0.118-1.962-0.354-2.342
			c-0.238-0.378-0.898-0.827-1.987-1.348c-0.757-0.378-1.372-0.734-1.845-1.064c-0.475-0.331-0.771-0.568-0.888-0.71
			c-0.119-0.142-0.332-0.284-0.639-0.426c-0.309-0.142-0.746-0.284-1.313-0.426c-1.229-0.283-2.602-1.159-4.115-2.625
			c-1.515-1.465-2.271-2.696-2.271-3.69c0-0.897,0.662-2.139,1.987-3.725C140.265,63.704,141.399,62.817,142.346,62.627z"/>
	</g>
</g>
<g>
	<g>
		<g>
			<path fill="#695E53" d="M10.505,29.87l-0.019,0.52c-0.012-1.683,0.046-3.451,0.113-5.194c-0.563,3.792-1.06,8.271,0.137,11.203
				c-0.637,0.318-0.933,3.998-0.776,4.073c0.117,0.764,0.212,1.538,0.291,2.32c-0.052-0.532-0.104-1.066-0.157-1.605
				c0.053,0.54,0.105,1.073,0.157,1.605c0.494,4.946,0.278,10.319,0.032,15.878c-0.123,3.083-0.261,11.46-0.446,14.62
				c-0.021,0.459-0.042,0.916-0.063,1.376C9.832,73.9,9.832,73.9,9.889,73.134c0.17,1.927,0.335,3.674,0.445,5.365
				c0.091-0.298,0.18-0.35,0.306-1.057l-0.061,0.863c0.264,0.786,0.252,2.599,0.364,3.451c-0.139-0.183-0.167,0.488-0.187,1.081
				l0.091-0.234c-0.058,2.248,0.055,4.857,0.038,6.867c0,0.28-0.052,0.49-0.099,0.617l0.107,1.927
				c-0.186-0.148-0.163,1.598-0.279,0.679c0.219,1.441,0.085,2.904,0.312,4.279c0.027,4.913,0.168,10.14,0.479,15.218l0.069-0.124
				c0.123,1.778,0.489,3.345,0.367,5.507c0.248,1.543,0.378,3.738,0.764,4.353c0.053,1.781,0.248,2.491,0.348,4.238
				c0.191-0.45,0.231,1.697,0.38,0.837c0.268-1.159,0.04-1.222,0.256-2.206l-0.064,0.029c0.288-4.589,0.452-9.184,0.541-13.835
				c-0.162-3.104-0.029-6.47-0.079-9.697c-0.069-3.474-0.193-7.232-0.353-10.213c-0.055-0.711,0.105-1.224,0.195-1.831
				c-0.086-2.741-0.021-6.229-0.126-9.32c-0.002,0.058-0.005,0.114-0.006,0.152c-0.032-1.643,0.165-2.873,0.132-4.477
				c-0.054,0.008-0.058-0.24-0.086-0.361c0.254-0.278-0.529-9.442-0.383-10.008c-0.01-0.168-0.02-0.341-0.029-0.516
				c0.114-3.386,0.608-6.887,0.564-9.792c-0.12-0.631-0.225-1.341-0.359-1.873c0.109-0.514-0.102-0.612-0.073-1.232
				c0.509-1.572,0.296-2.493,0.116-1.682c-0.068-1.293-0.023-2.592-0.041-3.741c-0.04-0.531-0.08-1.06-0.12-1.601
				c-0.043-0.457,0.033-0.711,0.153-0.941c-0.072-1.169,0.054-0.824,0.105-2.049c0.178-0.296-0.283-3.072-0.229-3.418l0.026,0.2
				c0.031-1.416,0.375-2.357,0.391-3.742c0.13-3.847-0.001-8.049,0.06-11.612c-0.187-0.035,0.042,0.786-0.206,0.827
				c0.032-2.102,0.264-4.221,0.295-6.342c0.05-0.382,0.144-0.85,0.203-1.025c0.07-0.678-0.089-0.4-0.065-0.896l0.168-0.067
				c-0.138-0.725,0.187-1.06,0.117-1.743c-0.068-0.036-0.077-0.286-0.072-0.528c0.179-0.012-0.012-0.747,0.151-0.712l-0.014-0.007
				c0.003-0.146-0.008-0.25,0.022-0.429c-0.063-0.278-0.553-2.882-0.628-3.164l0.029-0.131c-0.005-0.39-0.138-0.556-0.17-0.329
				l0.01-0.48l0.012,0.055l0.01-0.478c0.016-0.088,0.099-0.188,0.177-0.052c-0.062-0.271-0.096-0.575-0.064-0.845
				c-0.11,0.752-0.266,1.688-0.447,2.475c-0.061-0.324,0.034-0.908,0.014-1.258c0.118-0.419,0.219-1.28,0.3-1.95
				c-0.01-0.147-0.209-0.249-0.122-0.583c0.138-0.163-0.005-0.377,0.094-0.655c0.074,0.319,0.041,0.631,0.034,0.955
				c0.162-0.056,0.11-0.787,0.156-1.042c-0.051-0.12,0.002-0.744-0.043-1.136c0.156,0.171,0.1-0.316,0.183-0.549
				c0.019-0.264-0.044-0.434-0.099-0.326c-0.17-0.085-0.102,1.052-0.28,0.684c0.082-0.097,0.054-0.615,0.046-0.894
				c-0.093-0.004-0.07,0.19-0.159,0.01c0.02-0.311-0.091-0.639,0.005-0.817c0.025,0.059,0.009,0.186,0.007,0.277
				c0.009-0.403,0.604,2.188,0.55,1.666c-0.082,0.136-0.549-2.299-0.555-2.03c-0.046,0.246-0.167-0.176-0.2,0.079l0.112,0.283
				c-0.035,0.348-0.197,0.491-0.26,0.368c0.015-0.583,0.632,1.657,0.538,1.158l-0.044,0.203c-0.06-0.211-0.112-0.776-0.015-0.994
				c-0.091-0.001-0.124-0.286-0.157-0.522l0.015-0.084c-0.046-0.244-0.024-0.585-0.146-0.426c0.015,1.431-0.93-0.941-0.983,0.445
				c0.202-0.582,0.207,0.196,0.23,0.806c-0.068,0.059-0.169,0.331-0.222,0.77c0.016,0.379,0.074,0.224,0.125,0.296
				c-0.045,0.21-0.083,0.613-0.189,0.561c0.126,0.296-0.082,0.473-0.038,0.828c0.059,0.313,0.055-0.021,0.116,0.201
				c-0.018,0.468-0.042,1.122-0.056,1.501c-0.1,0.145-0.276,0.585-0.431,0.265c0.021-0.712,0.252,0.271,0.219-0.47
				c-0.228,0.319-0.063-0.656-0.235-0.791c-0.103,0.236-0.104,0.715-0.075,1.115l0.03-0.08c0.03,0.353,0.078,1.058-0.044,1.44
				c-0.08-0.09-0.14,0.077-0.159-0.183l-0.016,0.486c0.025,0.062,0.052,0.125,0.07-0.015c0.062,0.229,0.027,0.458-0.02,0.634
				c-0.084,0.053,0.356,2.583,0.303,2.505c0.003,0.35-0.125,0.435-0.039,0.775c0.069,0.036-0.29-3.344-0.262-2.882
				c-0.093,0.299,0.423,3.965,0.263,4.183c0.006,0.259,0.024,0.572,0.11,0.511c-0.042,0.438-0.164-0.131-0.244,0.181
				c0.014,0.007,0.043-0.026,0.041,0.074l-0.109,0.3c0.133,0.68-0.04,1.678,0.136,2.39c-0.093-0.207-0.256-0.442-0.34-0.9
				l0.045-0.08c-0.026-0.065-0.056-0.442-0.142-0.432c-0.057,0.436-0.041,0.808,0.043,1.267c-0.023,0.084-0.046,0.183-0.07,0.25
				c0.011-0.002,0.021-0.009,0.034-0.007c-0.054,0.15-0.062,0.134-0.096,0.08c-0.006-0.007-0.013-0.016-0.02-0.032
				c-0.251,0.273,0.159,1.709,0.029,2.504c0.035,0.234,0.042,0.022,0.091,0.313c-0.1,0.813-0.177,1.373-0.235,2.223
				c0.108,0.271,0.152,0.292,0.265-0.035l-0.035,0.642c-0.289-0.583-0.275,1.198-0.563,0.555c-0.066,0.188-0.08,0.572-0.033,0.932
				c0.073,0.036,0.189,0.092,0.189,0.544c-0.096,0.629-0.061,0.479-0.154,1c-0.094,0.124-0.132-0.067-0.207-0.045
				c0.121,0.804-0.205,0.701-0.187,1.459c0.027,0.475,0.039,1.413,0.204,1.436C10.761,29.934,10.64,29.934,10.505,29.87z"/>
		</g>
	</g>
</g>
<g>
	<g>
		<g>
			<path fill="#695E53" d="M12.24,45.562l-0.729,0.76c2.256-2.564,4.929-4.935,7.654-7.117c-3.101,2.205-6.349,4.89-8.993,7.92
				c-2.64,3.016-4.678,6.379-5.41,9.39c-0.231,0.068-0.608,0.553-1.013,1.272c-0.41,0.715-0.928,1.625-1.249,2.612
				c-0.363,0.968-0.704,1.934-0.821,2.708c-0.155,0.762-0.235,1.283-0.204,1.328c-0.059,0.406-0.074,0.82-0.062,1.238l0,1.248
				c0.01,0.416-0.026,0.833,0.021,1.248l0.135,1.246c-0.044-0.573-0.143-1.144-0.144-1.717l0.019-1.72l-0.019,1.72
				c0,0.573,0.099,1.145,0.144,1.717c0.516,5.285,2.665,10.281,5.382,14.929c2.732,4.671,6.216,8.963,9.983,13.069
				c2.089,2.282,6.203,6.286,10.591,9.976c4.367,3.717,8.953,7.169,11.468,9.054c0.729,0.548,1.456,1.09,2.205,1.622
				c-1.215-0.922-1.215-0.922-2.43-1.845c3.22,2.084,6.186,3.884,9.055,5.618c-0.443-0.4-0.483-0.528-1.583-1.401l1.396,0.986
				c1.442,0.639,4.46,2.572,5.953,3.361c-0.38-0.076,0.729,0.657,1.719,1.281l-0.347-0.32c3.752,2.382,8.267,4.887,11.687,6.87
				c0.476,0.275,0.809,0.526,0.997,0.692c0,0,0.834,0.455,1.668,0.909c0.845,0.466,1.702,0.9,1.702,0.901
				c-0.351,0.021,2.727,1.666,1.058,0.892c2.648,1.147,5.206,2.558,7.808,3.439c4.472,1.964,9.207,3.701,14.061,5.172
				c4.857,1.466,9.849,2.59,14.797,3.477l-0.229-0.113c1.742,0.265,3.39,0.45,5.121,0.682c1.741,0.169,3.568,0.375,5.67,0.748
				c1.541,0.063,3.365,0.138,4.984,0.205c1.611,0.079,3.005-0.022,3.617-0.157c1.747,0.076,2.969,0.13,4.184,0.09
				c1.216-0.042,2.421-0.089,4.132-0.102c-0.882-0.201,3.324-0.174,1.639-0.344c-2.26-0.317-2.387-0.092-4.3-0.35l0.055,0.065
				c-8.935-0.549-17.822-1.758-26.622-3.829c-5.931-1.127-12.201-3.075-18.094-5.201c-3.19-1.104-6.439-2.442-9.557-3.781
				c-3.102-1.371-6.041-2.813-8.577-4.185c-1.207-0.63-2.042-1.317-3.022-1.98c-4.72-2.611-10.574-6.133-15.728-9.318
				c0.095,0.063,0.187,0.125,0.247,0.165c-2.735-1.699-4.633-3.196-7.25-4.926c-0.018,0.054-0.42-0.219-0.631-0.33
				c-0.151-0.261-4.044-2.749-7.878-5.449c-3.854-2.672-7.594-5.617-7.974-6.024c-0.258-0.199-0.527-0.403-0.789-0.626
				c-4.968-4.385-9.493-9.512-13.022-13.828c-0.883-0.849-1.772-1.885-2.489-2.629c-0.508-0.854-0.789-0.887-1.415-1.902
				c-0.307-0.703-0.623-1.302-0.874-1.808c-0.237-0.512-0.448-0.91-0.607-1.175c-0.319-0.529-0.432-0.528-0.124,0.188
				c-1.348-2.084-2.263-4.381-3.037-6.4c-0.332-0.943-0.642-1.891-0.94-2.857c-0.188-0.833-0.198-1.318-0.153-1.756
				c-0.055-0.267-0.101-0.49-0.141-0.681c-0.012-0.194-0.022-0.354-0.032-0.494c-0.014-0.279-0.015-0.473-0.012-0.67
				c0.002-0.196,0.005-0.399,0.009-0.688c0.003-0.292-0.032-0.674,0.04-1.234c0.053-0.134,0.084-0.551,0.1-1.114
				c0.014-0.281-0.001-0.601,0.028-0.937c0.042-0.334,0.086-0.688,0.13-1.042c0.098-1.434,0.521-2.846,0.614-3.153l-0.081,0.367
				c0.102-0.313,0.199-0.614,0.294-0.907c0.107-0.287,0.251-0.551,0.374-0.813c0.258-0.513,0.505-1.007,0.753-1.499
				c0.271-0.478,0.583-0.936,0.871-1.428c0.295-0.489,0.57-1.014,0.939-1.554c3.826-6.144,9.762-11.826,15.29-15.925
				c-0.06-0.19-1.177,0.963-1.393,0.818c3.217-2.501,6.736-4.656,10.239-6.824c0.66-0.348,1.482-0.746,1.801-0.873
				c1.155-0.633,0.619-0.479,1.459-0.953l0.198,0.079c1.143-0.837,1.865-0.886,2.989-1.593c0.028-0.093,0.445-0.339,0.858-0.566
				c0.104,0.139,1.267-0.709,1.286-0.533l0.006-0.018c0.251-0.133,0.423-0.239,0.744-0.378c0.424-0.339,4.713-3.084,5.181-3.39
				l0.242-0.088c0.681-0.337,0.915-0.599,0.502-0.433l0.848-0.401l-0.092,0.058l0.843-0.398c0.163-0.06,0.374-0.067,0.168,0.117
				c0.451-0.281,0.973-0.564,1.464-0.761c-1.362,0.509-3.064,1.146-4.547,1.7c0.535-0.345,1.608-0.751,2.215-1.071
				c0.788-0.252,2.351-0.882,3.575-1.35c0.257-0.129,0.354-0.393,0.984-0.584c0.347-0.004,0.671-0.304,1.207-0.433
				c-0.539,0.321-1.11,0.534-1.687,0.793c0.164,0.099,1.445-0.531,1.92-0.689c0.192-0.145,1.33-0.578,2.014-0.921
				c-0.246,0.272,0.606-0.147,1.056-0.246c0.481-0.181,0.762-0.361,0.547-0.333c0.088-0.226-1.928,0.697-1.336,0.255
				c0.206,0.001,1.125-0.416,1.625-0.626c-0.028-0.088-0.369,0.076-0.077-0.14c0.566-0.21,1.118-0.549,1.472-0.583
				c-0.095,0.064-0.33,0.139-0.494,0.202c0.724-0.301-3.703,2.177-2.782,1.744c-0.284,0.012,3.925-2.217,3.43-2.002
				c-0.444,0.122,0.249-0.274-0.208-0.134l-0.467,0.304c-0.64,0.219-0.959,0.173-0.762,0.025c1.053-0.425-2.744,1.819-1.879,1.363
				l-0.381,0.114c0.356-0.215,1.351-0.695,1.78-0.763c-0.031-0.084,0.469-0.329,0.882-0.528l0.157-0.046
				c0.427-0.223,1.036-0.433,0.712-0.438c-2.578,1.035,1.37-1.542-1.165-0.596c1.134-0.233-0.281,0.329-1.376,0.81
				c-0.133-0.019-0.664,0.095-1.479,0.382c-0.679,0.311-0.375,0.242-0.485,0.346c-0.397,0.123-1.139,0.401-1.086,0.264
				c-0.481,0.352-0.883,0.304-1.504,0.627c-0.537,0.307,0.06,0.032-0.312,0.269c-0.845,0.371-2.028,0.891-2.704,1.188
				c-0.299,0.031-1.16,0.241-0.655-0.168c1.278-0.579-0.376,0.456,0.93-0.196c-0.666,0.06,1.142-0.606,1.314-0.868
				c-0.468,0.097-1.324,0.496-2.024,0.86l0.156-0.041c-0.619,0.318-1.849,0.968-2.579,1.189c0.125-0.149-0.198-0.06,0.254-0.3
				l-0.869,0.405c-0.098,0.076-0.199,0.154,0.057,0.049c-0.378,0.254-0.796,0.43-1.128,0.543c-0.141-0.042-4.371,2.64-4.245,2.541
				c-0.604,0.331-0.812,0.299-1.362,0.694c-0.007,0.023,0.342-0.177,0.859-0.483c0.516-0.306,1.203-0.713,1.869-1.107
				c1.329-0.79,2.58-1.507,2.178-1.289c-0.287,0.086-1.979,1.075-3.639,2.073c-1.661,0.997-3.28,2.018-3.505,2.056
				c-0.442,0.256-0.97,0.575-0.823,0.59c-0.767,0.396,0.141-0.275-0.43-0.034c-0.005,0.019,0.065,0.012-0.105,0.109l-0.564,0.206
				c-1.095,0.785-2.866,1.66-3.964,2.555c0.296-0.292,0.605-0.674,1.333-1.222l0.158-0.045c0.096-0.091,0.715-0.506,0.655-0.566
				c-0.767,0.396-1.383,0.803-2.111,1.348c-0.154,0.068-0.329,0.144-0.457,0.2c0.009,0.007,0.026,0.008,0.03,0.021
				c-0.281,0.11-0.259,0.087-0.185,0.001c0.009-0.013,0.02-0.027,0.043-0.049c-0.59,0.083-2.771,1.949-4.127,2.75
				c-0.363,0.292-0.012,0.06-0.461,0.426c-1.392,0.814-2.313,1.439-3.717,2.376c-0.361,0.417-0.367,0.476,0.214,0.169l-1.026,0.75
				c0.741-0.938-2.051,1.24-1.218,0.231c-0.34,0.173-0.951,0.637-1.468,1.139c-0.009,0.102-0.022,0.264-0.715,0.839
				c-1.027,0.729-0.78,0.557-1.614,1.184c-0.246,0.094,0.014-0.189-0.069-0.217c-1.112,1.173-1.197,0.771-2.292,1.835
				c-0.663,0.692-2.013,2.013-1.915,2.173C12.341,45.83,12.251,45.748,12.24,45.562z"/>
		</g>
	</g>
</g>
<g>
	<path fill="#695E53" stroke="#695E53" stroke-width="0.25" stroke-miterlimit="10" d="M83.731,99.932h0.32v3.875h4.527v-3.875
		h0.332v8.094h-0.332v-3.922h-4.527v3.922h-0.32V99.932z"/>
	<path fill="#695E53" stroke="#695E53" stroke-width="0.25" stroke-miterlimit="10" d="M96.151,105.003v0.154h-5.547
		c0.048,0.798,0.318,1.454,0.813,1.967c0.494,0.514,1.096,0.771,1.807,0.771c0.474,0,0.918-0.139,1.333-0.415
		c0.416-0.276,0.732-0.647,0.954-1.114h0.355c-0.229,0.545-0.584,0.982-1.066,1.309c-0.482,0.329-1.007,0.492-1.576,0.492
		c-0.806,0-1.501-0.306-2.085-0.918c-0.584-0.612-0.877-1.337-0.877-2.175c0-0.821,0.287-1.526,0.859-2.114
		c0.573-0.588,1.266-0.883,2.08-0.883c0.79,0,1.479,0.292,2.067,0.877C95.856,103.538,96.151,104.222,96.151,105.003z
		 M90.604,104.885h5.203c-0.056-0.703-0.336-1.3-0.842-1.789c-0.504-0.491-1.093-0.735-1.765-0.735c-0.68,0-1.262,0.236-1.748,0.71
		C90.966,103.545,90.683,104.15,90.604,104.885z"/>
	<path fill="#695E53" stroke="#695E53" stroke-width="0.25" stroke-miterlimit="10" d="M103.167,102.23h0.308v5.795h-0.308v-1.528
		c-0.585,1.114-1.509,1.67-2.773,1.67c-0.893,0-1.646-0.292-2.257-0.877c-0.613-0.584-0.918-1.303-0.918-2.157
		c0-0.845,0.306-1.566,0.918-2.162c0.612-0.596,1.348-0.895,2.209-0.895c0.797,0,1.494,0.249,2.085,0.747
		c0.276,0.229,0.522,0.541,0.735,0.936V102.23z M100.346,102.361c-0.79,0-1.457,0.268-2.003,0.806
		c-0.544,0.537-0.817,1.191-0.817,1.966s0.277,1.428,0.831,1.962c0.552,0.533,1.228,0.8,2.026,0.8c0.782,0,1.442-0.265,1.979-0.794
		c0.536-0.529,0.806-1.181,0.806-1.955c0-0.767-0.275-1.422-0.823-1.968C101.794,102.634,101.129,102.361,100.346,102.361z"/>
	<path fill="#695E53" stroke="#695E53" stroke-width="0.25" stroke-miterlimit="10" d="M104.955,99.932h0.297v8.094h-0.297V99.932z"
		/>
	<path fill="#695E53" stroke="#695E53" stroke-width="0.25" stroke-miterlimit="10" d="M107.907,99.932h0.296v2.299h1.492v0.272
		h-1.492v5.522h-0.296v-5.522h-1.281v-0.272h1.281V99.932z"/>
	<path fill="#695E53" stroke="#695E53" stroke-width="0.25" stroke-miterlimit="10" d="M111.06,99.932h0.308v3.401
		c0.174-0.371,0.476-0.673,0.906-0.907c0.432-0.232,0.897-0.35,1.404-0.35c0.979,0,1.719,0.328,2.217,0.984
		c0.323,0.426,0.486,1.082,0.486,1.966v2.999h-0.309v-2.999c0-0.774-0.147-1.354-0.439-1.741c-0.457-0.617-1.109-0.924-1.955-0.924
		c-0.457,0-0.879,0.11-1.262,0.332c-0.384,0.22-0.667,0.513-0.848,0.877c-0.134,0.275-0.201,0.707-0.201,1.291v3.164h-0.308V99.932z
		"/>
	<path fill="#695E53" stroke="#695E53" stroke-width="0.25" stroke-miterlimit="10" d="M121.166,99.932h0.522l3.721,7.573
		l3.757-7.573h0.498v8.094h-0.321v-7.75l-3.84,7.75h-0.176l-3.852-7.75v7.75h-0.31V99.932z"/>
	<path fill="#695E53" stroke="#695E53" stroke-width="0.25" stroke-miterlimit="10" d="M136.917,105.003v0.154h-5.546
		c0.047,0.798,0.317,1.454,0.812,1.967c0.493,0.514,1.097,0.771,1.807,0.771c0.475,0,0.92-0.139,1.334-0.415
		c0.414-0.276,0.732-0.647,0.953-1.114h0.356c-0.23,0.545-0.585,0.982-1.066,1.309c-0.483,0.329-1.008,0.492-1.577,0.492
		c-0.807,0-1.502-0.306-2.086-0.918c-0.584-0.612-0.877-1.337-0.877-2.175c0-0.821,0.286-1.526,0.859-2.114
		c0.571-0.588,1.267-0.883,2.079-0.883c0.791,0,1.48,0.292,2.068,0.877C136.622,103.538,136.917,104.222,136.917,105.003z
		 M131.371,104.885h5.201c-0.055-0.703-0.336-1.3-0.84-1.789c-0.507-0.491-1.096-0.735-1.768-0.735c-0.679,0-1.261,0.236-1.747,0.71
		C131.731,103.545,131.449,104.15,131.371,104.885z"/>
	<path fill="#695E53" stroke="#695E53" stroke-width="0.25" stroke-miterlimit="10" d="M143.968,99.932h0.307v8.094h-0.307v-1.576
		c-0.175,0.348-0.379,0.636-0.617,0.865c-0.608,0.57-1.343,0.854-2.203,0.854c-0.885,0-1.634-0.294-2.246-0.882
		c-0.613-0.589-0.92-1.314-0.92-2.175c0-0.861,0.303-1.582,0.907-2.162s1.362-0.872,2.269-0.872c0.917,0,1.691,0.324,2.323,0.972
		c0.174,0.183,0.336,0.419,0.487,0.711V99.932z M141.111,102.361c-0.782,0-1.448,0.264-1.996,0.793
		c-0.55,0.53-0.824,1.178-0.824,1.944c0,0.767,0.274,1.424,0.824,1.973c0.548,0.55,1.214,0.824,1.996,0.824
		c0.797,0,1.473-0.271,2.026-0.811c0.552-0.542,0.83-1.199,0.83-1.974c0-0.766-0.275-1.416-0.823-1.949
		C142.595,102.627,141.917,102.361,141.111,102.361z"/>
	<path fill="#695E53" stroke="#695E53" stroke-width="0.25" stroke-miterlimit="10" d="M145.757,99.932h0.296v0.995h-0.296V99.932z
		 M145.757,102.23h0.296v5.795h-0.296V102.23z"/>
	<path fill="#695E53" stroke="#695E53" stroke-width="0.25" stroke-miterlimit="10" d="M153.482,102.23h0.309v5.795h-0.309v-1.528
		c-0.583,1.114-1.509,1.67-2.771,1.67c-0.894,0-1.646-0.292-2.258-0.877c-0.613-0.584-0.918-1.303-0.918-2.157
		c0-0.845,0.305-1.566,0.918-2.162c0.612-0.596,1.349-0.895,2.21-0.895c0.797,0,1.493,0.249,2.086,0.747
		c0.276,0.229,0.521,0.541,0.733,0.936V102.23z M150.663,102.361c-0.791,0-1.458,0.268-2.003,0.806
		c-0.545,0.537-0.818,1.191-0.818,1.966s0.277,1.428,0.83,1.962c0.554,0.533,1.228,0.8,2.026,0.8c0.782,0,1.441-0.265,1.979-0.794
		c0.537-0.529,0.805-1.181,0.805-1.955c0-0.767-0.273-1.422-0.823-1.968C152.11,102.634,151.445,102.361,150.663,102.361z"/>
	<path fill="#695E53" stroke="#695E53" stroke-width="0.25" stroke-miterlimit="10" d="M163.365,105.205h-4.229l-1.21,2.821h-0.354
		l3.473-8.094h0.414l3.473,8.094h-0.356L163.365,105.205z M161.257,100.24l-1.979,4.669h3.935L161.257,100.24z"/>
	<path fill="#695E53" stroke="#695E53" stroke-width="0.25" stroke-miterlimit="10" d="M171.625,102.23h0.32v5.155
		c0,0.806-0.217,1.47-0.652,1.991c-0.616,0.75-1.405,1.125-2.37,1.125c-0.624,0-1.196-0.161-1.718-0.485
		c-0.521-0.324-0.904-0.758-1.148-1.304h0.367c0.576,1.004,1.401,1.506,2.476,1.506c0.782,0,1.433-0.265,1.949-0.794
		c0.518-0.529,0.776-1.189,0.776-1.978v-0.972c-0.64,1.129-1.561,1.694-2.761,1.694c-0.892,0-1.646-0.292-2.258-0.877
		c-0.612-0.584-0.918-1.303-0.918-2.157c0-0.845,0.304-1.566,0.912-2.162c0.608-0.596,1.344-0.895,2.204-0.895
		c0.948,0,1.722,0.324,2.322,0.972c0.191,0.206,0.356,0.462,0.498,0.771V102.23z M168.805,102.361c-0.775,0-1.436,0.268-1.984,0.806
		c-0.55,0.537-0.825,1.185-0.825,1.942c0,0.775,0.275,1.433,0.825,1.974c0.549,0.541,1.215,0.811,1.996,0.811
		c0.783,0,1.447-0.269,1.991-0.806c0.545-0.537,0.817-1.192,0.817-1.966c0-0.76-0.274-1.408-0.823-1.95
		C170.253,102.632,169.587,102.361,168.805,102.361z"/>
	<path fill="#695E53" stroke="#695E53" stroke-width="0.25" stroke-miterlimit="10" d="M178.902,105.003v0.154h-5.546
		c0.047,0.798,0.317,1.454,0.812,1.967c0.494,0.514,1.097,0.771,1.807,0.771c0.475,0,0.919-0.139,1.333-0.415
		c0.415-0.276,0.733-0.647,0.955-1.114h0.354c-0.229,0.545-0.584,0.982-1.065,1.309c-0.482,0.329-1.008,0.492-1.577,0.492
		c-0.806,0-1.501-0.306-2.085-0.918c-0.584-0.612-0.878-1.337-0.878-2.175c0-0.821,0.287-1.526,0.859-2.114
		c0.574-0.588,1.267-0.883,2.079-0.883c0.792,0,1.48,0.292,2.068,0.877C178.607,103.538,178.902,104.222,178.902,105.003z
		 M173.356,104.885h5.202c-0.056-0.703-0.337-1.3-0.842-1.789c-0.505-0.491-1.095-0.735-1.767-0.735
		c-0.678,0-1.262,0.236-1.746,0.71C173.717,103.545,173.435,104.15,173.356,104.885z"/>
	<path fill="#695E53" stroke="#695E53" stroke-width="0.25" stroke-miterlimit="10" d="M180.159,102.23h0.295v1.102
		c0.173-0.363,0.477-0.664,0.906-0.9c0.431-0.238,0.906-0.356,1.429-0.356c0.806,0,1.485,0.277,2.037,0.83
		c0.436,0.435,0.652,1.075,0.652,1.92v3.2h-0.309v-3.2c0-0.75-0.219-1.349-0.656-1.796c-0.439-0.446-1.017-0.668-1.736-0.668
		c-0.681,0-1.249,0.218-1.707,0.651c-0.411,0.395-0.616,0.953-0.616,1.671v3.341h-0.295V102.23z"/>
	<path fill="#695E53" stroke="#695E53" stroke-width="0.25" stroke-miterlimit="10" d="M189.745,107.895
		c0.537,0,1.03-0.154,1.48-0.462c0.451-0.308,0.782-0.722,0.997-1.244h0.354c-0.188,0.585-0.546,1.061-1.072,1.428
		c-0.525,0.368-1.104,0.551-1.736,0.551c-0.845,0-1.565-0.296-2.163-0.888c-0.596-0.594-0.894-1.308-0.894-2.146
		c0-0.845,0.296-1.566,0.889-2.162c0.593-0.596,1.311-0.895,2.158-0.895c0.464,0,0.92,0.117,1.362,0.35
		c0.441,0.233,0.806,0.547,1.09,0.943c0.095,0.134,0.222,0.379,0.38,0.735h-0.356c-0.229-0.498-0.534-0.897-0.912-1.198
		c-0.459-0.363-0.979-0.544-1.563-0.544c-0.768,0-1.418,0.271-1.951,0.812c-0.531,0.542-0.8,1.203-0.8,1.985
		c0,0.758,0.269,1.404,0.806,1.938C188.351,107.628,188.994,107.895,189.745,107.895z"/>
	<path fill="#695E53" stroke="#695E53" stroke-width="0.25" stroke-miterlimit="10" d="M193.015,102.23h0.346l2.144,5.368
		l2.275-5.368h0.368l-3.508,8.129h-0.344l1.03-2.346L193.015,102.23z"/>
</g>
</svg>
