<?xml version="1.0" encoding="utf-8"?>
<!-- Generator: Adobe Illustrator 16.0.0, SVG Export Plug-In . SVG Version: 6.00 Build 0)  -->
<!DOCTYPE svg PUBLIC "-//W3C//DTD SVG 1.1//EN" "http://www.w3.org/Graphics/SVG/1.1/DTD/svg11.dtd">
<svg version="1.1" id="Calque_1" xmlns="http://www.w3.org/2000/svg" xmlns:xlink="http://www.w3.org/1999/xlink" x="0px" y="0px"
	 width="200px" height="200px" viewBox="0 0 70.871 70.871" enable-background="new 0 0 70.871 70.871" xml:space="preserve">
<g>
	<g>
		<path fill="#231F20" d="M12.359,65.475h-0.22v-3.501H8.393v3.501H8.174v-7.336h0.219v3.563h3.747v-3.563h0.22L12.359,65.475
			L12.359,65.475z"/>
		<path fill="#231F20" d="M15.345,65.58c-0.498,0-0.927-0.252-1.288-0.752c-0.361-0.502-0.542-1.127-0.542-1.873v-0.32
			c0-0.784,0.175-1.432,0.523-1.942c0.349-0.513,0.781-0.771,1.295-0.771c0.491,0,0.894,0.201,1.203,0.605
			c0.312,0.402,0.465,0.943,0.465,1.622v0.418h-3.268v0.065v0.322c0,0.658,0.154,1.215,0.461,1.672
			c0.31,0.453,0.693,0.682,1.15,0.682c0.325,0,0.597-0.057,0.816-0.167c0.218-0.11,0.405-0.276,0.563-0.499l0.117,0.211
			c-0.172,0.24-0.382,0.421-0.63,0.544C15.969,65.52,15.679,65.58,15.345,65.58z M15.333,60.194c-0.434,0-0.793,0.198-1.08,0.591
			c-0.29,0.396-0.449,0.889-0.489,1.48l0.012,0.029h3.008v-0.168c0-0.553-0.134-1.012-0.402-1.383
			C16.111,60.378,15.763,60.194,15.333,60.194z"/>
		<path fill="#231F20" d="M20.754,64.466c-0.152,0.33-0.376,0.6-0.674,0.804c-0.299,0.207-0.661,0.31-1.084,0.31
			c-0.405,0-0.726-0.139-0.955-0.412c-0.23-0.278-0.347-0.652-0.347-1.123c0-0.457,0.173-0.84,0.52-1.148
			c0.344-0.309,0.776-0.464,1.295-0.464h1.245v-0.795c0-0.454-0.115-0.808-0.348-1.062c-0.233-0.254-0.562-0.381-0.983-0.381
			c-0.395,0-0.712,0.119-0.953,0.359c-0.24,0.236-0.36,0.545-0.36,0.92l-0.181-0.01l-0.008-0.024
			c-0.018-0.423,0.115-0.78,0.394-1.077c0.281-0.294,0.649-0.439,1.108-0.439c0.469,0,0.842,0.148,1.124,0.443
			c0.284,0.295,0.425,0.723,0.425,1.278v2.731c0,0.189,0.008,0.377,0.025,0.559c0.019,0.182,0.047,0.361,0.087,0.54h-0.24
			c-0.037-0.238-0.06-0.418-0.073-0.538c-0.011-0.117-0.017-0.244-0.017-0.385V64.466z M18.996,65.313
			c0.434,0,0.798-0.118,1.099-0.356c0.3-0.236,0.519-0.58,0.659-1.022V62.71H19.52c-0.45,0-0.831,0.127-1.143,0.389
			s-0.465,0.582-0.465,0.965c0,0.366,0.1,0.666,0.295,0.9C18.404,65.196,18.668,65.313,18.996,65.313z"/>
		<path fill="#231F20" d="M22.644,65.475h-0.218v-7.86h0.218V65.475z"/>
		<path fill="#231F20" d="M24.526,58.552v1.472H25.6V60.3h-1.073v3.769c0,0.448,0.061,0.765,0.182,0.957
			c0.12,0.188,0.281,0.283,0.479,0.283c0.072,0,0.138-0.005,0.194-0.013c0.056-0.006,0.134-0.018,0.232-0.032l0.04,0.247
			c-0.066,0.025-0.137,0.045-0.209,0.055c-0.072,0.01-0.154,0.014-0.246,0.014c-0.291,0-0.516-0.117-0.668-0.355
			c-0.15-0.239-0.227-0.624-0.227-1.154V60.3h-0.806v-0.276h0.806v-1.472H24.526z"/>
		<path fill="#231F20" d="M26.846,61.171c0.134-0.396,0.331-0.705,0.593-0.92c0.259-0.221,0.577-0.33,0.954-0.33
			c0.453,0,0.799,0.182,1.033,0.539c0.236,0.36,0.354,0.927,0.354,1.699v3.314h-0.223v-3.325c0-0.718-0.105-1.22-0.315-1.515
			c-0.21-0.293-0.493-0.44-0.845-0.44c-0.469,0-0.83,0.175-1.08,0.527c-0.25,0.351-0.407,0.8-0.471,1.347v3.406h-0.219v-7.859h0.219
			V61.171z"/>
		<path fill="#10B5BD" d="M32.194,58.139l1.87,5.961h0.023l1.87-5.961h1.017v7.336H36.18v-2.901l0.082-2.982l-0.021-0.006
			l-1.904,5.891h-0.527l-1.896-5.874l-0.019,0.005l0.075,2.967v2.902h-0.794V58.14L32.194,58.139L32.194,58.139z"/>
		<path fill="#10B5BD" d="M40.96,65.475c-0.027-0.163-0.049-0.31-0.063-0.437c-0.016-0.127-0.023-0.254-0.023-0.381
			c-0.149,0.262-0.345,0.48-0.578,0.657c-0.24,0.177-0.496,0.265-0.771,0.265c-0.451,0-0.798-0.144-1.037-0.436
			c-0.234-0.291-0.354-0.691-0.354-1.201c0-0.521,0.168-0.927,0.503-1.223c0.34-0.295,0.796-0.439,1.374-0.439h0.863v-0.539
			c0-0.318-0.078-0.572-0.235-0.761c-0.155-0.185-0.375-0.28-0.661-0.28c-0.254,0-0.463,0.084-0.621,0.245
			c-0.161,0.164-0.238,0.359-0.238,0.589h-0.761l-0.006-0.029c-0.019-0.396,0.132-0.76,0.446-1.09
			c0.315-0.33,0.728-0.494,1.225-0.494c0.495,0,0.893,0.158,1.193,0.473c0.3,0.313,0.451,0.766,0.451,1.355v2.627
			c0,0.194,0.008,0.383,0.022,0.563c0.017,0.181,0.046,0.358,0.09,0.534L40.96,65.475L40.96,65.475z M39.642,64.746
			c0.289,0,0.548-0.094,0.775-0.279c0.234-0.184,0.385-0.395,0.455-0.631v-0.885H39.98c-0.318,0-0.575,0.102-0.768,0.301
			c-0.191,0.201-0.289,0.438-0.289,0.709c0,0.242,0.063,0.434,0.181,0.572C39.227,64.673,39.405,64.746,39.642,64.746z"/>
		<path fill="#10B5BD" d="M43.526,60.023l0.058,0.811c0.146-0.289,0.33-0.513,0.547-0.674c0.22-0.156,0.469-0.238,0.748-0.238
			c0.469,0,0.836,0.174,1.092,0.518c0.258,0.346,0.389,0.876,0.389,1.594v3.442h-0.796v-3.423c0-0.479-0.076-0.819-0.228-1.02
			c-0.15-0.201-0.385-0.304-0.694-0.304c-0.228,0-0.431,0.067-0.606,0.207c-0.176,0.138-0.316,0.323-0.422,0.563v3.976h-0.794
			v-5.451L43.526,60.023L43.526,60.023z"/>
		<path fill="#10B5BD" d="M50.19,65.475c-0.026-0.163-0.047-0.31-0.063-0.437c-0.016-0.127-0.022-0.254-0.025-0.381
			c-0.146,0.262-0.344,0.48-0.578,0.657c-0.236,0.177-0.495,0.265-0.77,0.265c-0.451,0-0.799-0.144-1.037-0.436
			c-0.236-0.291-0.356-0.691-0.356-1.201c0-0.521,0.169-0.927,0.507-1.223c0.338-0.295,0.795-0.439,1.37-0.439h0.864v-0.539
			c0-0.318-0.077-0.572-0.232-0.761c-0.156-0.185-0.377-0.28-0.662-0.28c-0.256,0-0.463,0.084-0.623,0.245
			c-0.16,0.164-0.238,0.359-0.238,0.589h-0.76l-0.006-0.029c-0.016-0.396,0.131-0.76,0.447-1.09c0.314-0.33,0.727-0.494,1.223-0.494
			c0.498,0,0.895,0.158,1.194,0.473c0.3,0.313,0.451,0.766,0.451,1.355v2.627c0,0.194,0.008,0.383,0.024,0.563
			c0.016,0.181,0.045,0.358,0.09,0.534L50.19,65.475L50.19,65.475z M48.875,64.746c0.285,0,0.545-0.094,0.775-0.279
			c0.23-0.184,0.383-0.395,0.451-0.631v-0.885H49.21c-0.32,0-0.576,0.102-0.769,0.301c-0.192,0.201-0.289,0.438-0.289,0.709
			c0,0.242,0.062,0.434,0.185,0.572C48.457,64.673,48.636,64.746,48.875,64.746z"/>
		<path fill="#10B5BD" d="M51.876,62.849c0-0.875,0.152-1.584,0.457-2.12c0.308-0.537,0.729-0.808,1.271-0.808
			c0.276,0,0.521,0.072,0.729,0.211c0.211,0.139,0.386,0.34,0.523,0.603l0.096-0.711h0.637v5.481c0,0.697-0.166,1.234-0.489,1.607
			c-0.323,0.375-0.793,0.563-1.405,0.563c-0.212,0-0.438-0.036-0.68-0.106c-0.244-0.073-0.458-0.171-0.645-0.296l0.201-0.771
			c0.145,0.104,0.315,0.185,0.518,0.246c0.203,0.063,0.399,0.094,0.595,0.094c0.39,0,0.67-0.111,0.847-0.332
			c0.176-0.219,0.262-0.553,0.262-1.004V64.89c-0.142,0.229-0.312,0.4-0.51,0.518c-0.199,0.115-0.429,0.172-0.685,0.172
			c-0.535,0-0.957-0.24-1.265-0.726c-0.305-0.483-0.457-1.114-0.457-1.897V62.849z M52.669,62.955c0,0.547,0.094,0.988,0.279,1.321
			c0.184,0.332,0.467,0.496,0.846,0.496c0.238,0,0.439-0.065,0.601-0.202c0.161-0.138,0.293-0.328,0.397-0.576v-2.511
			c-0.103-0.231-0.235-0.416-0.397-0.551c-0.163-0.136-0.36-0.204-0.593-0.204c-0.379,0-0.662,0.197-0.85,0.596
			c-0.189,0.396-0.283,0.903-0.283,1.524V62.955z"/>
		<path fill="#10B5BD" d="M58.55,65.58c-0.606,0-1.092-0.252-1.447-0.758c-0.359-0.506-0.54-1.16-0.54-1.968v-0.222
			c0-0.776,0.185-1.424,0.554-1.938c0.369-0.515,0.809-0.773,1.313-0.773c0.59,0,1.032,0.223,1.335,0.664
			c0.3,0.445,0.449,1.037,0.449,1.775v0.618h-2.828l-0.012,0.024c0.008,0.523,0.111,0.953,0.317,1.289
			c0.205,0.336,0.49,0.506,0.858,0.506c0.269,0,0.504-0.049,0.707-0.146c0.203-0.093,0.379-0.225,0.527-0.393l0.31,0.646
			c-0.156,0.19-0.361,0.354-0.617,0.479C59.22,65.517,58.912,65.58,58.55,65.58z M58.429,60.701c-0.266,0-0.492,0.143-0.682,0.422
			c-0.188,0.278-0.305,0.631-0.348,1.051l0.008,0.027h2.012v-0.133c0-0.388-0.084-0.712-0.25-0.975
			C59.005,60.833,58.757,60.701,58.429,60.701z"/>
		<path fill="#10B5BD" d="M63.169,60.899l-0.407-0.03c-0.21,0-0.388,0.062-0.528,0.188c-0.146,0.123-0.256,0.3-0.335,0.523v3.896
			h-0.793v-5.451h0.708l0.078,0.797c0.123-0.282,0.273-0.503,0.458-0.661c0.181-0.156,0.389-0.236,0.626-0.236
			c0.061,0,0.115,0.006,0.168,0.016c0.055,0.016,0.1,0.025,0.133,0.04L63.169,60.899z"/>
	</g>
	<ellipse opacity="0.08" fill="#231F20" cx="35.32" cy="52.939" rx="34.119" ry="1.266"/>
	<g>
		<path fill="#0AA0A0" d="M65.938,51.16c0,0.778-0.638,1.416-1.417,1.416H6.119c-0.78,0-1.417-0.638-1.417-1.416V10.986
			c0-0.78,0.638-1.417,1.417-1.417H64.52c0.778,0,1.417,0.638,1.417,1.417L65.938,51.16L65.938,51.16z"/>
	</g>
	<rect x="26.515" y="1.828" fill="#10B5BD" width="17.492" height="3.115"/>
	<rect x="26.515" y="1.828" fill="#10B5BD" width="3.113" height="10.556"/>
	<rect x="40.894" y="1.828" fill="#10B5BD" width="3.113" height="10.556"/>
	<polygon fill="#07928F" points="4.702,34.652 32.921,34.93 32.921,39.182 4.702,51.16 	"/>
	<polygon fill="#07928F" points="11.732,9.587 11.732,36.38 4.702,36.38 4.702,11.54 	"/>
	<path fill="#088D8D" d="M4.702,11.54l0.001-0.791c0,0,0.132-1.181,1.344-1.162l0.549,1.482l-0.792,0.843L4.702,11.54z"/>
	<g>
		<path fill="#007872" d="M62.101,35.125c-0.115,0.771-0.848,1.401-1.626,1.401L9.559,36.523c-0.779,0-1.497-0.633-1.596-1.406
			l-2.949-23.16c-0.099-0.773,0.458-1.406,1.238-1.406h58.095c0.779,0,1.322,0.631,1.208,1.401L62.101,35.125z"/>
	</g>
	<g>
		<path fill="#10B5BD" d="M62.253,34.56c-0.114,0.771-0.846,1.402-1.625,1.402L9.442,35.958c-0.779,0-1.497-0.632-1.594-1.406
			l-2.97-23.578c-0.098-0.773,0.46-1.406,1.24-1.406h58.401c0.779,0,1.324,0.631,1.21,1.402L62.253,34.56z"/>
	</g>
	<rect x="30.454" y="34.772" fill="#FFFFFF" width="9.646" height="2.332"/>
	<rect x="32.921" y="37.246" fill="#FFFFFF" width="4.711" height="1.937"/>
	<rect x="32.921" y="37.104" fill="#D8D8D7" width="4.711" height="1.071"/>
	<rect x="28.729" y="19.702" fill="#FFFFFF" width="13.183" height="4.939"/>
	<rect x="32.85" y="15.579" fill="#FFFFFF" width="4.938" height="13.184"/>
	<rect x="8.174" y="68.66" fill="#10B5BD" width="55.101" height="0.211"/>
	<rect x="8.174" y="55.601" fill="#10B5BD" width="55.098" height="0.211"/>
	<path fill="#07928F" d="M32.921,39.182L5.598,52.474c0,0-0.827-1.055-0.896-1.314l10.03-5.031l10.674-5.151l4.478-1.795H32.921z"/>
</g>
<path fill="#07928F" d="M5.598,52.474c0,0-0.896-0.34-0.896-1.314C4.702,51.16,6.042,51.029,5.598,52.474z"/>
</svg>
