<?xml version="1.0" encoding="utf-8"?>
<!-- Generator: Adobe Illustrator 21.0.2, SVG Export Plug-In . SVG Version: 6.00 Build 0)  -->
<svg version="1.1" id="Calque_1" xmlns="http://www.w3.org/2000/svg" xmlns:xlink="http://www.w3.org/1999/xlink" x="0px" y="0px"
	 viewBox="0 0 367.3 185" style="enable-background:new 0 0 367.3 185;" xml:space="preserve">
<style type="text/css">
	.st0{fill:#E84847;}
	.st1{fill:#1F2A4D;}
</style>
<g id="traits_construction">
</g>
<g id="espaces">
</g>
<path class="st0" d="M209.8,7.6l-12.9,23.7c-2-5.6-5.1-10.2-9.3-13.8h0c-7.8-6.6-20-9.9-36.5-9.9h-39.5v109.1h21.7h7.4h0V90.2h0V88
	h10.6c2.9,0,5.7-0.1,8.4-0.4l11.4,20.6h19.3l19.1-33.6l-0.2,0.6l8.2-14.6v56.2h32.6V7.6H209.8z M140.8,61.9V33.5h10
	c6.9,0,11.9,1.1,15,3.2c2.7,1.9,4.1,5.2,4.1,10.2c0,5.1-1.1,9-3.4,11.5c-2.1,2.4-6.7,3.6-13.3,3.6H140.8z M140.8,81.8V68.1h12.4
	c8.7,0,14.5-1.9,17.9-5.7c3.3-3.7,4.9-8.9,4.9-15.6c0-7-2.3-12.1-6.7-15.2c-4.1-2.9-10.2-4.3-18.5-4.3h-16.2v40.8h0v13.8h0v28.7
	h-1.3h-15.5V13.7h33.3c15,0,25.9,2.9,32.6,8.5c6.5,5.5,9.8,14.2,9.8,26c0,11.8-3.3,20.2-10,25.5c-6.8,5.4-17.6,8.2-32.1,8.2H140.8z
	 M186.9,102h-12.2l-8.6-15.2c8.8-1.4,15.9-4.2,21.1-8.4c8.1-6.5,12.3-16.7,12.3-30.3c0-2.8-0.2-5.4-0.5-7.9l14.4-26.6H237
	l-13.7,24.4L186.9,102z M244.1,110.6h-20.3V49.7l20.3-35.9V110.6z"/>
<g>
	<path class="st1" d="M36.8,159.7c0,6.6-4.1,10.4-11.3,10.4h-6.3v8.4h-5.5v-28.7h11.8C32.6,149.9,36.8,153.4,36.8,159.7z
		 M31.6,159.9c0-3.5-2.3-5.2-6.4-5.2h-6v10.6h6C29.2,165.3,31.6,163.5,31.6,159.9z"/>
	<path class="st1" d="M62.3,178.5l-5-8.5c-0.3,0-0.7,0-1,0h-6.5v8.4h-5.5v-28.7h12c7.4,0,11.6,3.6,11.6,9.9c0,4.5-2,7.7-5.7,9.3
		l6.3,9.5H62.3z M49.9,165.3h6.5c4.1,0,6.4-1.8,6.4-5.4c0-3.5-2.3-5.2-6.4-5.2h-6.5V165.3z"/>
	<path class="st1" d="M105.3,164.2c0,8.2-6.6,14.6-15.3,14.6c-8.6,0-15.3-6.3-15.3-14.6c0-8.3,6.6-14.5,15.3-14.5
		C98.7,149.7,105.3,156,105.3,164.2z M80.4,164.2c0,5.4,4.5,9.7,9.7,9.7c5.2,0,9.6-4.3,9.6-9.7c0-5.4-4.3-9.6-9.6-9.6
		C84.8,154.6,80.4,158.8,80.4,164.2z"/>
	<path class="st1" d="M119.6,149.9l9,18.4l9-18.4h6.3v28.7h-5l0-20.5l-8.5,17.5h-3.6l-8.5-17.5v20.5h-5.1v-28.7H119.6z"/>
	<path class="st1" d="M182.3,164.2c0,8.2-6.6,14.6-15.3,14.6c-8.6,0-15.3-6.3-15.3-14.6c0-8.3,6.6-14.5,15.3-14.5
		C175.6,149.7,182.3,156,182.3,164.2z M157.3,164.2c0,5.4,4.5,9.7,9.7,9.7c5.2,0,9.6-4.3,9.6-9.7c0-5.4-4.3-9.6-9.6-9.6
		C161.8,154.6,157.3,158.8,157.3,164.2z"/>
	<path class="st1" d="M196.5,149.9l9,18.4l9-18.4h6.3v28.7h-5l0-20.5l-8.5,17.5h-3.6l-8.5-17.5v20.5h-5.1v-28.7H196.5z"/>
	<path class="st1" d="M249.6,172.5h-14l-2.5,6.1h-5.7l12.6-28.7h5.7l12.4,28.7h-5.9L249.6,172.5z M247.6,167.8l-5-12l-5.1,12H247.6z
		"/>
	<path class="st1" d="M283.6,178.5l-8.9-12.3l-4.6,5.1v7.2h-5.5v-28.7h5.5v14l13-14h6.4L278.5,162l11.7,16.5H283.6z"/>
	<path class="st1" d="M318.3,149.9v4.8h-15.5v7.1h13.9v4.8h-13.9v7.2h16v4.8h-21.5v-28.7H318.3z"/>
	<path class="st1" d="M345.4,178.5l-5-8.5c-0.3,0-0.7,0-1,0h-6.5v8.4h-5.5v-28.7h12c7.4,0,11.6,3.6,11.6,9.9c0,4.5-2,7.7-5.7,9.3
		l6.3,9.5H345.4z M332.9,165.3h6.5c4.1,0,6.4-1.8,6.4-5.4c0-3.5-2.3-5.2-6.4-5.2h-6.5V165.3z"/>
</g>
</svg>
