<?xml version="1.0" encoding="utf-8"?>
<!-- Generator: Adobe Illustrator 18.1.1, SVG Export Plug-In . SVG Version: 6.00 Build 0)  -->
<!DOCTYPE svg PUBLIC "-//W3C//DTD SVG 1.1//EN" "http://www.w3.org/Graphics/SVG/1.1/DTD/svg11.dtd">
<svg version="1.1" id="Calque_1" xmlns="http://www.w3.org/2000/svg" xmlns:xlink="http://www.w3.org/1999/xlink" x="0px" y="0px"
	 viewBox="0 0 679.1 190" enable-background="new 0 0 679.1 190" xml:space="preserve" width="250" height="77px">
<g>
	<polygon fill="#494C4D" points="123.4,93.3 95.9,93.3 95.9,65.8 89.4,65.8 89.4,93.3 62,93.3 62,99.8 89.4,99.8 89.4,127.2 
		95.9,127.2 95.9,99.8 123.4,99.8 	"/>
</g>
<g>
	<path fill="#494C4D" d="M184.2,57.6c0-14.5-9.3-19.7-25-19.7h-19.2v70.5h4.9V78.1h14.3C174.8,78.1,184.2,71.4,184.2,57.6z
		 M157.9,73.9h-13V42.1h13c14.3,0,21.3,3.6,21.3,15.5C179.2,69.1,172.3,73.9,157.9,73.9z"/>
	<path fill="#494C4D" d="M231.9,76.1v32.3h4.7V75.4c0-13.3-4.9-19.7-15.5-19.7c-7.1,0-12.4,4-17.8,9.3V53.7V31.5h-4.7v76.9h4.7V69.7
		c6.3-6.4,10.7-9.6,16.8-9.6C228.5,60,231.9,65.2,231.9,76.1z"/>
	<path fill="#494C4D" d="M252.2,95.5c0,9.7,6.8,14.1,15,14.1c6.7,0,12.9-3.7,18.2-7.9h0.2l0.5,6.6h4V75.6c0-11-4.1-19.8-16.3-19.8
		c-8.3,0-15.4,4.1-19,6.6l2.1,3.5c3.4-2.6,9.4-6,16.4-6c10.1,0,12.3,8.4,12.1,16.3C262.6,78.8,252.2,84.2,252.2,95.5z M285.4,97.3
		c-6.3,5.5-11.5,8.3-17.4,8.3s-10.8-2.9-10.8-10.3c0-8.1,7.2-13,28.2-15.5V97.3z"/>
	<path fill="#494C4D" d="M313.2,73.4c4-9.6,9.4-13.2,14-13.2c2,0,3,0.2,4.7,0.9l1.1-4.3c-1.7-0.9-3.2-1.1-5.1-1.1
		c-6.1,0-11.1,4.5-14.5,10.8h-0.3l-0.4-9.5h-4.1v51.3h4.7V73.4z"/>
	<path fill="#494C4D" d="M395,55.8c-5.9,0-11.5,4.1-17.4,10.5c-1.8-6.3-6-10.5-14.2-10.5c-5.7,0-11.5,4-16.1,9.2h-0.3l-0.4-7.9h-4.1
		v51.3h4.7V69.7c5.7-6.4,10.8-9.6,15.4-9.6c7.9,0,11.5,5.1,11.5,16v32.3h4.7V69.7c5.7-6.4,10.6-9.6,15.4-9.6c7.8,0,11.4,5.1,11.4,16
		v32.3h4.8V75.4C410.4,62.2,405.2,55.8,395,55.8z"/>
	<rect x="429.2" y="57.1" fill="#494C4D" width="4.7" height="51.3"/>
	<path fill="#494C4D" d="M431.6,44.6c2.4,0,4.3-1.7,4.3-4.2c0-2.7-1.9-4.3-4.3-4.3c-2.4,0-4.3,1.6-4.3,4.3
		C427.4,42.9,429.3,44.6,431.6,44.6z"/>
	<path fill="#494C4D" d="M476.1,55.8c-7.1,0-12.4,4-17.6,9.2h-0.3l-0.4-7.9h-4.1v51.3h4.7V69.7c6.3-6.4,10.7-9.6,16.8-9.6
		c8.3,0,11.8,5.1,11.8,16v32.3h4.7V75.4C491.6,62.2,486.7,55.8,476.1,55.8z"/>
	<path fill="#494C4D" d="M516,45.9c0-7.4,2.6-11.7,8-11.7c1.9,0,4.1,0.4,6.2,1.5l1.3-3.8c-2.4-1.1-5.1-1.7-7.5-1.7
		c-8.1,0-12.7,5.2-12.7,15.4v11.4l-7.1,0.4v3.6h7.1v47.3h4.7V61.1h11.9v-4.1H516V45.9z"/>
	<path fill="#494C4D" d="M556.3,109.7c12.4,0,23.1-9.8,23.1-26.8c0-17.2-10.7-27.1-23.1-27.1c-12.3,0-23,9.8-23,27.1
		C533.4,99.8,544,109.7,556.3,109.7z M556.3,59.9c10.4,0,18.2,9.3,18.2,22.9c0,13.5-7.8,22.7-18.2,22.7c-10.4,0-18.1-9.2-18.1-22.7
		C538.3,69.2,546,59.9,556.3,59.9z"/>
	<path fill="#494C4D" d="M595.7,99.9c-2.4,0-4.6,1.8-4.6,4.9c0,3,2.2,4.8,4.6,4.8c2.4,0,4.5-1.8,4.5-4.8
		C600.2,101.8,598.1,99.9,595.7,99.9z"/>
	<path fill="#494C4D" d="M630.7,34.3c1.9,0,4.1,0.4,6.2,1.5l1.3-3.8c-2.4-1.1-5.1-1.7-7.5-1.7c-8.1,0-12.7,5.2-12.7,15.4v11.4
		l-7.1,0.4v3.6h7.1v47.3h4.7V61.1h11.9v-4.1h-11.9V45.9C622.6,38.5,625.2,34.3,630.7,34.3z"/>
	<path fill="#494C4D" d="M664,60.3c2,0,3,0.2,4.7,0.9l1.1-4.3c-1.7-0.9-3.2-1.1-5.1-1.1c-6.1,0-11.1,4.5-14.5,10.8h-0.3l-0.4-9.5
		h-4.1v51.3h4.7v-35C654,63.8,659.4,60.3,664,60.3z"/>
	<path fill="#494C4D" d="M151.7,145c-0.9,2.9-1.6,5.1-2.5,8H149c-1-2.9-1.6-5.1-2.5-8l-4.4-14h-1.8l7.9,23.9h1.8l7.8-23.9h-1.7
		L151.7,145z"/>
	<path fill="#494C4D" d="M167.1,137.1c-4.2,0-7.8,3.3-7.8,9.2c0,5.8,3.6,9.1,7.8,9.1c4.2,0,7.8-3.3,7.8-9.1
		C174.9,140.5,171.3,137.1,167.1,137.1z M167.1,154c-3.5,0-6.1-3.1-6.1-7.7c0-4.6,2.6-7.8,6.1-7.8c3.5,0,6.2,3.2,6.2,7.8
		C173.2,150.9,170.6,154,167.1,154z"/>
	<path fill="#494C4D" d="M185.1,154c-2.4,0-2.9-1.5-2.9-3.7v-11.4h5.1v-1.4h-5.1v-5h-1.4l-0.2,5l-2.8,0.1v1.2h2.7v11.2
		c0,3.1,1,5.3,4.4,5.3c0.7,0,1.8-0.3,2.8-0.7l-0.4-1.3C186.7,153.8,185.8,154,185.1,154z"/>
	<path fill="#494C4D" d="M193.1,140.8H193l-0.1-3.2h-1.4V155h1.6v-11.9c1.3-3.3,3.2-4.5,4.8-4.5c0.7,0,1,0.1,1.6,0.3l0.4-1.5
		c-0.6-0.3-1.1-0.4-1.7-0.4C196,137.1,194.3,138.6,193.1,140.8z"/>
	<path fill="#494C4D" d="M208.8,137.1c-3.9,0-7.6,3.5-7.6,9.2c0,5.7,3.6,9.1,8.1,9.1c2.5,0,4.1-0.9,5.5-1.7l-0.7-1.2
		c-1.3,0.9-2.8,1.6-4.7,1.6c-3.9,0-6.5-3.2-6.6-7.6h12.6c0.1-0.4,0.1-0.9,0.1-1.3C215.4,140.1,212.9,137.1,208.8,137.1z
		 M202.8,145.3c0.4-4.2,3-6.8,6-6.8c3.1,0,5.1,2.3,5.1,6.8H202.8z"/>
	<path fill="#494C4D" d="M235,137.1c-2.1,0-4.2,1.3-5.9,2.6h-0.1l-0.1-2.2h-1.4v25.3h1.6v-6.4v-3.2c1.8,1.3,3.6,2.1,5.2,2.1
		c4.1,0,7.7-3.5,7.7-9.4C241.9,140.6,239.6,137.1,235,137.1z M234.2,154c-1.3,0-3.2-0.6-5.2-2.3v-10.4c2.1-1.9,4-2.9,5.7-2.9
		c4,0,5.5,3.2,5.5,7.5C240.2,150.7,237.7,154,234.2,154z"/>
	<path fill="#494C4D" d="M254.8,137.1c-2.4,0-4.2,1.3-6,3.2v-3.8v-7.6h-1.6V155h1.6v-13.2c2.1-2.2,3.6-3.3,5.7-3.3
		c2.8,0,4,1.7,4,5.4v11h1.6v-11.2C260,139.3,258.4,137.1,254.8,137.1z"/>
	<path fill="#494C4D" d="M272.7,137.1c-2.8,0-5.2,1.4-6.5,2.3l0.7,1.2c1.2-0.9,3.2-2,5.6-2c3.4,0,4.2,2.9,4.1,5.5
		c-7.7,0.9-11.3,2.7-11.3,6.6c0,3.3,2.3,4.8,5.1,4.8c2.3,0,4.4-1.3,6.2-2.7h0.1l0.2,2.3h1.3v-11.2
		C278.2,140.1,276.8,137.1,272.7,137.1z M276.6,151.2c-2.1,1.9-3.9,2.8-5.9,2.8c-2,0-3.7-1-3.7-3.5c0-2.8,2.4-4.4,9.6-5.3V151.2z"/>
	<path fill="#494C4D" d="M286.1,140.8H286l-0.1-3.2h-1.4V155h1.6v-11.9c1.3-3.3,3.2-4.5,4.8-4.5c0.7,0,1,0.1,1.6,0.3l0.4-1.5
		c-0.6-0.3-1.1-0.4-1.7-0.4C289,137.1,287.3,138.6,286.1,140.8z"/>
	<path fill="#494C4D" d="M313.8,137.1c-2,0-3.9,1.4-5.9,3.6c-0.6-2.1-2-3.6-4.8-3.6c-1.9,0-3.9,1.3-5.5,3.1h-0.1l-0.1-2.7H296V155
		h1.6v-13.2c1.9-2.2,3.7-3.3,5.2-3.3c2.7,0,3.9,1.7,3.9,5.4v11h1.6v-13.2c1.9-2.2,3.6-3.3,5.2-3.3c2.7,0,3.9,1.7,3.9,5.4v11h1.6
		v-11.2C319.1,139.3,317.3,137.1,313.8,137.1z"/>
	<path fill="#494C4D" d="M331.8,137.1c-2.8,0-5.2,1.4-6.5,2.3l0.7,1.2c1.2-0.9,3.2-2,5.6-2c3.4,0,4.2,2.9,4.1,5.5
		c-7.7,0.9-11.3,2.7-11.3,6.6c0,3.3,2.3,4.8,5.1,4.8c2.3,0,4.4-1.3,6.2-2.7h0.1l0.2,2.3h1.3v-11.2
		C337.3,140.1,336,137.1,331.8,137.1z M335.7,151.2c-2.1,1.9-3.9,2.8-5.9,2.8c-2,0-3.7-1-3.7-3.5c0-2.8,2.4-4.4,9.6-5.3V151.2z"/>
	<path fill="#494C4D" d="M350.1,154c-3.8,0-6.3-3.1-6.3-7.7c0-4.6,2.8-7.8,6.3-7.8c1.7,0,3,0.8,4.1,1.9l0.9-1.1
		c-1.2-1.1-2.7-2.1-5.1-2.1c-4.2,0-8,3.3-8,9.2c0,5.8,3.4,9.1,7.9,9.1c2.2,0,4.1-1,5.6-2.3l-0.8-1.1C353.6,153.1,352,154,350.1,154z
		"/>
	<rect x="359.9" y="137.6" fill="#494C4D" width="1.6" height="17.4"/>
	<path fill="#494C4D" d="M360.7,130.5c-0.8,0-1.5,0.5-1.5,1.5c0,0.8,0.7,1.4,1.5,1.4s1.5-0.6,1.5-1.4
		C362.2,131,361.5,130.5,360.7,130.5z"/>
	<path fill="#494C4D" d="M374.4,137.1c-3.9,0-7.6,3.5-7.6,9.2c0,5.7,3.6,9.1,8.1,9.1c2.5,0,4.1-0.9,5.5-1.7l-0.7-1.2
		c-1.3,0.9-2.8,1.6-4.7,1.6c-3.9,0-6.5-3.2-6.6-7.6H381c0.1-0.4,0.1-0.9,0.1-1.3C381,140.1,378.5,137.1,374.4,137.1z M368.4,145.3
		c0.4-4.2,3-6.8,6-6.8c3.1,0,5.1,2.3,5.1,6.8H368.4z"/>
	<path fill="#494C4D" d="M399.1,137.1c-3.9,0-7.6,3.5-7.6,9.2c0,5.7,3.6,9.1,8.1,9.1c2.5,0,4.1-0.9,5.5-1.7l-0.7-1.2
		c-1.3,0.9-2.8,1.6-4.7,1.6c-3.9,0-6.5-3.2-6.6-7.6h12.6c0.1-0.4,0.1-0.9,0.1-1.3C405.8,140.1,403.3,137.1,399.1,137.1z
		 M393.2,145.3c0.4-4.2,3-6.8,6-6.8c3.1,0,5.1,2.3,5.1,6.8H393.2z"/>
	<path fill="#494C4D" d="M418.2,137.1c-2.4,0-4.2,1.3-6,3.1h-0.1l-0.1-2.7h-1.4V155h1.6v-13.2c2.1-2.2,3.6-3.3,5.7-3.3
		c2.8,0,4,1.7,4,5.4v11h1.6v-11.2C423.4,139.3,421.8,137.1,418.2,137.1z"/>
	<path fill="#494C4D" d="M436.4,154c-3.8,0-6.3-3.1-6.3-7.7c0-4.6,2.8-7.8,6.3-7.8c1.7,0,3,0.8,4.1,1.9l0.9-1.1
		c-1.2-1.1-2.7-2.1-5.1-2.1c-4.2,0-8,3.3-8,9.2c0,5.8,3.4,9.1,7.9,9.1c2.2,0,4.1-1,5.6-2.3L441,152C439.8,153.1,438.2,154,436.4,154
		z"/>
	<path fill="#494C4D" d="M451.9,137.1c-4.2,0-7.8,3.3-7.8,9.2c0,5.8,3.6,9.1,7.8,9.1c4.2,0,7.8-3.3,7.8-9.1
		C459.8,140.5,456.1,137.1,451.9,137.1z M451.9,154c-3.5,0-6.1-3.1-6.1-7.7c0-4.6,2.6-7.8,6.1-7.8c3.5,0,6.2,3.2,6.2,7.8
		C458.1,150.9,455.4,154,451.9,154z"/>
	<path fill="#494C4D" d="M466.6,140.8h-0.1l-0.1-3.2H465V155h1.6v-11.9c1.3-3.3,3.2-4.5,4.8-4.5c0.7,0,1,0.1,1.6,0.3l0.4-1.5
		c-0.6-0.3-1.1-0.4-1.7-0.4C469.5,137.1,467.8,138.6,466.6,140.8z"/>
	<path fill="#494C4D" d="M482.3,137.1c-3.9,0-7.6,3.5-7.6,9.2c0,5.7,3.6,9.1,8.1,9.1c2.5,0,4.1-0.9,5.5-1.7l-0.7-1.2
		c-1.3,0.9-2.8,1.6-4.7,1.6c-3.9,0-6.5-3.2-6.6-7.6h12.6c0.1-0.4,0.1-0.9,0.1-1.3C489,140.1,486.4,137.1,482.3,137.1z M476.3,145.3
		c0.4-4.2,3-6.8,6-6.8c3.1,0,5.1,2.3,5.1,6.8H476.3z"/>
	<path fill="#494C4D" d="M508.5,137.1c-2.1,0-4.2,1.3-5.9,2.6h-0.1l-0.1-2.2h-1.4v25.3h1.6v-6.4v-3.2c1.8,1.3,3.6,2.1,5.2,2.1
		c4.1,0,7.7-3.5,7.7-9.4C515.4,140.6,513.1,137.1,508.5,137.1z M507.7,154c-1.3,0-3.2-0.6-5.2-2.3v-10.4c2.1-1.9,4-2.9,5.7-2.9
		c4,0,5.5,3.2,5.5,7.5C513.7,150.7,511.2,154,507.7,154z"/>
	<path fill="#494C4D" d="M523,154c-0.4,0-0.8-0.4-0.8-1.1v-24h-1.6v23.8c0,1.9,0.7,2.8,2.1,2.8c0.5,0,0.8-0.1,1.2-0.2l-0.3-1.3
		C523.3,154,523.2,154,523,154z"/>
	<path fill="#494C4D" d="M540.2,150.4c-2,2.5-3.6,3.6-5.6,3.6c-2.8,0-4-1.7-4-5.4v-11H529v11.2c0,4.5,1.7,6.7,5.3,6.7
		c2.4,0,4.2-1.3,5.9-3.3h0.1l0.2,2.9h1.3v-17.4h-1.6V150.4z"/>
	<path fill="#494C4D" d="M552.9,145.2c-2.1-0.8-4.1-1.6-4.1-3.5c0-1.6,1.2-3.2,3.9-3.2c1.8,0,3,0.7,4.2,1.6l0.9-1.1
		c-1.3-1.1-3.1-1.8-5-1.8c-3.6,0-5.6,2.1-5.6,4.7c0,3,2.9,4,5.6,5c2,0.7,4.3,1.7,4.3,3.8c0,1.9-1.4,3.5-4.1,3.5
		c-2.5,0-4.1-1-5.6-2.2l-0.9,1.2c1.6,1.3,3.8,2.4,6.4,2.4c3.8,0,5.9-2.3,5.9-4.9C558.6,147.1,555.6,146.2,552.9,145.2z"/>
	<path fill="#494C4D" d="M578,137.1c-2.1,0-4.2,1.3-5.9,2.6H572l-0.1-2.2h-1.4v25.3h1.6v-6.4v-3.2c1.8,1.3,3.6,2.1,5.2,2.1
		c4.1,0,7.7-3.5,7.7-9.4C585,140.6,582.6,137.1,578,137.1z M577.2,154c-1.3,0-3.2-0.6-5.2-2.3v-10.4c2.1-1.9,4-2.9,5.7-2.9
		c4,0,5.5,3.2,5.5,7.5C583.3,150.7,580.7,154,577.2,154z"/>
	<path fill="#494C4D" d="M591.8,140.8h-0.1l-0.1-3.2h-1.4V155h1.6v-11.9c1.3-3.3,3.2-4.5,4.8-4.5c0.7,0,1,0.1,1.6,0.3l0.4-1.5
		c-0.6-0.3-1.1-0.4-1.7-0.4C594.7,137.1,593,138.6,591.8,140.8z"/>
	<path fill="#494C4D" d="M607.7,137.1c-4.2,0-7.8,3.3-7.8,9.2c0,5.8,3.6,9.1,7.8,9.1c4.2,0,7.8-3.3,7.8-9.1
		C615.5,140.5,611.9,137.1,607.7,137.1z M607.7,154c-3.5,0-6.1-3.1-6.1-7.7c0-4.6,2.6-7.8,6.1-7.8c3.5,0,6.2,3.2,6.2,7.8
		C613.9,150.9,611.2,154,607.7,154z"/>
	<path fill="#494C4D" d="M627.3,154c-3.8,0-6.3-3.1-6.3-7.7c0-4.6,2.8-7.8,6.3-7.8c1.7,0,3,0.8,4.1,1.9l0.9-1.1
		c-1.2-1.1-2.7-2.1-5.1-2.1c-4.3,0-8,3.3-8,9.2c0,5.8,3.4,9.1,7.9,9.1c2.2,0,4.1-1,5.6-2.3L632,152C630.8,153.1,629.2,154,627.3,154
		z"/>
	<path fill="#494C4D" d="M644.7,137.1c-2.4,0-4.2,1.3-6,3.2v-3.8v-7.6h-1.6V155h1.6v-13.2c2.1-2.2,3.6-3.3,5.7-3.3
		c2.8,0,4,1.7,4,5.4v11h1.6v-11.2C650,139.3,648.3,137.1,644.7,137.1z"/>
	<path fill="#494C4D" d="M662.4,137.1c-3.9,0-7.6,3.5-7.6,9.2c0,5.7,3.6,9.1,8.1,9.1c2.5,0,4.1-0.9,5.5-1.7l-0.7-1.2
		c-1.3,0.9-2.8,1.6-4.7,1.6c-3.9,0-6.5-3.2-6.6-7.6H669c0.1-0.4,0.1-0.9,0.1-1.3C669.1,140.1,666.5,137.1,662.4,137.1z M656.4,145.3
		c0.4-4.2,3-6.8,6-6.8c3.1,0,5.1,2.3,5.1,6.8H656.4z"/>
	<path fill="#04A87C" d="M53.8,20.8c19.6,0,35.6,16,35.6,35.6H96c0-23.3-18.9-42.2-42.2-42.2S11.7,33.2,11.7,56.4v80
		c0,23.3,18.9,42.2,42.2,42.2S96,159.7,96,136.5h-6.5c0,19.6-16,35.6-35.6,35.6s-35.6-16-35.6-35.6V99.7h34.5v-6.5H18.2V56.4
		C18.2,36.8,34.2,20.8,53.8,20.8z"/>
</g>
</svg>
