<?xml version="1.0" encoding="UTF-8" standalone="no"?>
<svg
   xmlns:svg="http://www.w3.org/2000/svg"
   xmlns="http://www.w3.org/2000/svg"
   version="1.0"
   width="50mm"
   height="50mm"
   viewBox="0 0 200 200"
   id="svg2">
  <path
     d="M 25.924775,199.6406 L 29.587431,199.6406 L 14.879561,173.28489 L 27.469959,156.99227 L 23.750067,156.99227 L 3.090368,183.64748 L 3.090368,156.99227 L 3.1710745e-15,156.99227 L 3.1710745e-15,199.6406 L 3.090368,199.6406 L 3.090368,188.08003 L 12.819316,175.74076 L 25.924775,199.6406 M 36.885929,199.6406 L 61.608894,199.6406 L 61.608894,196.76543 L 39.976296,196.76543 L 39.976296,179.57432 L 58.40406,179.57432 L 58.40406,176.69915 L 39.976296,176.69915 L 39.976296,159.86743 L 61.608894,159.86743 L 61.608894,156.99227 L 36.885929,156.99227 L 36.885929,199.6406 M 71.089249,199.6406 L 95.812209,199.6406 L 95.812209,196.76543 L 74.179619,196.76543 L 74.179619,156.99227 L 71.089249,156.99227 L 71.089249,199.6406 M 103.83948,199.6406 L 128.56244,199.6406 L 128.56244,196.76543 L 106.92986,196.76543 L 106.92986,179.57432 L 125.35762,179.57432 L 125.35762,176.69915 L 106.92986,176.69915 L 106.92986,159.86743 L 128.56244,159.86743 L 128.56244,156.99227 L 103.83948,156.99227 L 103.83948,199.6406 M 164.36819,178.31643 C 164.36819,168.67264 164.31095,164.89898 160.59107,161.00552 C 157.9013,158.19026 154.29586,156.63288 150.40429,156.63288 C 146.51271,156.63288 142.90729,158.19026 140.21751,161.00552 C 136.49763,164.89898 136.44041,168.67264 136.44041,178.31643 C 136.44041,187.90031 136.49763,191.73389 140.21751,195.62734 C 142.90729,198.44261 146.51271,200 150.40429,200 C 154.29586,200 157.9013,198.44261 160.59107,195.62734 C 164.31095,191.73389 164.36819,187.90031 164.36819,178.31643 M 161.27782,178.31643 C 161.27782,187.42113 161.0489,190.7755 158.13022,193.83037 C 156.06998,195.98674 153.32297,197.12482 150.40429,197.12482 C 147.48562,197.12482 144.7386,195.98674 142.67836,193.83037 C 139.75969,190.7755 139.53077,187.42113 139.53077,178.31643 C 139.53077,169.21175 139.75969,165.85737 142.67836,162.80251 C 144.7386,160.64613 147.48562,159.50803 150.40429,159.50803 C 153.32297,159.50803 156.06998,160.64613 158.13022,162.80251 C 161.0489,165.85737 161.27782,169.21175 161.27782,178.31643 M 199.29759,188.19982 C 199.29759,184.78557 197.98132,181.85049 195.74939,179.93371 C 194.08974,178.43623 192.31563,177.65753 188.4813,177.11845 L 184.07466,176.39967 C 181.7855,175.98036 179.43908,175.02197 178.00837,173.76409 C 176.57764,172.5062 175.8909,170.64932 175.8909,168.19345 C 175.8909,162.74261 179.38187,159.38825 185.33369,159.38825 C 190.14094,159.38825 192.83071,160.94562 195.23432,163.3416 L 197.23734,161.24512 C 193.74638,158.07046 190.54154,156.63288 185.50538,156.63288 C 177.665,156.63288 172.85775,161.12532 172.85775,168.31325 C 172.85775,171.6676 173.94511,174.30317 176.06258,176.16006 C 177.83668,177.77734 180.24031,178.79563 183.33068,179.27483 L 188.08069,180.05351 C 191.45721,180.53271 192.43009,181.07179 193.97528,182.32968 C 195.52046,183.70737 196.20721,185.74395 196.20721,188.31963 C 196.20721,193.89025 192.20117,197.12482 185.73429,197.12482 C 180.86983,197.12482 177.83668,195.92683 174.17403,192.09329 L 171.99931,194.36946 C 175.7192,198.26291 179.55356,200 185.56261,200 C 194.08973,200 199.29759,195.44764 199.29759,188.19982"/>
  <g
     transform="matrix(1.9076363,0,0,1.9966448,11.144008,-3.99329)"
     id="g7089">
    <path
       d="M 24,72 C 25,66 30,33 22,21 C 21,33 17,41 0,42 C 14,47 23,64 24,72 z"
       id="path6862"
       style="fill:#9faa00" />
    <ellipse
       cx="0"
       cy="0"
       rx="4.5"
       ry="2.5"
       transform="matrix(0.9961947,-8.7155743e-2,8.7155743e-2,0.9961947,7,35)"
       id="ellipse6864"
       style="fill:#9faa00" />
    <path
       d="M 32,73 C 35,59 36,29 30,21 C 40,24 52,20 85,2 C 54,24 42,41 32,73 z"
       id="path6866"
       style="fill:#752641" />
    <ellipse
       cx="0"
       cy="0"
       rx="5"
       ry="3"
       transform="matrix(0.8660254,-0.5,0.5,0.8660254,44,11)"
       id="ellipse6868"
       style="fill:#752641" />
    <path
       d="M 42,73 C 58,44 91,43 98,41 C 84,43 64,32 99,10 C 75,12 44,49 42,73 z"
       id="path6870"
       style="fill:#e47f00" />
    <ellipse
       cx="0"
       cy="0"
       rx="4.5"
       ry="2.5"
       transform="matrix(0.9848078,0.1736482,-0.1736482,0.9848078,94,31)"
       id="ellipse6872"
       style="fill:#e47f00" />
  </g>
</svg>
