<svg id="Calque_1" data-name="Calque 1" xmlns="http://www.w3.org/2000/svg" viewBox="0 0 235.88 60.92"><defs><style>.cls-1{fill:#f03436;}.cls-2{fill:#000e51;}</style></defs><path class="cls-1" d="M44.84,44.9,31,14.28a2.32,2.32,0,0,0-4.23,0L13,44.9a2.32,2.32,0,0,0,2.1,3.28,2.42,2.42,0,0,0,.86-.16l12.14-4.74a2.51,2.51,0,0,1,.85-.16,2.45,2.45,0,0,1,.84.16L41.88,48a2.42,2.42,0,0,0,.86.16A2.32,2.32,0,0,0,44.84,44.9Zm-14.18-4a4.78,4.78,0,0,0-1.76-.33,4.87,4.87,0,0,0-1.77.33L15.48,45.46,28.9,15.76l13.41,29.7Z"/><path class="cls-2" d="M57.63,41.63V19.08h4V41.63Zm3.64-5.31,0-4.81h.64L68,24.72h4.66L65.15,33h-.82Zm7,5.31-5.5-7.7,2.69-2.8L73,41.63Z"/><path class="cls-2" d="M80.39,42a8.14,8.14,0,0,1-4.29-1.09,7.43,7.43,0,0,1-2.82-3,10,10,0,0,1-1-4.58,10.08,10.08,0,0,1,1-4.59,7.45,7.45,0,0,1,2.82-3.06,9,9,0,0,1,8.58,0,7.45,7.45,0,0,1,2.82,3.06,10.08,10.08,0,0,1,1,4.59,10,10,0,0,1-1,4.58,7.43,7.43,0,0,1-2.82,3A8.14,8.14,0,0,1,80.39,42Zm0-3.19A3.4,3.4,0,0,0,82.66,38,4.47,4.47,0,0,0,84,36a9.16,9.16,0,0,0,0-5.61,4.53,4.53,0,0,0-1.35-2,3.4,3.4,0,0,0-2.25-.75,3.44,3.44,0,0,0-2.28.75,4.47,4.47,0,0,0-1.36,2,9.16,9.16,0,0,0,0,5.61,4.4,4.4,0,0,0,1.36,2A3.44,3.44,0,0,0,80.41,38.77Z"/><path class="cls-2" d="M90.09,41.63V39.1l8.72-10.93V28H90.38v-3.3h13.31v2.72l-8.3,10.74v.15H104v3.3Z"/><path class="cls-2" d="M113.18,42a8.62,8.62,0,0,1-4.39-1.06,7.12,7.12,0,0,1-2.83-3,10,10,0,0,1-1-4.61,10.09,10.09,0,0,1,1-4.58,7.38,7.38,0,0,1,2.79-3.08A7.86,7.86,0,0,1,113,24.5a8.74,8.74,0,0,1,3,.5,6.88,6.88,0,0,1,2.47,1.55,7.24,7.24,0,0,1,1.69,2.66A10.71,10.71,0,0,1,120.7,33v1.22H106.84V31.58h10a4.33,4.33,0,0,0-.5-2A3.62,3.62,0,0,0,115,28.12a3.85,3.85,0,0,0-2-.52,3.9,3.9,0,0,0-2.14.59,4.17,4.17,0,0,0-1.44,1.54,4.37,4.37,0,0,0-.52,2.09v2.35a5.45,5.45,0,0,0,.54,2.52A3.83,3.83,0,0,0,111,38.3a4.52,4.52,0,0,0,2.27.55,4.9,4.9,0,0,0,1.58-.24,3.57,3.57,0,0,0,1.22-.73,3.24,3.24,0,0,0,.78-1.21l3.72.42a5.68,5.68,0,0,1-1.34,2.57,6.46,6.46,0,0,1-2.51,1.7A9.55,9.55,0,0,1,113.18,42Z"/><path class="cls-2" d="M127.38,42a6.88,6.88,0,0,1-2.89-.58,4.59,4.59,0,0,1-2-1.71,5.06,5.06,0,0,1-.74-2.8,4.76,4.76,0,0,1,.53-2.36,4,4,0,0,1,1.44-1.5,7.38,7.38,0,0,1,2.07-.85,16.42,16.42,0,0,1,2.38-.43c1-.1,1.79-.19,2.41-.28a3.41,3.41,0,0,0,1.35-.39.93.93,0,0,0,.42-.85v-.06a2.48,2.48,0,0,0-.74-1.93,3,3,0,0,0-2.12-.68,3.76,3.76,0,0,0-2.32.64A3.14,3.14,0,0,0,126,29.7l-3.72-.53a6,6,0,0,1,1.45-2.58A6.45,6.45,0,0,1,126.2,25a9.57,9.57,0,0,1,3.24-.52,10.09,10.09,0,0,1,2.43.29,6.71,6.71,0,0,1,2.21.94,4.86,4.86,0,0,1,1.62,1.77,5.93,5.93,0,0,1,.61,2.81V41.63h-3.83V39.31h-.14a4.91,4.91,0,0,1-1,1.31,4.84,4.84,0,0,1-1.64,1A6.51,6.51,0,0,1,127.38,42Zm1-2.93a4.26,4.26,0,0,0,2.08-.48,3.48,3.48,0,0,0,1.36-1.27,3.27,3.27,0,0,0,.48-1.73v-2a1.86,1.86,0,0,1-.63.29,10,10,0,0,1-1,.23l-1.09.17-.93.14a7.07,7.07,0,0,0-1.6.39,2.69,2.69,0,0,0-1.11.77,2.12,2.12,0,0,0,.4,2.92A3.49,3.49,0,0,0,128.41,39Z"/><path class="cls-2" d="M146.5,41.63V24.72h1.91v2.6h.17a4.2,4.2,0,0,1,1.69-2.07,5.22,5.22,0,0,1,2.85-.75,4.74,4.74,0,0,1,2.88.82,5,5,0,0,1,1.69,2.25h.14a4.65,4.65,0,0,1,1.87-2.24,5.72,5.72,0,0,1,3.14-.83A4.8,4.8,0,0,1,166.56,26a6.17,6.17,0,0,1,1.37,4.32V41.63h-2V30.3a4,4,0,0,0-1-3,3.68,3.68,0,0,0-2.69-1,3.78,3.78,0,0,0-3,1.19,4.4,4.4,0,0,0-1,3V41.63h-2V30.13a4,4,0,0,0-1-2.78,3.48,3.48,0,0,0-2.7-1.06A3.93,3.93,0,0,0,149,28.46a4.93,4.93,0,0,0-.54,2.34V41.63Z"/><path class="cls-2" d="M178.39,42a7.5,7.5,0,0,1-4.1-1.1,7.37,7.37,0,0,1-2.67-3.08,10.33,10.33,0,0,1-.94-4.53,10.47,10.47,0,0,1,.94-4.54,7.62,7.62,0,0,1,2.61-3.11,6.74,6.74,0,0,1,3.86-1.13,7.25,7.25,0,0,1,2.65.5,6.53,6.53,0,0,1,2.3,1.53,7.41,7.41,0,0,1,1.61,2.59,10.22,10.22,0,0,1,.59,3.68v1H172V32h11.21a6.51,6.51,0,0,0-.65-2.93A5.31,5.31,0,0,0,180.77,27a5.1,5.1,0,0,0-5.51.1,5.89,5.89,0,0,0-1.91,2.27,7.07,7.07,0,0,0-.7,3.08v1a8.17,8.17,0,0,0,.7,3.51,5.42,5.42,0,0,0,2,2.33,5.53,5.53,0,0,0,3,.83,5.43,5.43,0,0,0,2.1-.38,4.47,4.47,0,0,0,1.53-1,4.57,4.57,0,0,0,.95-1.4l1.86.61a5.6,5.6,0,0,1-1.26,2,6.65,6.65,0,0,1-2.18,1.45A7.79,7.79,0,0,1,178.39,42Z"/><path class="cls-2" d="M194.09,42a6.2,6.2,0,0,1-3.65-1.1A7.31,7.31,0,0,1,188,37.81a11.29,11.29,0,0,1-.87-4.59,11.24,11.24,0,0,1,.87-4.58,7.23,7.23,0,0,1,2.45-3.06,6.26,6.26,0,0,1,3.67-1.09,5.42,5.42,0,0,1,2.56.54,5,5,0,0,1,1.64,1.35,8.19,8.19,0,0,1,1,1.57h.18V19.08h2V41.63h-1.92V38.49h-.23a7.84,7.84,0,0,1-1,1.58,5.19,5.19,0,0,1-1.65,1.36A5.4,5.4,0,0,1,194.09,42Zm.23-1.79a4.4,4.4,0,0,0,2.79-.9,5.62,5.62,0,0,0,1.77-2.48,9.92,9.92,0,0,0,.61-3.62,10,10,0,0,0-.6-3.59,5.55,5.55,0,0,0-1.77-2.44,4.88,4.88,0,0,0-5.66,0,5.7,5.7,0,0,0-1.76,2.48,9.81,9.81,0,0,0-.6,3.52,10,10,0,0,0,.6,3.55,5.87,5.87,0,0,0,1.77,2.52A4.42,4.42,0,0,0,194.32,40.19Z"/><path class="cls-2" d="M206.48,21.81a1.43,1.43,0,0,1-1-.41,1.37,1.37,0,0,1,0-2,1.51,1.51,0,0,1,2.07,0,1.35,1.35,0,0,1,0,2A1.43,1.43,0,0,1,206.48,21.81Zm-1,19.82V24.72h2V41.63Z"/><path class="cls-2" d="M215.82,42a6.48,6.48,0,0,1-2.8-.6,4.73,4.73,0,0,1-2.76-4.5,4.43,4.43,0,0,1,.47-2.12,4,4,0,0,1,1.35-1.41,7.79,7.79,0,0,1,2.06-.87,19.77,19.77,0,0,1,2.62-.49l2.4-.31a4.38,4.38,0,0,0,1.5-.42,1,1,0,0,0,.52-.92V30a3.59,3.59,0,0,0-1-2.72,4,4,0,0,0-3-1,5.14,5.14,0,0,0-3,.8,4.38,4.38,0,0,0-1.61,1.9l-1.86-.67a5.5,5.5,0,0,1,1.58-2.22,6.21,6.21,0,0,1,2.27-1.2,8.82,8.82,0,0,1,2.54-.37,8.52,8.52,0,0,1,2,.25,5.86,5.86,0,0,1,2,.88,4.46,4.46,0,0,1,1.46,1.73,6.2,6.2,0,0,1,.56,2.8V41.63h-2V39h-.12A5.1,5.1,0,0,1,220,40.41a5.39,5.39,0,0,1-1.73,1.15A6.21,6.21,0,0,1,215.82,42Zm.26-1.79a5.13,5.13,0,0,0,2.71-.69,4.76,4.76,0,0,0,1.77-1.85,5.28,5.28,0,0,0,.62-2.54V32.7a2.12,2.12,0,0,1-.73.38,10.74,10.74,0,0,1-1.18.29q-.66.12-1.32.21l-1.19.16a10.6,10.6,0,0,0-2.45.55,3.55,3.55,0,0,0-1.55,1,2.52,2.52,0,0,0-.54,1.67,2.84,2.84,0,0,0,1.1,2.39A4.44,4.44,0,0,0,216.08,40.22Z"/></svg>