<?xml version="1.0" encoding="utf-8"?>
<!-- Generator: Adobe Illustrator 18.0.0, SVG Export Plug-In . SVG Version: 6.00 Build 0)  -->
<!DOCTYPE svg PUBLIC "-//W3C//DTD SVG 1.1//EN" "http://www.w3.org/Graphics/SVG/1.1/DTD/svg11.dtd">
<svg version="1.1" id="Calque_1" xmlns="http://www.w3.org/2000/svg" xmlns:xlink="http://www.w3.org/1999/xlink" x="0px" y="0px"
	 viewBox="-378.54208 928.40918 77.33334 77.33334" enable-background="new -378.54208 928.40918 77.33334 77.33334"
	 xml:space="preserve">
<rect x="-379.91245" y="927.56641" fill="#FFFFFF" width="81.05478" height="80.98083"/>
<g>
	<path fill="#FFFFFF" d="M-318.39047,918.61542c-5.07523,7.24982-15.88898,22.43872-19.19006,26.42584
		c-3.82333,4.56573-26.9758,52.6142,43.96841,62.6153c3.8031,0.57141,7.59796,0.1358,11.27289-1.04437"/>
	<path fill="#504F4E" d="M-290.25684,1008.78064c-1.1748,0-2.33789-0.08594-3.48535-0.25879
		c-26.82715-3.78125-43.36865-13.34082-49.1582-28.40918c-6.44531-16.77734,3.00098-33.66504,4.64893-35.63281
		c3.35986-4.05859,14.34912-19.5166,19.14404-26.36621l1.43359,1.00391c-4.80811,6.86816-15.83545,22.37891-19.23291,26.48145
		c-2.5249,3.01563-10.02393,19.14258-4.35986,33.88574c5.54443,14.43066,21.61865,23.61816,47.77637,27.30566
		c3.49902,0.52246,7.15869,0.18457,10.8833-1.01172l0.53516,1.66602
		C-284.83936,1008.33435-287.58008,1008.78064-290.25684,1008.78064z"/>
</g>
<g>
	
		<ellipse transform="matrix(0.92267 -0.38559 0.38559 0.92267 -403.30292 -54.70517)" fill="#FFFFFF" cx="-338.03918" cy="978.13867" rx="3.96799" ry="12.24836"/>
	<path fill="#504F4E" d="M-333.85498,990.41931c-2.95508,0-6.55664-5.39844-8.65234-10.41406
		c-1.2959-3.10059-2.12451-6.19141-2.33252-8.7041c-0.30029-3.62988,0.78076-4.87012,1.74023-5.27148
		c0.27344-0.11426,0.56787-0.17188,0.87598-0.17188c2.95508,0,6.55713,5.39844,8.65283,10.41309
		c1.2959,3.10156,2.12402,6.19238,2.33203,8.70508c0.30029,3.62988-0.78076,4.87012-1.74023,5.27148
		C-333.25244,990.36169-333.54688,990.41931-333.85498,990.41931z M-342.22363,967.60779
		c-0.07617,0-0.14209,0.01172-0.20117,0.03711c-0.4624,0.19336-0.84961,1.35352-0.6709,3.51172
		c0.19336,2.33496,0.97559,5.23828,2.20264,8.17383c2.54639,6.09375,5.72363,9.33887,7.03809,9.33887
		c0.07617,0,0.14209-0.01172,0.20117-0.03711c0.46289-0.19336,0.84961-1.35352,0.6709-3.51172
		c-0.19287-2.33496-0.9751-5.23828-2.20215-8.17383C-337.73193,970.85291-340.90918,967.60779-342.22363,967.60779z"/>
</g>
<g>
	<g>
		<g>
			<g>
				<path fill="#FFFFFF" d="M-365.0177,1030.89294c27.12769-4.43188,36.04752-31.9248,35.80624-34.00116
					c-0.29294-2.53162-4.21674-7.22925-5.9534-9.00171c-1.73166-1.77338-0.50369-3.74817-1.64874-4.99323
					c-1.13876-1.24988-3.94327-1.23309-3.94327-1.23309c1.65115-1.76654-0.40579-5.3714-1.14609-6.86444
					c-0.74002-1.50299,0.70029-3.37921,0.70029-3.37921c-0.3392-1.16833-6.51752-2.32233-6.51752-2.32233
					c0.50793-8.64203-7.57797-6.22821-7.57797-6.22821s0,0-2.51035,0.29102c-2.51389,0.28711-7.26868-2.10358-8.31155-2.69806
					c-1.04156-0.59192-1.31793-3.01105-9.46838-6.66791c-11.685-5.23511-20.57111-2.32874-26.76898,2.20044"/>
				<path fill="#504F4E" d="M-364.87646,1031.75623l-0.28223-1.72656c26.54688-4.33691,35.16748-30.94434,35.07715-33.0498
					c-0.24609-2.12109-3.83936-6.57031-5.7085-8.47754c-1.1875-1.21582-1.25684-2.55371-1.30762-3.53027
					c-0.03857-0.73926-0.07422-1.17188-0.35986-1.48242c-0.70898-0.7793-2.64404-0.95117-3.28418-0.95117
					c-0.00391,0-0.00732,0-0.01123,0l-2.02393,0.00684l1.38086-1.47949c1.09961-1.17676-0.37598-4.07715-1.08545-5.4707
					l-0.20557-0.40723c-0.66211-1.34473-0.08643-2.8125,0.36914-3.63965c-0.88867-0.47461-3.22607-1.15332-5.56299-1.58984
					l-0.7583-0.1416l0.04541-0.77051c0.13428-2.28516-0.35938-3.8877-1.4668-4.76465
					c-1.84082-1.45996-4.95752-0.58496-4.9873-0.57324l-0.1499,0.03027l-2.51025,0.29102
					c-3.17236,0.35449-8.78955-2.77441-8.8457-2.80762c-0.39844-0.22656-0.66748-0.55566-1.00781-0.97266
					c-0.85254-1.04492-2.44043-2.98926-8.38525-5.65723c-9.46436-4.24023-18.17725-3.53027-25.89453,2.10938l-1.03223-1.41211
					c8.26172-6.03809,17.5625-6.80762,27.64307-2.29395c6.32275,2.83789,8.08057,4.99023,9.0249,6.14746
					c0.21582,0.26465,0.40234,0.49316,0.51758,0.55859c1.59229,0.9082,5.74756,2.81348,7.78027,2.58984l2.43945-0.2832
					c0.58887-0.16016,4.09082-1.00195,6.49414,0.90137c1.4375,1.1377,2.15967,2.97656,2.15186,5.4707
					c3.98096,0.80078,6.15332,1.74023,6.45996,2.7959l0.12354,0.42578l-0.27002,0.35156
					c-0.30518,0.40332-1.01416,1.63672-0.60889,2.45898l0.1958,0.38867c0.76953,1.5127,2.07178,4.07129,1.5498,6.09375
					c1.03564,0.15332,2.39453,0.52246,3.20557,1.41309c0.72363,0.78613,0.77295,1.73535,0.81641,2.57227
					c0.04639,0.88867,0.08594,1.65625,0.81104,2.39844c1.49854,1.5293,5.85547,6.56152,6.19678,9.5127
					C-328.12598,998.65369-336.69434,1027.15271-364.87646,1031.75623z"/>
			</g>
			<g>
				<g>
					<path fill="#504F4E" d="M-364.74405,976.24811c-0.29376,0-0.54138-0.22534-0.57248-0.5202l-0.117-1.30554
						c-0.1207-1.3479,1.96762-3.7923,2.85999-4.76685l-0.05594-0.61719c-0.04105-0.47552-0.67953-0.94348-0.84637-1.03552
						c-0.27374-0.16425-0.37085-0.51025-0.20786-0.78656c0.15689-0.27631,0.50659-0.37213,0.77921-0.21411
						c0.13306,0.07709,1.31293,0.79651,1.41501,1.92914l0.07596,0.87744c0.01492,0.16302-0.03366,0.32727-0.14694,0.44427
						c0.24405-0.0473,0.49295,0.06586,0.61365,0.30115c0.14682,0.27502,0.04105,0.62726-0.23895,0.77411
						c-2.84891,1.51099-2.97955,4.25153-2.9845,4.36853c-0.00995,0.30615-0.25885,0.54639-0.55884,0.55133
						C-364.73413,976.24811-364.73907,976.24811-364.74405,976.24811z"/>
				</g>
			</g>
		</g>
	</g>
</g>
</svg>
