<?xml version="1.0" encoding="utf-8"?>
<!-- Generator: Adobe Illustrator 18.0.0, SVG Export Plug-In . SVG Version: 6.00 Build 0)  -->
<!DOCTYPE svg PUBLIC "-//W3C//DTD SVG 1.1//EN" "http://www.w3.org/Graphics/SVG/1.1/DTD/svg11.dtd">
<svg version="1.1" id="Calque_1" xmlns="http://www.w3.org/2000/svg" xmlns:xlink="http://www.w3.org/1999/xlink" x="0px" y="0px"
	 viewBox="-271.49033 928.40918 77.33334 77.33334" enable-background="new -271.49033 928.40918 77.33334 77.33334"
	 xml:space="preserve">
<rect x="-272.77054" y="927.56641" fill="#FFFFFF" width="81.05478" height="80.98083"/>
<g>
	<path fill="#FFFFFF" d="M-211.24855,918.61542c-5.07523,7.24982-15.88899,22.43872-19.19008,26.42584
		c-3.82335,4.56573-26.97583,52.6142,43.9684,62.6153c3.80312,0.57141,7.59799,0.1358,11.27292-1.04437"/>
	<path fill="#504F4E" d="M-183.11473,1008.78064c-1.1748,0-2.33789-0.08594-3.48535-0.25879
		c-26.82764-3.78223-43.36963-13.34082-49.15869-28.41016c-6.44531-16.77832,3.00146-33.66406,4.64941-35.63184
		c3.36279-4.0625,14.3501-19.51855,19.14404-26.36621l1.43359,1.00391c-4.80713,6.86621-15.83301,22.375-19.23291,26.48145
		c-2.5249,3.01563-10.02441,19.14063-4.36084,33.88477c5.54395,14.43164,21.61865,23.61914,47.77734,27.30664
		c3.49902,0.52246,7.15869,0.18457,10.8833-1.01172l0.53516,1.66602
		C-177.69725,1008.33435-180.43797,1008.78064-183.11473,1008.78064z"/>
</g>
<g>
	
		<ellipse transform="matrix(0.92267 -0.38559 0.38559 0.92267 -395.01758 -13.39213)" fill="#FFFFFF" cx="-230.89728" cy="978.13867" rx="3.96799" ry="12.24836"/>
	<path fill="#504F4E" d="M-226.71288,990.41931c-2.95557,0-6.55713-5.39844-8.65283-10.41406
		c-1.2959-3.10059-2.12402-6.19141-2.33203-8.7041c-0.30029-3.62988,0.78076-4.87012,1.74023-5.27148
		c0.27344-0.11426,0.56787-0.17188,0.87598-0.17188c2.95459,0,6.55664,5.39844,8.65234,10.41309
		c1.2959,3.10156,2.12451,6.19238,2.33252,8.70508c0.30029,3.62988-0.78076,4.87012-1.74023,5.27148
		C-226.11034,990.36169-226.40477,990.41931-226.71288,990.41931z M-235.08153,967.60779
		c-0.07617,0-0.14209,0.01172-0.20117,0.03711c-0.46289,0.19336-0.84961,1.35449-0.6709,3.51172
		c0.19287,2.33496,0.9751,5.23828,2.20215,8.17383c2.54639,6.09375,5.72363,9.33887,7.03857,9.33887
		c0.07617,0,0.14209-0.01172,0.20117-0.03711c0.4624-0.19336,0.84961-1.35352,0.6709-3.51172
		c-0.19336-2.33496-0.97559-5.23828-2.20264-8.17383C-230.59032,970.85291-233.76707,967.60779-235.08153,967.60779z"/>
</g>
<g>
	<g>
		<g>
			<g>
				<path fill="#FFFFFF" d="M-257.87579,1030.89294c27.12769-4.43188,36.04752-31.9248,35.80626-34.00116
					c-0.29295-2.53162-4.21677-7.22925-5.95343-9.00171c-1.73164-1.77338-0.50368-3.74817-1.64873-4.99323
					c-1.13876-1.24988-3.94327-1.23309-3.94327-1.23309c1.65114-1.76654-0.40579-5.3714-1.1461-6.86444
					c-0.74001-1.50299,0.7003-3.37921,0.7003-3.37921c-0.3392-1.16833-6.51752-2.32233-6.51752-2.32233
					c0.50795-8.64203-7.57797-6.22821-7.57797-6.22821s0,0-2.51035,0.29102c-2.5139,0.28711-7.26868-2.10358-8.31155-2.69806
					c-1.04156-0.59192-1.31793-3.01105-9.46838-6.66791c-11.685-5.23511-20.57111-2.32874-26.76898,2.20044"/>
				<path fill="#504F4E" d="M-257.73486,1031.75623l-0.28223-1.72656c26.54738-4.33691,35.16798-30.94434,35.07765-33.0498
					c-0.24609-2.12109-3.83936-6.57031-5.7085-8.47754c-1.1875-1.21582-1.25684-2.55371-1.30811-3.53027
					c-0.03857-0.73926-0.07422-1.17188-0.35986-1.48242c-0.71045-0.78027-2.62549-0.95117-3.27295-0.95117
					c-0.00684,0-0.01416,0-0.02051,0l-2.03174,0.01172l1.38721-1.48438c1.09961-1.17676-0.37646-4.07617-1.08545-5.4707
					l-0.20605-0.40723c-0.66162-1.34473-0.08594-2.8125,0.36963-3.63965c-0.88867-0.47461-3.22607-1.15332-5.56299-1.58984
					l-0.7583-0.1416l0.04541-0.77051c0.13428-2.28516-0.35938-3.8877-1.4668-4.76465
					c-1.83984-1.45996-4.95703-0.58496-4.9873-0.57324l-0.1499,0.03027l-2.51025,0.29102
					c-3.17383,0.35449-8.79005-2.77441-8.84572-2.80762c-0.39844-0.22656-0.66748-0.55566-1.00781-0.97266
					c-0.85254-1.04492-2.44043-2.98926-8.38574-5.65723c-9.46436-4.24023-18.17725-3.5293-25.89404,2.10938l-1.03223-1.41211
					c8.26074-6.03809,17.56006-6.80957,27.64258-2.29395c6.32324,2.83789,8.08105,4.99023,9.02539,6.14746
					c0.21582,0.26465,0.40234,0.49316,0.51758,0.55859c1.59277,0.9082,5.76173,2.81348,7.78029,2.58984l2.43945-0.2832
					c0.58936-0.15918,4.09033-1.00293,6.49414,0.90137c1.4375,1.1377,2.15967,2.97656,2.15186,5.4707
					c3.98096,0.80078,6.15332,1.74023,6.45996,2.7959l0.12354,0.42578l-0.27002,0.35156
					c-0.30566,0.40332-1.01416,1.63672-0.60938,2.45898l0.19629,0.38965c0.76953,1.51172,2.07178,4.07031,1.5498,6.09277
					c1.03564,0.15332,2.39404,0.52246,3.20508,1.41309c0.72363,0.78613,0.77295,1.73535,0.81641,2.57227
					c0.04639,0.88867,0.08643,1.65625,0.81152,2.39844c1.49854,1.5293,5.85547,6.56152,6.19678,9.5127
					C-220.98387,998.65369-229.55223,1027.15271-257.73486,1031.75623z"/>
			</g>
			<g>
				<g>
					<path fill="#504F4E" d="M-257.60214,976.24811c-0.29376,0-0.54138-0.22534-0.57248-0.5202l-0.117-1.30554
						c-0.1207-1.3479,1.96762-3.7923,2.85999-4.76685l-0.05595-0.61719c-0.04103-0.47552-0.67952-0.94348-0.84636-1.03552
						c-0.27374-0.16425-0.37085-0.51025-0.20786-0.78656c0.15689-0.27631,0.50659-0.37213,0.77919-0.21411
						c0.13306,0.07709,1.31294,0.79651,1.41504,1.92914l0.07594,0.87744c0.01491,0.16302-0.03365,0.32727-0.14696,0.44427
						c0.24406-0.0473,0.49297,0.06586,0.61365,0.30115c0.14684,0.27502,0.04106,0.62726-0.23895,0.77411
						c-2.84889,1.51099-2.97954,4.25153-2.98451,4.36853c-0.00992,0.30615-0.25882,0.54639-0.55881,0.55133
						C-257.59222,976.24811-257.5972,976.24811-257.60214,976.24811z"/>
				</g>
			</g>
		</g>
	</g>
</g>
<g>
	
		<rect x="-236.20631" y="910.40637" transform="matrix(0.70711 0.70711 -0.70711 0.70711 616.20636 449.26407)" fill="#504F4E" width="3.99957" height="116.105"/>
</g>
</svg>
