<?xml version="1.0" encoding="utf-8"?>
<!-- Generator: Adobe Illustrator 18.0.0, SVG Export Plug-In . SVG Version: 6.00 Build 0)  -->
<!DOCTYPE svg PUBLIC "-//W3C//DTD SVG 1.1//EN" "http://www.w3.org/Graphics/SVG/1.1/DTD/svg11.dtd">
<svg version="1.1" id="Calque_1" xmlns="http://www.w3.org/2000/svg" xmlns:xlink="http://www.w3.org/1999/xlink" x="0px" y="0px"
	 viewBox="-875.69702 926.10645 77.33334 77.33334" enable-background="new -875.69702 926.10645 77.33334 77.33334"
	 xml:space="preserve">
<rect x="-877.50861" y="924.76166" fill="#FFFFFF" width="81.05478" height="80.98083"/>
<g>
	<g>
		<polygon fill="none" points="-869.56689,990.26294 -836.9812,938.10211 -804.39551,990.26294 		"/>
	</g>
	<g>
		<path fill="#504F4E" d="M-836.98132,939.58759l31.16602,49.888h-62.33203L-836.98132,939.58759 M-836.98132,936.61694
			l-34.00513,54.43256h68.01025L-836.98132,936.61694L-836.98132,936.61694z"/>
	</g>
</g>
<g>
	<path fill="#504F4E" d="M-835.1192,982.15692c0,0.664-0.2077,1.21472-0.6236,1.6521
		c-0.41589,0.43829-0.94592,0.65698-1.59064,0.65698c-0.61658,0-1.14313-0.22308-1.58008-0.6684
		c-0.43744-0.44446-0.65613-0.99164-0.65613-1.64069c0-0.664,0.21869-1.21826,0.65613-1.66357
		c0.43695-0.44531,0.9635-0.66748,1.58008-0.66748c0.28632,0,0.57666,0.05969,0.87042,0.18091
		c0.29382,0.1203,0.534,0.2793,0.72021,0.47516s0.33685,0.44885,0.45148,0.758
		C-835.1767,981.54999-835.1192,981.85565-835.1192,982.15692z M-835.48456,951.32782l-0.55902,23.72168h-2.55859l-0.58014-23.72168
		H-835.48456z"/>
</g>
</svg>
