<?xml version="1.0" encoding="utf-8"?>
<!-- Generator: Adobe Illustrator 18.0.0, SVG Export Plug-In . SVG Version: 6.00 Build 0)  -->
<!DOCTYPE svg PUBLIC "-//W3C//DTD SVG 1.1//EN" "http://www.w3.org/Graphics/SVG/1.1/DTD/svg11.dtd">
<svg version="1.1" id="Calque_1" xmlns="http://www.w3.org/2000/svg" xmlns:xlink="http://www.w3.org/1999/xlink" x="0px" y="0px"
	 viewBox="481.34079 1036.92004 77.33334 77.33334" enable-background="new 481.34079 1036.92004 77.33334 77.33334"
	 xml:space="preserve">
<g>
	<rect x="479.48004" y="1035.09631" fill="#FFFFFF" width="81.05478" height="80.98083"/>
</g>
<g>
	<path fill="#504F4E" d="M526.30371,1119.96228h-16.81152l0.84863-3.39453l0.04297-1.07129
		c-0.89844-1.11621-4.11035-5.40625-3.99805-9.60254c0.1123-4.16992,2.9502-8.5498,3.7041-9.64063l-0.1123-3.7793
		c-0.02344-0.30859-0.61719-1.05469-3.04199-1.12598c-4.20703-0.12598-11.57129-4.84766-11.88281-5.04883
		c-1.12402-0.62207-2.42188-2.40137-1.18848-4.63086l0.39551-0.72461c1.2793-2.35938,3.4209-6.30762,7.85547-11.34277
		c1.2041-1.46094,2.21289-2.65918,2.8125-3.36621c-1.82324-1.51758-6.29102-5.81738-6.08398-11.35352
		c0.25195-6.73926,4.15332-9.51367,7.45215-9.08887c0.51758-1.76172,2.25781-5.33301,7.99902-5.10254
		c6.91602,0.24316,8.62988,4.51172,8.86523,5.21387c0.17285,0.36426,0.71191,1.71094,0.83398,4.58887
		c0.22656,0.57031,0.84668,1.49902,1.20801,1.98047c0.15918,0.17383,0.81543,0.99414,0.5752,1.83691
		c-0.07715,0.27051-0.31348,0.75488-1.0293,0.96484l-0.43066,0.12598l-0.19238,3.04492
		c0.05371,0.3584,0.00195,0.84668-0.30469,1.27148c-0.41797,0.5791-1.16699,0.88867-2.22559,0.9209
		c-1.42285,0.04102-2.45117,0.51563-2.78906,0.69336c-0.20703,0.31543-0.78027,1.42676-0.02539,3.17285
		c0.62891,2.05469,4.63867,5.37793,6.13477,6.49316l0.08008,0.06738c0.32129,0.30566,0.73047,0.62305,1.16309,0.95801
		c0.95898,0.74316,2.15234,1.66699,3.13867,3.05762c1.50781,2.12695,1.9209,5.07813-0.17383,7.35156
		c5.49902,2.94824,8.29004,6.80371,8.99805,12.36035c0.57422,4.51563-0.2832,6.48535-0.49902,6.89551
		c-0.24512,0.57422-2.43945,5.39551-7.5,7.28711l3.4541,5.20996L526.30371,1119.96228z M511.73438,1118.21228h13.95801
		l5.53809-4.39844l-3.88477-5.86035l1.18555-0.30859c5.26367-1.37012,7.4707-6.61621,7.49219-6.66895l0.05664-0.11328
		c0-0.00098,0.8418-1.62305,0.30469-5.84961c-0.68164-5.35352-3.42773-8.82129-9.18164-11.59375l-1.31641-0.63379l1.18066-0.86133
		c3.09766-2.25781,1.21191-5.25391,0.80176-5.83203c-0.83594-1.17773-1.87012-1.97852-2.78223-2.68555
		c-0.4541-0.35156-0.88281-0.68359-1.25977-1.03711c-0.76563-0.57422-5.83691-4.45898-6.6875-7.26465
		c-1.30859-3.01563,0.34961-4.94336,0.4209-5.02441l0.18555-0.1582c0.0625-0.03906,1.54688-0.96777,3.79688-1.03418
		c0.58984-0.01758,0.82324-0.14941,0.8584-0.19434l-0.0459-0.15039l0.01563-0.09375l0.27832-4.38086l1.28418-0.37891
		c-0.0293-0.04199-0.05957-0.08105-0.08398-0.1084c-0.16699-0.2168-1.2207-1.6377-1.55469-2.6416l-0.04395-0.24414
		c-0.1084-2.90918-0.67188-4.04102-0.67773-4.05176l-0.06836-0.1709c-0.04492-0.14941-1.22461-3.82227-7.27148-4.03516
		c-0.13379-0.00391-0.2666-0.00684-0.39551-0.00684c-5.50391,0-5.98633,4.29883-6.00488,4.48145l-0.10449,1.07324l-1.0293-0.31836
		c-0.35645-0.1123-0.72168-0.16895-1.08691-0.16895c-2.28418,0-4.8291,2.33008-5.02051,7.44727
		c-0.21875,5.86816,6.03711,10.40625,6.10059,10.45117l0.77832,0.55566l-0.62305,0.72559
		c-0.00293,0.00293-1.43457,1.67285-3.40137,4.05762c-4.32129,4.90918-6.4043,8.74805-7.64844,11.04199l-0.40234,0.7373
		c-0.76172,1.37695,0.23926,2.09961,0.56348,2.28809c0.11523,0.07227,7.30762,4.68359,11.0293,4.79492
		c1.95898,0.05859,3.3457,0.52051,4.12109,1.37305c0.63574,0.69824,0.625,1.40039,0.61621,1.53418l0.13086,4.28711l-0.17773,0.24316
		c-0.03418,0.04688-3.43164,4.74805-3.54297,8.90527c-0.11035,4.10449,3.75879,8.63867,3.79785,8.68457l0.22559,0.26074
		l-0.09863,2.01855L511.73438,1118.21228z"/>
</g>
<g>
	<path fill="#504F4E" d="M508.30176,1063.20056v-1.28027c-0.00098-0.04395-0.02637-1.47949-0.77344-2.72461
		c-1.01855-1.69824-0.96484-3.8584-0.96289-3.94922l1.74609-0.06055c-0.00879-0.08691-0.03418-0.13574-0.03516-0.13672
		c0.11523,0.21582,0.80859,0.79297,1.47949,1.23535c0.48047,0.19727,1.79883,0.94238,1.73242,3.14551
		c-0.07617,2.52441-1.91406,3.27246-1.99219,3.30273L508.30176,1063.20056z M508.74414,1057.71423
		c0.0791,0.19922,0.17383,0.39551,0.28418,0.58105c0.30371,0.50586,0.51758,1.02734,0.66797,1.51172
		c0.02246-0.13086,0.03809-0.27344,0.04199-0.42969c0.03613-1.19922-0.57031-1.44824-0.63965-1.47266l-0.2168-0.10059
		C508.83594,1057.7738,508.78906,1057.74353,508.74414,1057.71423z"/>
</g>
<g>
	<path fill="#504F4E" d="M507.7168,1053.75427l-1.29395-0.70703c-0.18262-0.09863-1.0957-0.68359-1.17383-2.43457
		c-0.08301-1.87988,1.0918-2.47754,1.22559-2.53906l1.24219-0.57422V1053.75427z"/>
</g>
<g>
	<path fill="#504F4E" d="M511.46094,1088.37341l-1.75195-0.74805l-0.1123-0.10547c-2.78418-2.60645-6.0752-3.96289-7.36133-4.4248
		l-1.57129-0.56445l1.3584-0.9707c1.9873-1.41895,4.13477-3.90527,4.15625-3.92969l0.60059-0.69824l0.66699,0.63574
		c4.12207,3.93359,4.04883,9.28711,4.04395,9.5127L511.46094,1088.37341z M504.25781,1082.02087
		c1.41309,0.62012,3.37988,1.63867,5.2832,3.14551c-0.28613-1.53418-0.9834-3.75684-2.67773-5.68164
		C506.2627,1080.13416,505.30469,1081.12244,504.25781,1082.02087z"/>
</g>
</svg>
