<?xml version="1.0" encoding="utf-8"?>
<!-- Generator: Adobe Illustrator 18.0.0, SVG Export Plug-In . SVG Version: 6.00 Build 0)  -->
<!DOCTYPE svg PUBLIC "-//W3C//DTD SVG 1.1//EN" "http://www.w3.org/Graphics/SVG/1.1/DTD/svg11.dtd">
<svg version="1.1" id="Calque_1" xmlns="http://www.w3.org/2000/svg" xmlns:xlink="http://www.w3.org/1999/xlink" x="0px" y="0px"
	 viewBox="587.66669 1034.92004 77.33334 77.33334" enable-background="new 587.66669 1034.92004 77.33334 77.33334"
	 xml:space="preserve">
<g>
	<rect x="585.80597" y="1033.09631" fill="#FFFFFF" width="81.05478" height="80.98083"/>
</g>
<g>
	<path fill="#504F4E" d="M632.62988,1119.96228h-16.81152l0.84863-3.39453l0.04297-1.07129
		c-0.89844-1.11621-4.11035-5.40625-3.99805-9.60254c0.11133-4.1709,2.94922-8.5498,3.70313-9.6416l-0.11133-3.77832
		c-0.02344-0.30859-0.61816-1.05469-3.04297-1.12598c-4.20605-0.12598-11.57031-4.84766-11.88184-5.04883
		c-1.12305-0.62207-2.42188-2.40137-1.18945-4.62988l0.39844-0.73145c1.28027-2.3584,3.42188-6.30469,7.85156-11.33691
		c1.20605-1.46094,2.21387-2.65918,2.81348-3.36621c-1.82324-1.51758-6.29004-5.81738-6.08301-11.35352
		c0.25195-6.73926,4.15332-9.51367,7.45117-9.08887c0.51758-1.76172,2.27832-5.33301,8-5.10254
		c6.91504,0.24316,8.62793,4.51074,8.86426,5.21387c0.17285,0.36426,0.71191,1.71191,0.83398,4.58887
		c0.22656,0.57031,0.84766,1.49902,1.20801,1.98145c0.15918,0.17285,0.81543,0.99316,0.5752,1.83594
		c-0.07715,0.27051-0.31348,0.75488-1.0293,0.96484l-0.42871,0.12598l-0.19336,3.04492
		c0.05371,0.3584,0.00195,0.84668-0.30469,1.27148c-0.41797,0.5791-1.16699,0.88867-2.22559,0.9209
		c-1.42383,0.04102-2.45117,0.51563-2.78906,0.69336c-0.20703,0.31543-0.78027,1.42676-0.02539,3.17285
		c0.62891,2.05469,4.63867,5.37793,6.13477,6.49316l0.08008,0.06738c0.32129,0.30566,0.73047,0.62305,1.16309,0.95801
		c0.95898,0.74316,2.15234,1.66699,3.13867,3.05762c1.50781,2.12695,1.9209,5.07813-0.17383,7.35156
		c5.5,2.94824,8.29102,6.80371,8.99707,12.36035c0.57422,4.5166-0.28223,6.48633-0.49805,6.89551
		c-0.24512,0.57324-2.43945,5.39551-7.5,7.28711l3.4541,5.20996L632.62988,1119.96228z M618.06055,1118.21228h13.95801
		l5.53809-4.39844l-3.88477-5.86035l1.18555-0.30859c5.2627-1.37012,7.4707-6.61621,7.49219-6.66895l0.05566-0.1123
		c0.00098-0.00195,0.8418-1.62305,0.30469-5.85059c-0.68066-5.35352-3.42578-8.82129-9.18066-11.59375l-1.31641-0.63379
		l1.18066-0.86133c3.09766-2.25781,1.21191-5.25391,0.80176-5.83203c-0.83594-1.17773-1.87012-1.97852-2.78223-2.68555
		c-0.4541-0.35156-0.88281-0.68359-1.25977-1.03711c-0.76563-0.57422-5.83691-4.45898-6.6875-7.26465
		c-1.30859-3.01563,0.34961-4.94336,0.4209-5.02441l0.18555-0.1582c0.06152-0.03906,1.5459-0.96777,3.79688-1.03418
		c0.58984-0.01758,0.82324-0.14941,0.8584-0.19434l-0.0459-0.15039l0.01563-0.09375l0.27734-4.38086l1.28418-0.37891
		c-0.0293-0.04199-0.05957-0.08105-0.08398-0.1084c-0.16699-0.2168-1.21973-1.63672-1.55469-2.64063l-0.04395-0.24512
		c-0.10742-2.90918-0.6709-4.04004-0.67676-4.05176l-0.06934-0.1709c-0.04492-0.14941-1.22363-3.82227-7.27051-4.03516
		c-5.90234-0.16211-6.38379,4.28223-6.40039,4.4707l-0.09473,1.08594l-1.04004-0.32715
		c-0.35645-0.1123-0.72168-0.16895-1.08691-0.16895c-2.2832,0-4.82813,2.33008-5.01953,7.44727
		c-0.21777,5.85059,6.03711,10.40625,6.10059,10.45117l0.77441,0.55664l-0.62012,0.72461
		c-0.00195,0.00293-1.43359,1.67285-3.40137,4.05762c-4.31738,4.90527-6.40039,8.74414-7.64551,11.03711l-0.40527,0.74219
		c-0.79395,1.4375,0.3252,2.15527,0.55762,2.28418c0.12207,0.07617,7.31445,4.6875,11.03516,4.79883
		c1.95898,0.05859,3.3457,0.52051,4.12207,1.37305c0.63574,0.69824,0.625,1.40039,0.61621,1.5332l0.12988,4.28809l-0.17773,0.24316
		c-0.03418,0.04688-3.43164,4.74805-3.54199,8.90527c-0.11035,4.10449,3.75879,8.63867,3.79785,8.68457l0.22559,0.26074
		l-0.09863,2.01855L618.06055,1118.21228z"/>
</g>
<g>
	<path fill="#504F4E" d="M614.62695,1063.20056v-1.28027c-0.00098-0.04395-0.02637-1.48047-0.77246-2.72461
		c-1.01953-1.69824-0.96484-3.8584-0.96289-3.94922l1.74609-0.06055c-0.00879-0.08691-0.03418-0.13574-0.03516-0.13672
		c0.11523,0.21582,0.80762,0.79297,1.47852,1.23535c0.48047,0.19727,1.7998,0.94238,1.7334,3.14551
		c-0.07813,2.52441-1.91504,3.27246-1.99316,3.30273L614.62695,1063.20056z M615.07031,1057.71423
		c0.0791,0.2002,0.17285,0.39551,0.28418,0.58105c0.30371,0.50586,0.51758,1.02734,0.66699,1.5127
		c0.02344-0.13086,0.03906-0.27441,0.04297-0.43066c0.03613-1.19922-0.57129-1.44824-0.64063-1.47266l-0.2168-0.10059
		C615.16113,1057.7738,615.11523,1057.74451,615.07031,1057.71423z"/>
</g>
<g>
	<path fill="#504F4E" d="M617.78711,1088.37244l-1.75293-0.74707l-0.1123-0.10547c-2.78516-2.60645-6.0752-3.96289-7.36035-4.4248
		l-1.57129-0.56445l1.3584-0.9707c1.9873-1.41895,4.13477-3.90527,4.15625-3.92969l0.60059-0.69824l0.66699,0.63574
		c4.12207,3.93359,4.04883,9.28711,4.04395,9.5127L617.78711,1088.37244z M610.58398,1082.02087
		c1.41309,0.62012,3.37891,1.63867,5.2832,3.14648c-0.28613-1.53418-0.98242-3.75684-2.67773-5.68262
		C612.58887,1080.13416,611.63086,1081.12244,610.58398,1082.02087z"/>
</g>
<g>
	
		<rect x="624.33374" y="1015.5343" transform="matrix(0.70711 0.70711 -0.70711 0.70711 942.58942 -128.43837)" fill="#504F4E" width="3.99957" height="116.105"/>
</g>
</svg>
