<?xml version="1.0" encoding="utf-8"?>
<!-- Generator: Adobe Illustrator 18.0.0, SVG Export Plug-In . SVG Version: 6.00 Build 0)  -->
<!DOCTYPE svg PUBLIC "-//W3C//DTD SVG 1.1//EN" "http://www.w3.org/Graphics/SVG/1.1/DTD/svg11.dtd">
<svg version="1.1" id="Calque_1" xmlns="http://www.w3.org/2000/svg" xmlns:xlink="http://www.w3.org/1999/xlink" x="0px" y="0px"
	 viewBox="-752.32758 928.40918 77.33334 77.33334" enable-background="new -752.32758 928.40918 77.33334 77.33334"
	 xml:space="preserve">
<rect x="-754.18829" y="927.56641" fill="#FFFFFF" width="81.05478" height="80.98083"/>
<g>
	
		<rect x="-724.58191" y="949.56299" transform="matrix(0.75763 0.65269 -0.65269 0.75763 460.62662 703.71527)" fill="#FFFFFF" width="14.75402" height="45.01177"/>
	<path fill="#504F4E" d="M-726.21338,995.16931l-12.50391-10.77246l30.521-35.42871l12.50342,10.77246L-726.21338,995.16931z
		 M-736.24951,984.21326l9.85254,8.4873l28.23633-32.77637l-9.85205-8.4873L-736.24951,984.21326z"/>
</g>
<g>
	<line fill="#504F4E" x1="-739.16425" y1="983.13977" x2="-724.86292" y2="995.46021"/>
	<path fill="#504F4E" d="M-724.86328,996.33533c-0.20215,0-0.40527-0.06934-0.5708-0.21191l-14.30127-12.32031
		c-0.36572-0.31543-0.40723-0.86816-0.0918-1.23438c0.31543-0.36719,0.86719-0.4082,1.23438-0.0918l14.30127,12.32031
		c0.36572,0.31543,0.40723,0.86816,0.0918,1.23438C-724.37305,996.23279-724.61719,996.33533-724.86328,996.33533z"/>
</g>
<g>
	<line fill="#504F4E" x1="-743.9137" y1="990.77203" x2="-731.74933" y2="1001.25153"/>
	<path fill="#504F4E" d="M-731.75,1002.12634c-0.20215,0-0.40527-0.06934-0.5708-0.21191l-12.16406-10.47949
		c-0.36572-0.31543-0.40723-0.86816-0.0918-1.23438c0.31543-0.36523,0.8667-0.4082,1.23438-0.0918l12.16406,10.47949
		c0.36572,0.31543,0.40723,0.86816,0.0918,1.23438C-731.25977,1002.0238-731.50391,1002.12634-731.75,1002.12634z"/>
</g>
<g>
	<line fill="#504F4E" x1="-734.81952" y1="986.73962" x2="-740.46564" y2="993.29352"/>
	<path fill="#504F4E" d="M-740.46631,994.16833c-0.20215,0-0.40527-0.06934-0.5708-0.21191
		c-0.36572-0.31543-0.40723-0.86816-0.0918-1.23438l5.64648-6.55371c0.31543-0.36621,0.8667-0.40918,1.23438-0.0918
		c0.36572,0.31543,0.40723,0.86816,0.0918,1.23438l-5.64648,6.55371C-739.97607,994.0658-740.22021,994.16833-740.46631,994.16833z"
		/>
</g>
<g>
	<line fill="#504F4E" x1="-729.55927" y1="991.2713" x2="-735.20538" y2="997.8252"/>
	<path fill="#504F4E" d="M-735.20605,998.70056c-0.20215,0-0.40527-0.06934-0.5708-0.21191
		c-0.36572-0.31543-0.40723-0.86816-0.0918-1.23438l5.64648-6.55469c0.31543-0.36523,0.8667-0.40918,1.23438-0.0918
		c0.36572,0.31543,0.40723,0.86816,0.0918,1.23438l-5.64648,6.55469C-734.71582,998.59705-734.95996,998.70056-735.20605,998.70056z
		"/>
</g>
<g>
	
		<rect x="-704.99774" y="950.30865" transform="matrix(0.75763 0.65269 -0.65269 0.75763 452.15686 688.36163)" fill="#FFFFFF" width="8.46186" height="5.35854"/>
	<path fill="#504F4E" d="M-699.21826,959.01404l-7.73682-6.66602l4.63965-5.38574l7.73682,6.66504L-699.21826,959.01404z
		 M-704.4873,952.16443l5.08545,4.38086l2.35547-2.73438l-5.08545-4.37988L-704.4873,952.16443z"/>
</g>
<g>
	<line fill="#504F4E" x1="-699.01807" y1="950.95801" x2="-686.70703" y2="936.6676"/>
	<path fill="#504F4E" d="M-699.01855,951.83337c-0.20215,0-0.40527-0.06934-0.5708-0.21191
		c-0.36572-0.31543-0.40723-0.86816-0.0918-1.23438l12.31104-14.29102c0.31543-0.36523,0.8667-0.40918,1.23438-0.0918
		c0.36572,0.31543,0.40723,0.86816,0.0918,1.23438l-12.31104,14.29102
		C-698.52832,951.72986-698.77246,951.83337-699.01855,951.83337z"/>
</g>
</svg>
