<?xml version="1.0" encoding="utf-8"?>
<!-- Generator: Adobe Illustrator 18.0.0, SVG Export Plug-In . SVG Version: 6.00 Build 0)  -->
<!DOCTYPE svg PUBLIC "-//W3C//DTD SVG 1.1//EN" "http://www.w3.org/Graphics/SVG/1.1/DTD/svg11.dtd">
<svg version="1.1" id="Calque_1" xmlns="http://www.w3.org/2000/svg" xmlns:xlink="http://www.w3.org/1999/xlink" x="0px" y="0px"
	 viewBox="719.67633 928.40918 77.33334 77.33334" enable-background="new 719.67633 928.40918 77.33334 77.33334"
	 xml:space="preserve">
<g>
	<rect x="718.2226" y="926.56641" fill="#FFFFFF" width="81.05478" height="80.98083"/>
</g>
<g>
	<path fill="#504F4E" d="M744.80469,999.64099c-2.40137,0-4.35547-1.9541-4.35547-4.35547s1.9541-4.35449,4.35547-4.35449
		s4.35449,1.95313,4.35449,4.35449S747.20605,999.64099,744.80469,999.64099z M744.80469,992.68103
		c-1.43652,0-2.60547,1.16797-2.60547,2.60449s1.16895,2.60547,2.60547,2.60547s2.60449-1.16895,2.60449-2.60547
		S746.24121,992.68103,744.80469,992.68103z"/>
</g>
<g>
	<path fill="#504F4E" d="M772.9082,999.64099c-2.40137,0-4.35449-1.9541-4.35449-4.35547s1.95313-4.35449,4.35449-4.35449
		s4.35547,1.95313,4.35547,4.35449S775.30957,999.64099,772.9082,999.64099z M772.9082,992.68103
		c-1.43652,0-2.60449,1.16797-2.60449,2.60449s1.16797,2.60547,2.60449,2.60547s2.60547-1.16895,2.60547-2.60547
		S774.34473,992.68103,772.9082,992.68103z"/>
</g>
<g>
	<path fill="#504F4E" d="M738.46777,973.79041c-0.42773,0-0.80078-0.31348-0.86523-0.74805l-2.99805-20.50098l-7.92383-1.10645
		c-0.47852-0.06641-0.8125-0.50879-0.74512-0.9873c0.06641-0.47852,0.50684-0.81152,0.9873-0.74512l8.57324,1.19629
		c0.38477,0.05371,0.68848,0.35449,0.74512,0.73926l3.09375,21.15039c0.06934,0.47852-0.26172,0.92285-0.73926,0.99316
		C738.55273,973.78748,738.50977,973.79041,738.46777,973.79041z"/>
</g>
<g>
	<path fill="#504F4E" d="M778.54199,978.47302h-39.34277c-0.43359,0-0.80273-0.31836-0.86523-0.74707l-2.88867-19.58301
		c-0.03711-0.25195,0.03711-0.50684,0.20313-0.7002c0.16602-0.19238,0.4082-0.30273,0.66211-0.30273h51.25195
		c0.29785,0,0.57617,0.15234,0.7373,0.40332c0.16016,0.25098,0.18262,0.56641,0.05762,0.83789l-9.02051,19.58301
		C779.19336,978.27478,778.88379,978.47302,778.54199,978.47302z M739.95508,976.72302h38.02637l8.21484-17.83301h-48.87207
		L739.95508,976.72302z"/>
</g>
<g>
	<path fill="#504F4E" d="M787.5625,958.89001H760.25c-0.4834,0-0.875-0.3916-0.875-0.875v-22.91699
		c0-0.4834,0.3916-0.875,0.875-0.875c17.91309,0,28.1875,8.67188,28.1875,23.79199
		C788.4375,958.49841,788.0459,958.89001,787.5625,958.89001z M761.125,957.14001h25.5498
		c-0.3877-13.22656-9.6377-20.88965-25.5498-21.15918V957.14001z"/>
</g>
<g>
	<path fill="#504F4E" d="M747.00098,993.01501c-0.29297,0-0.5791-0.14746-0.74512-0.41504
		c-0.25391-0.41016-0.12695-0.9502,0.28418-1.2041l23.5-14.54199c0.4082-0.25391,0.94922-0.12695,1.2041,0.28418
		c0.25391,0.41016,0.12695,0.9502-0.28418,1.2041l-23.5,14.54199C747.31738,992.97302,747.1582,993.01501,747.00098,993.01501z"/>
</g>
<g>
	<path fill="#504F4E" d="M770.49902,993.01501c-0.15723,0-0.31641-0.04199-0.45898-0.13086l-23.5-14.54199
		c-0.41113-0.25391-0.53809-0.79395-0.28418-1.2041c0.25488-0.41113,0.7959-0.53809,1.2041-0.28418l23.5,14.54199
		c0.41113,0.25391,0.53809,0.79395,0.28418,1.2041C771.07813,992.86755,770.79199,993.01501,770.49902,993.01501z"/>
</g>
</svg>
