<?xml version="1.0" encoding="utf-8"?>
<!-- Generator: Adobe Illustrator 18.0.0, SVG Export Plug-In . SVG Version: 6.00 Build 0)  -->
<!DOCTYPE svg PUBLIC "-//W3C//DTD SVG 1.1//EN" "http://www.w3.org/Graphics/SVG/1.1/DTD/svg11.dtd">
<svg version="1.1" id="Calque_1" xmlns="http://www.w3.org/2000/svg" xmlns:xlink="http://www.w3.org/1999/xlink" x="0px" y="0px"
	 viewBox="-500.70108 928.40918 77.33334 77.33334" enable-background="new -500.70108 928.40918 77.33334 77.33334"
	 xml:space="preserve">
<rect x="-502.61053" y="927.56641" fill="#FFFFFF" width="81.05478" height="80.98083"/>
<g>
	<path fill="#504F4E" d="M-462.08447,1001.89685c-18.62988,0-33.81006-15.15723-33.83887-33.78809
		c-0.02881-18.6582,15.12793-33.8623,33.7876-33.8916c18.68359,0,33.86377,15.15625,33.89258,33.78711
		c0.02881,18.65918-15.12793,33.86328-33.7876,33.89258H-462.08447z M-462.08203,935.96716
		c-17.74561,0.02734-32.11865,14.44531-32.09131,32.13965c0.02734,17.66699,14.42236,32.04004,32.08887,32.04004v0.875
		l0.05078-0.875c17.69482-0.02734,32.06787-14.44531,32.04053-32.14063
		C-430.02051,950.34021-444.41553,935.96716-462.08203,935.96716z"/>
</g>
<g>
	<path fill="#504F4E" d="M-462.08301,942.9906c-0.4834,0-0.875-0.3916-0.875-0.875v-6.59375c0-0.4834,0.3916-0.875,0.875-0.875
		s0.875,0.3916,0.875,0.875v6.59375C-461.20801,942.599-461.59961,942.9906-462.08301,942.9906z"/>
</g>
<g>
	<path fill="#504F4E" d="M-462.08301,1001.32849c-0.4834,0-0.875-0.3916-0.875-0.875v-6.59375c0-0.4834,0.3916-0.875,0.875-0.875
		s0.875,0.3916,0.875,0.875v6.59375C-461.20801,1000.93689-461.59961,1001.32849-462.08301,1001.32849z"/>
</g>
<g>
	<path fill="#504F4E" d="M-480.37744,950.56775c-0.22412,0-0.44775-0.08496-0.61865-0.25586l-4.6626-4.66211
		c-0.3418-0.3418-0.3418-0.89648,0-1.23828c0.3418-0.33984,0.89551-0.3418,1.2373,0l4.6626,4.66211
		c0.3418,0.3418,0.3418,0.89648,0,1.23828C-479.92969,950.48181-480.15332,950.56775-480.37744,950.56775z"/>
</g>
<g>
	<path fill="#504F4E" d="M-439.12646,991.8197c-0.22412,0-0.44775-0.08496-0.61865-0.25586l-4.66211-4.66211
		c-0.3418-0.3418-0.3418-0.89648,0-1.23828s0.89551-0.3418,1.2373,0l4.66211,4.66211c0.3418,0.3418,0.3418,0.89648,0,1.23828
		C-438.67871,991.73474-438.90234,991.8197-439.12646,991.8197z"/>
</g>
<g>
	<path fill="#504F4E" d="M-487.95557,968.86267h-6.59326c-0.4834,0-0.875-0.3916-0.875-0.875s0.3916-0.875,0.875-0.875h6.59326
		c0.4834,0,0.875,0.3916,0.875,0.875S-487.47217,968.86267-487.95557,968.86267z"/>
</g>
<g>
	<path fill="#504F4E" d="M-429.61719,968.86267h-6.59375c-0.4834,0-0.875-0.3916-0.875-0.875s0.3916-0.875,0.875-0.875h6.59375
		c0.4834,0,0.875,0.3916,0.875,0.875S-429.13379,968.86267-429.61719,968.86267z"/>
</g>
<g>
	<path fill="#504F4E" d="M-485.04004,991.8197c-0.22412,0-0.44775-0.08496-0.61865-0.25586c-0.3418-0.3418-0.3418-0.89648,0-1.23828
		l4.6626-4.66211c0.3418-0.3418,0.89551-0.3418,1.2373,0s0.3418,0.89648,0,1.23828l-4.6626,4.66211
		C-484.59229,991.73474-484.81592,991.8197-485.04004,991.8197z"/>
</g>
<g>
	<path fill="#504F4E" d="M-443.78857,950.56775c-0.22412,0-0.44775-0.08496-0.61865-0.25586
		c-0.3418-0.3418-0.3418-0.89648,0-1.23828l4.66211-4.66211c0.3418-0.3418,0.89551-0.3418,1.2373,0s0.3418,0.89648,0,1.23828
		l-4.66211,4.66211C-443.34082,950.48279-443.56445,950.56775-443.78857,950.56775z"/>
</g>
<g>
	<path fill="#504F4E" d="M-461.65283,972.22986c-0.17383,0-0.34912-0.05176-0.50244-0.15918l-21.05664-14.80273
		c-0.39502-0.27832-0.49023-0.82324-0.2124-1.21875c0.27832-0.39551,0.82324-0.49023,1.21924-0.21289l21.05664,14.80273
		c0.39502,0.27832,0.49023,0.82324,0.2124,1.21875C-461.10645,972.09998-461.37744,972.22986-461.65283,972.22986z"/>
</g>
<g>
	<path fill="#504F4E" d="M-461.65234,972.22986c-0.19873,0-0.39844-0.06738-0.5625-0.20508
		c-0.36963-0.31055-0.41797-0.8623-0.10693-1.23242l12.43359-14.80273c0.31104-0.37012,0.86328-0.41699,1.23291-0.10742
		c0.36963,0.31055,0.41797,0.8623,0.10693,1.23242l-12.43359,14.80273
		C-461.15479,972.12341-461.40283,972.22986-461.65234,972.22986z"/>
</g>
</svg>
