<?xml version="1.0" encoding="utf-8"?>
<!-- Generator: Adobe Illustrator 18.0.0, SVG Export Plug-In . SVG Version: 6.00 Build 0)  -->
<!DOCTYPE svg PUBLIC "-//W3C//DTD SVG 1.1//EN" "http://www.w3.org/Graphics/SVG/1.1/DTD/svg11.dtd">
<svg version="1.1" id="Calque_1" xmlns="http://www.w3.org/2000/svg" xmlns:xlink="http://www.w3.org/1999/xlink" x="0px" y="0px"
	 viewBox="364.34299 925.94659 77.33334 77.33334" enable-background="new 364.34299 925.94659 77.33334 77.33334"
	 xml:space="preserve">
<rect x="362.34296" y="924.56641" fill="#FFFFFF" width="81.05478" height="80.98083"/>
<g>
	<g>
		<g>
			<path fill="#504F4E" d="M398.24609,985.14294l-0.21094-0.83398c-1.00098-3.96289-0.68457-8.05273,0.91504-11.82617
				c2.92871-6.90332,9.66602-11.36328,17.16406-11.36328c2.5,0,4.94336,0.49805,7.26465,1.48145
				c3.76758,1.59668,6.83691,4.31543,8.875,7.86133l0.42871,0.74609L398.24609,985.14294z M416.11426,962.61951
				c-6.89551,0-13.09082,4.10156-15.7832,10.44922c-1.35742,3.20215-1.70996,6.65332-1.03223,10.03027l31.20605-12.62695
				c-1.86328-2.90039-4.51367-5.13477-7.71191-6.49023C420.65918,963.07751,418.41211,962.61951,416.11426,962.61951z"/>
		</g>
	</g>
	<g>
		<g>
			<path fill="#504F4E" d="M416.09766,998.39294c-0.00098,0-0.00098,0-0.00098,0c-2.5,0-4.94336-0.49805-7.26465-1.48145
				c-3.72461-1.58008-6.76758-4.25293-8.7998-7.73145l-0.4375-0.74805l34.40918-13.92578l0.20508,0.84277
				c0.95605,3.92188,0.62793,7.95996-0.94727,11.67773C430.33496,993.93103,423.59766,998.39294,416.09766,998.39294z
				 M401.78516,989.16345c1.85352,2.83691,4.47656,5.02832,7.63281,6.36719c2.13379,0.9043,4.38086,1.3623,6.67871,1.3623
				c6.89746,0.00098,13.09277-4.10254,15.78418-10.45215c1.33496-3.14941,1.69531-6.54883,1.05664-9.88477L401.78516,989.16345z"/>
		</g>
	</g>
</g>
<g>
	<path fill="#504F4E" d="M400.58395,989.25879l0.01703-0.00671l4.31509-7.14557l-2.37628,0.9411l-4.1261,6.83252
		c-2.4314,4.02167-6.86264,6.49805-11.56488,6.46326h-0.00104c-2.39188-0.01788-4.74466-0.68475-6.80432-1.92865
		c-3.05838-1.8454-5.21472-4.77216-6.07166-8.24109c-0.85712-3.46973-0.31119-7.06464,1.53754-10.12299l10.52539-17.43085
		l16.54401,9.97198c0.34827-0.4007,0.71259-0.78394,1.09186-1.1488l-16.83881-10.1496l0.14725-0.24762l10.68857-17.6994
		c2.4314-4.02148,6.86325-6.49805,11.56607-6.4632c2.39151,0.0177,4.7442,0.68439,6.80408,1.92847
		c3.05856,1.8454,5.21481,4.77228,6.07178,8.24127c0.85709,3.46967,0.31116,7.06458-1.53757,10.12299l-5.61618,9.30084
		c0.60376-0.03845,1.21152-0.04553,1.82098-0.02185l5.11975-8.47876c2.06247-3.41193,2.67181-7.4231,1.71552-11.29437
		c-0.95618-3.87048-3.36215-7.13617-6.77444-9.19501c-2.29749-1.38757-4.923-2.13141-7.59244-2.15118
		c-5.24585-0.03888-10.18961,2.72375-12.90216,7.21039l-11.08765,18.36023l-0.39664,0.66724l-10.67398,17.67694
		c-2.06256,3.41199-2.67175,7.4231-1.71536,11.29437c0.95615,3.87048,3.36206,7.13599,6.77429,9.19489
		c2.2973,1.38739,4.92276,2.13141,7.59259,2.15131c0.00058,0,0.00043,0,0.00043,0
		c5.24554,0.03888,10.18918-2.72394,12.90164-7.21033l0.85211-1.41101C400.58835,989.26593,400.58603,989.26245,400.58395,989.25879
		z"/>
</g>
</svg>
