<?xml version="1.0" encoding="utf-8"?>
<!-- Generator: Adobe Illustrator 18.0.0, SVG Export Plug-In . SVG Version: 6.00 Build 0)  -->
<!DOCTYPE svg PUBLIC "-//W3C//DTD SVG 1.1//EN" "http://www.w3.org/Graphics/SVG/1.1/DTD/svg11.dtd">
<svg version="1.1" id="Calque_1" xmlns="http://www.w3.org/2000/svg" xmlns:xlink="http://www.w3.org/1999/xlink" x="0px" y="0px"
	 viewBox="-624.72144 928.40918 77.33334 77.33334" enable-background="new -624.72144 928.40918 77.33334 77.33334"
	 xml:space="preserve">
<rect x="-626.15442" y="927.59747" fill="#FFFFFF" width="81.05478" height="80.98083"/>
<g>
	<path fill="#504F4E" d="M-566.11731,976.08691c-0.31207,0-0.60645-0.19019-0.72406-0.49969l-10.5163-27.65765
		c-0.09033-0.23773-0.05835-0.50488,0.08649-0.71497c0.14435-0.20923,0.38293-0.33459,0.63757-0.33459h7.70093
		c0.42798,0,0.77466,0.34668,0.77466,0.7746c0,0.42798-0.34668,0.77466-0.77466,0.77466h-6.57788l10.11731,26.60809
		c0.15216,0.39941-0.04883,0.84723-0.44867,0.99854C-565.93274,976.0705-566.02563,976.08691-566.11731,976.08691z"/>
</g>
<g>
	<path fill="#504F4E" d="M-574.2569,953.90607"/>
</g>
<g>
	<path fill="#504F4E" d="M-587.89557,977.90851c-0.04456,0-0.08997-0.00348-0.13489-0.01208
		c-0.27234-0.04761-0.49841-0.23779-0.59308-0.49799l-10.26776-28.23688c-0.14612-0.40204,0.0614-0.84644,0.46338-0.99255
		c0.40332-0.14697,0.84637,0.0614,0.99249,0.46344l9.80957,26.97552l14.60431-17.39117
		c0.27539-0.3277,0.76428-0.37006,1.09106-0.09515c0.32764,0.27496,0.37042,0.76343,0.09509,1.09106l-15.4671,18.41913
		C-587.45081,977.80908-587.66907,977.90851-587.89557,977.90851z"/>
</g>
<g>
	<path fill="#504F4E" d="M-587.89471,977.90851c-0.02551,0-0.05145-0.00085-0.07739-0.00348l-18.38281-1.82159
		c-0.25073-0.02509-0.47418-0.17029-0.59784-0.39075c-0.12402-0.2196-0.13354-0.4859-0.02509-0.71326l10.18524-21.40613
		c0.12836-0.26971,0.4007-0.44177,0.6994-0.44177h21.83624c0.42792,0,0.7746,0.34668,0.7746,0.7746
		c0,0.42798-0.34668,0.77466-0.7746,0.77466h-21.34692l-9.50177,19.96924l17.28656,1.71265
		c0.42578,0.04236,0.73657,0.42194,0.69421,0.84729C-587.16418,977.61023-587.50134,977.90851-587.89471,977.90851z"/>
</g>
<g>
	<path fill="#504F4E" d="M-605.28491,962.70172c6.67957,0,12.11383,5.43427,12.11383,12.11383
		c0,6.67963-5.43427,12.11383-12.11383,12.11383c-6.67963,0-12.11383-5.4342-12.11383-12.11383
		C-617.39874,968.13599-611.96454,962.70172-605.28491,962.70172 M-605.28491,961.15247
		c-7.54596,0-13.66315,6.11719-13.66315,13.66309c0,7.54596,6.11719,13.66309,13.66315,13.66309
		c7.5459,0,13.66309-6.11713,13.66309-13.66309C-591.62183,967.26965-597.73901,961.15247-605.28491,961.15247L-605.28491,961.15247
		z"/>
</g>
<g>
	<path fill="#504F4E" d="M-566.36578,962.70172c6.67957,0,12.11383,5.43427,12.11383,12.11383
		c0,6.67963-5.43427,12.11383-12.11383,12.11383c-6.67963,0-12.11383-5.4342-12.11383-12.11383
		C-578.47961,968.13599-573.04541,962.70172-566.36578,962.70172 M-566.36578,961.15247
		c-7.5459,0-13.66309,6.11719-13.66309,13.66309c0,7.54596,6.11719,13.66309,13.66309,13.66309s13.66309-6.11713,13.66309-13.66309
		C-552.7027,967.26965-558.81989,961.15247-566.36578,961.15247L-566.36578,961.15247z"/>
</g>
<g>
	<path fill="#504F4E" d="M-593.8576,946.57849c0,0-2.56702,2.15295-3.64349,2.3186c-1.07648,0.16559-5.05121,0-4.96838-2.3186
		c0.08276-2.3186,3.89191-0.91089,3.89191-0.91089h2.23578C-596.3418,945.6676-593.69202,945.2536-593.8576,946.57849z"/>
	<path fill="#504F4E" d="M-598.26929,949.38629c-0.66614,0-2.9256-0.08905-4.03741-1.24146
		c-0.42316-0.43835-0.6272-0.97089-0.60516-1.58215c0.03979-1.11957,0.82001-1.76105,2.13977-1.76105
		c0.96655,0,1.98413,0.32507,2.27069,0.42365h2.15576c-0.01385-0.00262,0.38776-0.0614,0.86926-0.0614
		c0.86371,0,1.46802,0.18848,1.79565,0.56024c0.21576,0.24377,0.30652,0.55847,0.26239,0.90948l-0.02161,0.17206l-0.13312,0.11151
		c-0.27234,0.22913-2.69568,2.23828-3.86108,2.41724C-597.65155,949.36816-597.94806,949.38629-598.26929,949.38629z
		 M-600.77209,945.68695c-1.2229,0-1.24542,0.63544-1.25537,0.90686c-0.01294,0.36743,0.10419,0.67352,0.35797,0.93634
		c0.69159,0.71667,2.26379,0.97089,3.40021,0.97089c0.28918,0,0.53345-0.01556,0.70074-0.0415
		c0.65747-0.10114,2.28021-1.27869,3.26318-2.08441c-0.00989-0.02856-0.02417-0.04932-0.03888-0.06573
		c-0.05402-0.06049-0.2948-0.26019-1.13214-0.26019c-0.43011,0-0.79364,0.0553-0.79755,0.05615l-2.38263,0.00519l-0.07397-0.02765
		C-598.74133,946.07941-599.81812,945.68695-600.77209,945.68695z"/>
</g>
</svg>
