<?xml version="1.0" encoding="utf-8"?>
<!-- Generator: Adobe Illustrator 18.0.0, SVG Export Plug-In . SVG Version: 6.00 Build 0)  -->
<!DOCTYPE svg PUBLIC "-//W3C//DTD SVG 1.1//EN" "http://www.w3.org/Graphics/SVG/1.1/DTD/svg11.dtd">
<svg version="1.1" id="Calque_1" xmlns="http://www.w3.org/2000/svg" xmlns:xlink="http://www.w3.org/1999/xlink" x="0px" y="0px"
	 viewBox="111.84299 928.40918 77.33334 77.33334" enable-background="new 111.84299 928.40918 77.33334 77.33334"
	 xml:space="preserve">
<rect x="109.98228" y="927.56641" fill="#FFFFFF" width="81.05478" height="80.98083"/>
<g>
	<g>
		<g>
			<path fill="#FFFFFF" d="M117.17961,977.74377c-0.03527-14.00183,8.65357-18.24268,19.3103-18.19537
				c10.63187,0.03955,19.18422,4.34332,19.21707,18.34924"/>
			<path fill="#504F4E" d="M154.83203,977.89978c-0.02734-11.71387-6.02832-17.43066-18.3457-17.47656
				c-0.05615,0-0.11279,0-0.16895,0c-6.24219,0-10.93994,1.53027-13.96533,4.5498
				c-2.86572,2.86035-4.31152,7.15625-4.29736,12.76855l-1.75,0.00391c-0.01514-6.0957,1.60352-10.80957,4.81104-14.01074
				c3.39453-3.38867,8.52588-5.08496,15.37793-5.06152c13.2998,0.0498,20.05859,6.51758,20.08838,19.22266L154.83203,977.89978z"/>
		</g>
	</g>
	<g>
		<g>
			<path fill="#504F4E" d="M116.15037,971.2442l40.55782,0.15033 M154.73352,973.36639l-36.60589-0.13068"/>
			<path fill="#504F4E" d="M154.73145,973.86658l-36.60596-0.13086l0.00391-1l36.60596,0.13086L154.73145,973.86658z
				 M156.70605,971.8949l-40.55762-0.15039l0.00391-1l40.55762,0.15039L156.70605,971.8949z"/>
		</g>
	</g>
	<g>
		<g>
			<g>
				<polygon fill="#FFFFFF" points="142.47604,960.21246 130.32503,960.17279 130.30557,947.97491 142.45964,948.01532 				"/>
				<path fill="#504F4E" d="M143.35205,961.09021l-13.90039-0.04492l-0.02246-13.94824l13.9043,0.0459L143.35205,961.09021z
					 M131.19873,959.30115l10.40137,0.0332l-0.01465-10.44727l-10.40332-0.03418L131.19873,959.30115z"/>
			</g>
		</g>
		<g>
			<g>
				<path fill="#504F4E" d="M140.62773,954.19208c0.00888,2.06024-0.72374,3.74805-1.65425,3.73822
					c-0.91872,0.00568-1.683-1.67554-1.68454-3.76038c0.00777-2.07013,0.74577-3.74121,1.66733-3.74597
					C139.88376,950.43304,140.63332,952.12299,140.62773,954.19208z"/>
			</g>
		</g>
	</g>
	<g>
		<g>
			<g>
				<path fill="#504F4E" d="M184.68381,954.18909c-0.1503,0.09198-0.32677,0.13702-0.5231,0.15375l-37.2847-0.14856
					c-0.54813,0.00555-0.98923-0.44751-0.99095-0.9856c-0.00972-0.55066,0.43855-0.99115,0.98987-0.99609l37.27545,0.13385
					c0.55923,0.00806,0.99121,0.44653,1.0009,0.99731C185.14333,953.70117,184.96773,954.01532,184.68381,954.18909z"/>
			</g>
		</g>
		<g>
			<g>
				<path fill="#504F4E" d="M184.41644,950.46826c-0.13361,0.08179-0.28717,0.1355-0.45055,0.13208l-37.03166,2.11249
					c-0.55585,0.0304-1.01912-0.38898-1.04984-0.94952c-0.04068-0.53174,0.38248-1.01752,0.92162-1.03766l37.03905-2.09668
					c0.53206-0.03595,1.00987,0.37427,1.04333,0.93085C184.91298,949.93762,184.72983,950.27643,184.41644,950.46826z"/>
			</g>
		</g>
		<g>
			<g>
				<path fill="#504F4E" d="M181.35295,945.69305c-0.12103,0.0741-0.24632,0.10791-0.37595,0.12665l-33.94673,5.30524
					c-0.54414,0.08618-1.05533-0.28375-1.14435-0.82874c-0.08734-0.54602,0.27948-1.05768,0.82007-1.14166l33.95755-5.29169
					c0.54228-0.08502,1.05347,0.28485,1.14249,0.82983C181.87245,945.10553,181.67909,945.49341,181.35295,945.69305z"/>
			</g>
		</g>
		<g>
			<g>
				<path fill="#504F4E" d="M173.90292,940.39838c-0.0732,0.0448-0.14449,0.0683-0.2123,0.08942l-26.50938,9.03571
					c-0.51273,0.17041-1.0728-0.10669-1.25333-0.63586c-0.18599-0.5058,0.10078-1.0744,0.61194-1.24359l26.51295-9.0379
					c0.51118-0.16919,1.06926,0.10889,1.259,0.6123C174.46925,939.68134,174.27669,940.16962,173.90292,940.39838z"/>
			</g>
		</g>
		<g>
			<g>
				<path fill="#504F4E" d="M184.43611,957.91248c-0.16325,0.09991-0.35486,0.15686-0.56833,0.14154l-37.05357-2.35577
					c-0.53984-0.04254-0.95158-0.51331-0.93752-1.05847c0.03934-0.54047,0.51244-0.97375,1.05118-0.93304l37.03976,2.36646
					c0.55356,0.03162,0.96695,0.5014,0.93753,1.05853C184.88742,957.47272,184.7054,957.74768,184.43611,957.91248z"/>
			</g>
		</g>
		<g>
			<g>
				<path fill="#504F4E" d="M181.37152,962.65991c-0.19234,0.11774-0.42542,0.17731-0.65575,0.1344l-33.99222-5.5318
					c-0.52654-0.0907-0.9025-0.60632-0.82358-1.14838c0.08655-0.52911,0.59558-0.90363,1.13687-0.82172l33.97728,5.54071
					c0.54147,0.08185,0.91743,0.59747,0.81679,1.13263C181.786,962.26282,181.61154,962.513,181.37152,962.65991z"/>
			</g>
		</g>
		<g>
			<g>
				<path fill="#504F4E" d="M173.94377,967.909c-0.23643,0.14471-0.54042,0.18707-0.82539,0.09192l-26.56154-9.23309
					c-0.51973-0.17822-0.78123-0.74121-0.60596-1.26147c0.17165-0.51825,0.72545-0.79431,1.25226-0.60028l26.55276,9.21832
					c0.51869,0.17651,0.77991,0.73944,0.6066,1.25873C174.29524,967.61078,174.13988,967.78894,173.94377,967.909z"/>
			</g>
		</g>
	</g>
	<g>
		<g>
			<path fill="#FFFFFF" d="M157.00101,972.04156c-0.00963,0.95563-0.423,1.72504-0.91823,1.71838l-39.29713-0.13623
				c-0.51193,0.00354-0.91119-0.78491-0.91752-1.7334l0,0c-0.00671-0.94543,0.39764-1.72943,0.90942-1.73285l39.30606,0.15082
				C156.57903,970.31488,156.98584,971.07861,157.00101,972.04156L157.00101,972.04156z"/>
			<path fill="#504F4E" d="M156.08936,974.63513h-0.01855l-39.28809-0.13672c-1.02734,0-1.7793-1.09473-1.78955-2.60254
				c-0.00635-0.875,0.2666-1.67871,0.73047-2.14844c0.29785-0.30176,0.66064-0.46289,1.04883-0.46484l39.31445,0.15039
				c1.0166,0.01367,1.76563,1.10547,1.78906,2.59473C157.86084,973.54822,157.10938,974.63513,156.08936,974.63513z
				 M156.08594,972.88513l0.00342,0.875v-0.875C156.08838,972.88513,156.0874,972.88513,156.08594,972.88513z M116.93506,972.74939
				l38.99756,0.13477c0.07568-0.12598,0.18896-0.41992,0.19336-0.85156c-0.00684-0.4248-0.11963-0.72266-0.2002-0.85059
				l-38.99854-0.14844c-0.0752,0.12402-0.18701,0.41699-0.18408,0.85059
				C116.74609,972.32458,116.85938,972.62244,116.93506,972.74939z"/>
		</g>
	</g>
</g>
<g>
	<rect x="117.12855" y="973.48334" fill="#FFFFFF" width="38.7227" height="33.62571"/>
	<path fill="#504F4E" d="M156.72607,1007.98376h-40.47266v-35.375h40.47266V1007.98376z M118.00342,1006.23376h36.97266v-31.875
		h-36.97266V1006.23376z"/>
</g>
</svg>
