<?xml version="1.0" encoding="utf-8"?>
<!-- Generator: Adobe Illustrator 18.0.0, SVG Export Plug-In . SVG Version: 6.00 Build 0)  -->
<!DOCTYPE svg PUBLIC "-//W3C//DTD SVG 1.1//EN" "http://www.w3.org/Graphics/SVG/1.1/DTD/svg11.dtd">
<svg version="1.1" id="Calque_1" xmlns="http://www.w3.org/2000/svg" xmlns:xlink="http://www.w3.org/1999/xlink" x="0px" y="0px"
	 viewBox="238.50966 928.40918 77.33334 77.33334" enable-background="new 238.50966 928.40918 77.33334 77.33334"
	 xml:space="preserve">
<rect x="236.64894" y="926.58545" fill="#FFFFFF" width="81.05478" height="80.98083"/>
<g>
	<g>
		<polygon fill="none" points="244.64938,992.52734 277.07898,940.61725 309.50858,992.52734 		"/>
	</g>
	<g>
		<path fill="#504F4E" d="M277.07886,942.09552l31.01672,49.64899h-62.03342L277.07886,942.09552 M277.07886,939.1391
			l-33.84221,54.17181h67.68443L277.07886,939.1391L277.07886,939.1391z"/>
	</g>
</g>
<g>
	<path fill="#504F4E" d="M290.28799,989.76837h-4.14154c-0.99564,0-1.77621-0.78064-1.77621-1.77625v-1.39941h-14.62827v1.39941
		c0,0.99561-0.78058,1.77625-1.77621,1.77625h-4.14243c-0.99561,0-1.77618-0.78064-1.77618-1.77625v-9.66504
		c0-0.12585,0.05157-0.86627,0.18356-1.30768h-0.34091c-0.49301,0-0.92654-0.20544-1.19141-0.56293
		c-0.27185-0.3689-0.34003-0.86627-0.18619-1.3645l0.37585-1.0813c0.26138-0.85138,1.15121-1.51044,2.06116-1.51044h0.8147
		c1.3671-3.84784,2.17566-6.02875,2.40466-6.4859c0.73163-1.46503,2.59088-2.08392,3.70187-2.45453
		c0.05682-0.02014,1.72464-0.58655,7.16248-0.58655c5.44223,0,7.159,0.61365,7.22894,0.63983
		c1.86621,0.44061,3.15466,1.27185,3.64853,2.38196c0.28671,0.61017,1.04718,2.69843,1.85138,4.90906l0.58215,1.59613h0.86539
		c0.90994,0,1.79892,0.65906,2.06815,1.5332l0.36014,1.03583c0.16083,0.51831,0.09528,1.01044-0.1731,1.37323
		c-0.24997,0.33911-0.65643,0.53406-1.11536,0.53406l0,0l-0.46854-0.00525c0.13202,0.44055,0.18359,1.18353,0.18359,1.30945v9.71136
		C292.06421,988.98773,291.2836,989.76837,290.28799,989.76837z M268.39932,985.25006h17.31357v2.74207
		c0,0.28497,0.21854,0.43359,0.43356,0.43359h4.14154c0.28497,0,0.43356-0.21857,0.43356-0.43359v-9.71136
		c0-0.18359-0.07867-0.78845-0.12674-0.9292c-0.02362-0.05853-0.11453-0.32867-0.29285-0.8208l-0.32602-0.90033l2.41953-0.00348
		c-0.00961-0.0105-0.00961-0.06207-0.0332-0.13989l-0.36014-1.03583c-0.10226-0.32953-0.47641-0.60834-0.79282-0.60834h-1.80331
		l-0.90558-2.47986c-0.75958-2.08563-1.54367-4.24121-1.81116-4.80939c-0.31818-0.71588-1.31641-1.2998-2.81641-1.6582
		c-0.08826-0.0271-1.72287-0.57953-6.83994-0.57953c-5.12143,0-6.71667,0.51135-6.73242,0.5166
		c-0.91867,0.30591-2.44751,0.8147-2.93088,1.78143c-0.09616,0.19318-0.5332,1.24036-2.49908,6.78223l-0.15909,0.44672h-1.76224
		c-0.31641,0-0.69141,0.27881-0.78583,0.58563l-0.37585,1.0813c-0.02448,0.0813-0.01398,0.13898-0.00787,0.15033
		c0.00351,0.00085,0.03934,0.0166,0.11014,0.0166h2.28232l-0.36975,0.92133c-0.16522,0.41083-0.25,0.7019-0.25436,0.7168
		l-0.04459,0.11536c-0.03497,0.10925-0.11365,0.71417-0.11365,0.89685v9.66504c0,0.28497,0.21854,0.43359,0.43356,0.43359h4.14243
		c0.28497,0,0.43356-0.21857,0.43356-0.43359V985.25006z M286.83612,981.89783h-1.70276c-0.64948,0-2.37411,0-2.37411-1.68353
		c0-1.05768,1.07343-1.5437,2.02008-1.97198c0.14423-0.06555,0.29022-0.13116,0.43268-0.19934
		c1.25262-0.56293,2.5061-1.07776,3.28143-1.07776c0.56119,0,2.05243,0,2.05243,1.86798v1.19666
		C290.54587,981.26935,289.29764,981.89783,286.83612,981.89783z M288.49344,978.30786c-0.59439,0-2.19226,0.71765-2.71674,0.95361
		c-0.13724,0.0647-0.29108,0.13464-0.44406,0.20367c-0.36798,0.16699-1.23074,0.55682-1.23074,0.74915
		c0,0.17566,0,0.34088,1.03146,0.34088h1.70276c1.93268,0,2.3671-0.38898,2.3671-0.52533v-1.19666
		C289.20322,978.33234,289.17001,978.30786,288.49344,978.30786z M269.07065,981.89783H267.367
		c-1.01398,0-3.70886,0-3.70886-1.86798v-1.19666c0-1.86798,1.4379-1.86798,2.0524-1.86798
		c0.77448,0,2.02795,0.51483,3.26657,1.0708c0.15561,0.07428,0.30157,0.14075,0.4458,0.20538
		c0.94754,0.4292,2.02182,0.91437,2.02182,1.9729C271.33286,981.89783,269.74808,981.89783,269.07065,981.89783z
		 M265.71054,978.30786c-0.70978,0-0.70978,0.02008-0.70978,0.52533v1.19666c0,0.0542,0.06644,0.52533,2.36624,0.52533h1.70364
		c1.00699,0,1.01834-0.17041,1.0332-0.3855c-0.00174-0.14771-0.86539-0.53754-1.23425-0.70453
		c-0.1521-0.06903-0.30594-0.13898-0.4563-0.21063C267.90195,979.02551,266.30408,978.30786,265.71054,978.30786z
		 M277.07928,975.40839c-6.97894,0-10.46927-1.13721-10.61438-1.18524l-0.58215-0.19495l0.1416-0.59705
		c0.76572-3.23682,1.61624-5.21057,1.93616-5.95355l0.07693-0.1792c0.40909-1.00439,1.45801-2.02356,9.04184-2.02356
		c4.74466,0,7.64673,0.47986,8.64496,1.42651h0.1792l0.14685,0.47119c0.05508,0.17743,0.15909,0.44666,0.29459,0.80066
		c0.42917,1.12408,1.14771,3.0061,1.7421,5.45447l0.14511,0.59705l-0.58215,0.19751
		C287.50656,974.27032,284.0582,975.40839,277.07928,975.40839z M267.48413,973.11212
		c1.24997,0.3103,4.4606,0.95367,9.59515,0.95367c5.12054,0,8.30145-0.63989,9.54443-0.95105
		c-0.54022-2.06201-1.15295-3.66693-1.5332-4.66254c-0.12585-0.32776-0.22552-0.59088-0.29019-0.78143
		c-0.10052-0.10315-1.21414-1.05334-7.72104-1.05334c-6.6022,0-7.63889,0.79547-7.77786,1.13727l-0.10751,0.25348
		C268.9072,968.67249,268.17993,970.36218,267.48413,973.11212z"/>
</g>
</svg>
