<?xml version="1.0" encoding="utf-8"?>
<!-- Generator: Adobe Illustrator 18.0.0, SVG Export Plug-In . SVG Version: 6.00 Build 0)  -->
<!DOCTYPE svg PUBLIC "-//W3C//DTD SVG 1.1//EN" "http://www.w3.org/Graphics/SVG/1.1/DTD/svg11.dtd">
<svg version="1.1" id="Calque_1" xmlns="http://www.w3.org/2000/svg" xmlns:xlink="http://www.w3.org/1999/xlink" x="0px" y="0px"
	 viewBox="-143.24136 928.40918 77.33334 77.33334" enable-background="new -143.24136 928.40918 77.33334 77.33334"
	 xml:space="preserve">
<rect x="-145.24136" y="926.56641" fill="#FFFFFF" width="81.05478" height="80.98083"/>
<g>
	<g>
		<g>
			<g>
				<g>
					<g>
						<g>
							<path fill="#FFFFFF" d="M-81.91398,940.94623h-46.78521l3.12161,53.06323h0.06199
								c0.35384,2.82776,9.22779,5.0946,20.21076,5.0946c10.96652,0,19.85337-2.26685,20.19637-5.0946h0.06015L-81.91398,940.94623z
								"/>
							<path fill="#504F4E" d="M-105.30469,999.97888c-9.41602,0-19.15918-1.74609-20.8418-5.09473h-0.19434l-0.11035-0.82324
								l-3.17627-53.98926h48.6416l-3.23779,54.8125h-0.25195C-86.1499,998.23279-95.88721,999.97888-105.30469,999.97888z
								 M-124.73145,993.49255l0.08398,0.4082c0.22607,1.80664,7.69434,4.32813,19.34277,4.32813
								c11.64941,0,19.1084-2.51953,19.32764-4.3252l0.104-0.76953l3.03076-51.3125H-127.771L-124.73145,993.49255z"/>
						</g>
					</g>
				</g>
			</g>
			<g>
				<g>
					<path fill="#FFFFFF" d="M-81.91398,941.11047c0,2.90259-12.19977,5.25897-23.39085,5.25897
						c-11.20734,0-23.39436-2.35638-23.39436-5.25897c0-2.90991,12.18702-5.25885,23.39436-5.25885
						C-94.11375,935.85162-81.91398,938.20056-81.91398,941.11047z"/>
					<path fill="#504F4E" d="M-105.30469,947.24451c-9.7876,0-24.26953-1.94922-24.26953-6.13379s14.48193-6.13379,24.26953-6.13379
						c9.78613,0,24.26563,1.94922,24.26563,6.13379S-95.51855,947.24451-105.30469,947.24451z M-105.30469,936.72693
						c-13.00977,0-22.51953,2.88281-22.51953,4.38379s9.50977,4.38379,22.51953,4.38379
						c13.00732,0,22.51563-2.88281,22.51563-4.38379S-92.29736,936.72693-105.30469,936.72693z"/>
				</g>
			</g>
		</g>
		<g>
			<path fill="#FFFFFF" d="M-83.29166,959.09833c0,2.70782-11.57245,4.90808-22.01257,4.90808
				c-10.45779,0-22.0291-2.20026-22.0291-4.90808c0-2.71661,11.5713-4.90802,22.0291-4.90802
				C-94.86411,954.19031-83.29166,956.38171-83.29166,959.09833z"/>
			<path fill="#504F4E" d="M-105.3042,964.88123c-7.17529,0-22.9043-1.45605-22.9043-5.7832
				c0-4.32617,15.729-5.78223,22.9043-5.78223c7.16992,0,22.8877,1.45605,22.8877,5.78223
				C-82.4165,963.42517-98.13428,964.88123-105.3042,964.88123z M-105.3042,955.0658c-12.22119,0-21.1543,2.65234-21.1543,4.03223
				c0,1.38086,8.93311,4.0332,21.1543,4.0332c12.21143,0,21.1377-2.65234,21.1377-4.0332
				C-84.1665,957.71814-93.09277,955.0658-105.3042,955.0658z"/>
		</g>
	</g>
</g>
<g>
	<path fill="#FFFFFF" d="M-109.54177,973.14001L-109.54177,973.14001c-1.01239,0-1.84071-0.82831-1.84071-1.8407l0,0
		c0-1.01239,0.82832-1.8407,1.84071-1.8407l0,0c1.01239,0,1.84071,0.82831,1.84071,1.8407l0,0
		C-107.70107,972.31171-108.52938,973.14001-109.54177,973.14001z"/>
	<path fill="#504F4E" d="M-109.54199,973.64001c-1.29053,0-2.34033-1.0498-2.34033-2.34082s1.0498-2.34082,2.34033-2.34082
		s2.34082,1.0498,2.34082,2.34082S-108.25146,973.64001-109.54199,973.64001z M-109.54199,969.95837
		c-0.73926,0-1.34033,0.60156-1.34033,1.34082s0.60107,1.34082,1.34033,1.34082s1.34082-0.60156,1.34082-1.34082
		S-108.80273,969.95837-109.54199,969.95837z"/>
</g>
<g>
	<path fill="#FFFFFF" d="M-102.73399,970.02515L-102.73399,970.02515c-1.0166,0-1.84071-0.8241-1.84071-1.8407l0,0
		c0-1.0166,0.8241-1.8407,1.8407-1.8407h0.00001c1.01659,0,1.8407,0.8241,1.8407,1.8407l0,0
		C-100.89329,969.20105-101.71739,970.02515-102.73399,970.02515z"/>
	<path fill="#504F4E" d="M-102.73389,970.52478c-1.29053,0-2.34082-1.0498-2.34082-2.34082
		c0-1.29004,1.05029-2.33984,2.34082-2.33984s2.34082,1.0498,2.34082,2.33984
		C-100.39307,969.47498-101.44336,970.52478-102.73389,970.52478z M-102.73389,966.84412
		c-0.73926,0-1.34082,0.60059-1.34082,1.33984s0.60156,1.34082,1.34082,1.34082s1.34082-0.60156,1.34082-1.34082
		S-101.99463,966.84412-102.73389,966.84412z"/>
</g>
<g>
	<path fill="#FFFFFF" d="M-103.46588,988.13501L-103.46588,988.13501c-1.01239,0-1.84071-0.82831-1.84071-1.8407l0,0
		c0-1.01239,0.82832-1.8407,1.84071-1.8407l0,0c1.01239,0,1.84071,0.82831,1.84071,1.8407l0,0
		C-101.62518,987.3067-102.45349,988.13501-103.46588,988.13501z"/>
	<path fill="#504F4E" d="M-103.46582,988.63513c-1.29053,0-2.34082-1.0498-2.34082-2.34082s1.05029-2.34082,2.34082-2.34082
		s2.34082,1.0498,2.34082,2.34082S-102.17529,988.63513-103.46582,988.63513z M-103.46582,984.95349
		c-0.73926,0-1.34082,0.60156-1.34082,1.34082s0.60156,1.34082,1.34082,1.34082s1.34082-0.60156,1.34082-1.34082
		S-102.72656,984.95349-103.46582,984.95349z"/>
</g>
<g>
	<path fill="#FFFFFF" d="M-95.99947,961.14001L-95.99947,961.14001c-1.01239,0-1.84071-0.82831-1.84071-1.8407l0,0
		c0-1.01239,0.82832-1.8407,1.84071-1.8407l0,0c1.01239,0,1.84071,0.82831,1.84071,1.8407l0,0
		C-94.15876,960.31171-94.98708,961.14001-95.99947,961.14001z"/>
	<path fill="#504F4E" d="M-95.99951,961.64001c-1.29053,0-2.34082-1.0498-2.34082-2.34082s1.05029-2.34082,2.34082-2.34082
		s2.34082,1.0498,2.34082,2.34082S-94.70898,961.64001-95.99951,961.64001z M-95.99951,957.95837
		c-0.73926,0-1.34082,0.60156-1.34082,1.34082s0.60156,1.34082,1.34082,1.34082s1.34082-0.60156,1.34082-1.34082
		S-95.26025,957.95837-95.99951,957.95837z"/>
</g>
</svg>
