<?xml version="1.0" encoding="utf-8"?>
<!-- Generator: Adobe Illustrator 18.0.0, SVG Export Plug-In . SVG Version: 6.00 Build 0)  -->
<!DOCTYPE svg PUBLIC "-//W3C//DTD SVG 1.1//EN" "http://www.w3.org/Graphics/SVG/1.1/DTD/svg11.dtd">
<svg version="1.1" id="Calque_1" xmlns="http://www.w3.org/2000/svg" xmlns:xlink="http://www.w3.org/1999/xlink" x="0px" y="0px"
	 viewBox="-14.82367 928.40918 77.33334 77.33334" enable-background="new -14.82367 928.40918 77.33334 77.33334"
	 xml:space="preserve">
<rect x="-16.6844" y="927.56641" fill="#FFFFFF" width="81.05478" height="80.98083"/>
<g>
	<path fill="#504F4E" d="M49.51514,959.09412H31.32861c-4.29004,0-7.78027-3.5-7.78027-7.80273v-15.41602
		c0-0.4834,0.3916-0.875,0.875-0.875s0.875,0.3916,0.875,0.875v15.41602c0,3.33789,2.70508,6.05273,6.03027,6.05273h18.18652
		c0.4834,0,0.875,0.3916,0.875,0.875S49.99854,959.09412,49.51514,959.09412z"/>
</g>
<g>
	<path fill="#504F4E" d="M41.42969,1000.26501H7.4165c-5.39893,0-9.7915-4.39258-9.7915-9.79199v-46.16602
		c0-5.39941,4.39258-9.79199,9.7915-9.79199h16.58057c2.41162,0,4.72949,0.88574,6.52783,2.49316l17.41406,15.57617
		c2.07227,1.85449,3.26221,4.51172,3.26367,7.29199l0.01855,30.59082c0.00195,2.61719-1.01563,5.07715-2.86572,6.92773
		C46.50586,999.24548,44.04639,1000.26501,41.42969,1000.26501z M7.4165,936.26501c-4.43408,0-8.0415,3.60742-8.0415,8.04199
		v46.16602c0,4.43457,3.60742,8.04199,8.0415,8.04199h34.01318c2.14893,0,4.16895-0.83691,5.68799-2.35742
		c1.51904-1.51953,2.35498-3.54004,2.35352-5.68848l-0.01855-30.59082c-0.00146-2.28418-0.97852-4.4668-2.68066-5.98926
		l-17.41406-15.57617c-1.47656-1.32031-3.38037-2.04785-5.36084-2.04785H7.4165z"/>
</g>
</svg>
